<svg width="124" height="26" viewBox="0 0 124 26" fill="none" xmlns="http://www.w3.org/2000/svg">
<path fill-rule="evenodd" clip-rule="evenodd" d="M73.3955 10.4432L70.1417 17.5124L65.7257 10.4432H58.0559L53.7175 19.6181L51.5482 10.368H44.6531C44.6531 10.368 43.646 10.368 42.7938 10.744C42.0965 11.0448 41.5542 11.496 41.5542 11.496L35.124 16.9859C31.1729 19.9941 24.2003 21.799 22.2635 21.8742C12.9668 22.2502 11.03 16.1587 11.7272 13.2257C13.3542 5.7053 25.3624 3.9756 31.6377 3.9756C34.5817 3.9756 37.0608 4.57723 38.9976 5.02846L40.857 1.86988L39.385 1.56906C37.7581 1.34345 35.124 0.817018 30.7081 0.817018C12.8118 0.741814 3.67006 5.63009 0.881045 11.872C-2.29534 18.9412 3.05028 25.2584 18.0025 25.2584C20.7141 25.2584 26.0597 25.0328 31.0954 23.2279H36.0537L38.5328 21.047H46.0477L46.3576 23.3783H54.6471V23.3031H59.0631L62.5494 15.8579L67.1202 23.3031H74.2477L80.3681 10.368H73.3955V10.4432ZM41.3993 18.5652L45.4279 14.8802L45.8152 18.49L41.3993 18.5652Z" fill="#ACACAC"/>
<path fill-rule="evenodd" clip-rule="evenodd" d="M93.4606 10.4432H82.2271L76.0293 23.3783H87.2628C96.2497 23.4535 99.8909 20.0693 101.13 17.5124C102.525 14.6546 101.363 10.4432 93.4606 10.4432ZM94.5453 16.6851C93.6931 19.9189 88.7348 20.1445 87.0304 20.1445H85.0161L87.9601 13.677H89.9744C91.9112 13.677 95.32 13.9778 94.5453 16.6851Z" fill="#ACACAC"/>
<path fill-rule="evenodd" clip-rule="evenodd" d="M115.463 10.3679L109.885 15.7826L108.026 10.4431H101.131L105.624 20.2948L101.131 24.5814H107.019C107.019 24.5814 108.181 24.431 108.646 24.2806C109.111 24.1302 109.808 23.4534 109.808 23.4534L123.211 10.3679H115.463Z" fill="#ACACAC"/>
</svg>
