<svg width="184" height="22" viewBox="0 0 184 22" fill="none" xmlns="http://www.w3.org/2000/svg">
<path d="M16.2711 0C16.7202 0 17.0196 0.0748466 17.4687 0.0748466C21.5104 0.374233 25.2527 1.42209 28.4711 4.04172C30.2674 5.4638 31.5398 7.26012 31.9141 9.58037C31.9889 10.1043 31.9889 10.7031 32.0638 11.227C32.0638 11.6012 31.9141 11.6761 31.6147 11.6761C29.8932 11.6761 28.1717 11.6761 26.4503 11.6761C25.4024 11.6761 24.3545 11.6761 23.2318 11.6761C23.8306 9.58037 24.4294 7.55951 24.9533 5.38896C23.7558 5.38896 22.7079 5.38896 21.5852 5.38896C21.4355 5.38896 21.2858 5.6135 21.211 5.68834C20.5374 6.7362 19.8638 7.78405 19.1153 8.8319C19.0404 8.9816 18.9656 9.05644 18.8159 9.20614C19.1153 7.93374 19.3398 6.7362 19.6392 5.38896C18.8159 5.4638 18.1423 5.53865 17.3938 5.4638C16.7202 5.38896 16.2711 5.68834 15.9717 6.21227C15.2981 7.33497 14.5496 8.38282 13.7263 9.43068C13.6515 9.50552 13.5766 9.58037 13.4269 9.65521C13.876 8.30797 14.2503 6.88589 14.6993 5.4638C10.7325 5.4638 6.84044 5.4638 2.72388 5.4638C2.94842 5.16442 3.09811 5.01472 3.17296 4.93988C5.26866 2.84417 7.81345 1.57178 10.6576 0.823313C12.1546 0.374233 13.7263 0.22454 15.2981 0.22454C15.4478 0.22454 15.5226 0.149693 15.6723 0.149693C15.8969 -1.44989e-07 16.0466 0 16.2711 0Z" fill="#ACACAC"/>
<path d="M43.3658 19.6098C41.7191 19.6098 40.1474 19.6098 38.5007 19.6098C38.5007 13.3975 38.5007 7.18522 38.5007 0.972954C38.7253 0.972954 38.875 0.972954 38.9498 0.972954C40.5216 0.972954 42.0934 0.972954 43.74 0.972954C44.1142 0.972954 44.1891 1.0478 44.3388 1.42203C45.5363 4.11651 46.7339 6.88584 48.0063 9.58032C48.0811 9.65516 48.0811 9.73001 48.1559 9.8797C48.5302 9.28093 48.7547 8.60731 49.129 8.00854C50.2517 5.76314 51.3744 3.51774 52.4222 1.27235C52.4971 1.12265 52.6467 0.972954 52.7964 0.972954C54.4431 0.972954 56.0897 0.972954 57.8112 0.972954C57.8112 7.18522 57.8112 13.3975 57.8112 19.6098C56.3891 19.6098 54.8921 19.6098 53.4701 19.6098C53.4701 15.568 53.4701 11.4515 53.4701 7.40976H53.3952C53.021 8.23308 52.7216 8.98154 52.3474 9.80486C51.5989 11.5263 50.8504 13.173 50.102 14.8944C50.0271 15.0441 49.8026 15.1938 49.6529 15.1938C48.605 15.1938 47.4823 15.1938 46.4345 15.1938C45.3866 12.5742 44.4136 9.95455 43.3658 7.40976C43.3658 11.4515 43.3658 15.568 43.3658 19.6098Z" fill="#ACACAC"/>
<path d="M103.916 6.51168C103.916 10.8528 103.916 15.1939 103.916 19.6098C102.494 19.6098 100.997 19.6098 99.5005 19.6098C99.5005 19.4601 99.5005 19.3105 99.5005 19.1608C99.5005 16.9154 99.5005 4.26628 99.5005 1.49695C99.5005 1.34726 99.5005 1.12272 99.5005 1.04787C99.725 1.04787 99.8747 1.04787 99.9496 1.04787C101.596 1.04787 103.168 1.04787 104.889 1.04787C105.264 1.04787 105.339 1.19757 105.488 1.42211C107.359 4.64051 109.231 7.93376 111.177 11.227C111.251 11.3767 111.326 11.5264 111.551 11.6012C111.551 8.1583 111.551 4.64051 111.551 1.19757C112.973 1.19757 114.47 1.19757 115.967 1.19757C115.967 7.40984 115.967 13.6221 115.967 19.8344C115.817 19.8344 115.667 19.8344 115.593 19.8344C114.245 19.8344 112.823 19.8344 111.551 19.8344C111.251 19.8344 111.102 19.7595 111.027 19.4601C108.781 15.3436 106.611 11.1522 104.366 6.96076C104.291 6.81106 104.216 6.73622 104.141 6.58652C103.991 6.51168 103.991 6.51168 103.916 6.51168Z" fill="#ACACAC"/>
<path d="M165.815 19.6846C165.815 13.3975 165.815 7.26007 165.815 0.972954C166.039 0.972954 166.189 0.972954 166.339 0.972954C169.033 0.972954 171.803 0.972954 174.497 0.972954C176.368 0.972954 178.015 1.49688 179.512 2.61958C180.485 3.2932 181.158 4.19136 181.757 5.31406C182.206 6.36191 182.73 7.40976 182.955 8.53246C183.329 10.6282 183.03 12.5742 181.907 14.5202C181.233 15.8674 180.41 16.9901 179.362 17.9631C179.138 18.1128 178.913 18.2625 178.763 18.4122C177.79 18.7864 176.743 18.9361 175.695 19.2355C173.449 19.8343 171.129 19.5349 168.884 19.6846C167.761 19.6846 166.788 19.6846 165.815 19.6846ZM170.68 16.092C176.443 16.092 177.79 12.4245 177.79 10.1791C177.79 7.93369 176.892 4.19136 171.653 4.19136C171.354 4.11651 171.054 4.11651 170.68 4.11651C170.68 8.08338 170.68 12.0503 170.68 16.092Z" fill="#ACACAC"/>
<path d="M79.6666 0.972954C81.2383 0.972954 82.8101 0.972954 84.5316 0.972954C84.5316 1.12265 84.5316 1.27234 84.5316 1.42203C84.5316 3.74228 84.5316 6.13737 84.5316 8.45762C84.5316 8.9067 84.3819 13.3226 84.9807 14.8196C85.4298 15.7926 86.0285 16.3165 87.0015 16.4662C88.1242 16.6907 89.1721 16.4662 90.0702 15.8674C90.1451 15.7926 90.2948 15.6429 90.3696 15.568C90.8936 14.595 91.1929 13.5472 91.1929 12.4245C91.1929 11.9006 91.1929 3.96682 91.1929 1.0478C92.6899 1.0478 94.1868 1.0478 95.6089 1.0478C95.6089 1.19749 95.6089 1.42203 95.6089 1.49688C95.6089 4.64044 95.6837 12.4993 95.6089 12.7239C95.4592 13.6969 95.4592 14.7447 95.2347 15.7177C94.8604 17.3644 93.8874 18.4871 92.3156 19.0858C89.2469 20.3582 86.3279 20.4331 83.2592 19.0858C81.5377 18.3374 80.5647 16.9901 80.0408 15.2687C79.8163 14.5202 79.6666 13.7717 79.6666 12.9484C79.5917 9.05639 79.6666 5.31406 79.6666 1.42203C79.6666 1.34719 79.6666 1.19749 79.6666 0.972954Z" fill="#ACACAC"/>
<path d="M78.2441 19.6846C77.5705 19.6846 76.8969 19.6846 76.2232 19.6846C75.3999 19.6846 74.5766 19.6846 73.7533 19.6846C73.4539 19.6846 73.3042 19.6098 73.3042 19.3104C72.8551 18.038 72.4809 16.9153 72.1067 15.6429C70.011 15.6429 68.0649 15.6429 65.9692 15.6429C65.6699 16.9153 65.4453 18.038 65.1459 19.3104C65.1459 19.4601 64.9214 19.6846 64.8465 19.6846C63.3496 19.6846 61.7778 19.6846 60.2061 19.6846C60.5054 18.9362 60.6551 18.2625 60.8797 17.5141C62.676 12.1251 64.4723 6.73616 66.1938 1.3472C66.3435 0.972971 66.4183 0.898125 66.7177 0.898125C68.2146 0.898125 69.7864 0.898125 71.2834 0.898125C71.5079 0.898125 71.6576 0.972971 71.7324 1.19751C73.903 7.18524 75.9238 13.2478 78.0944 19.2355C78.1692 19.3852 78.2441 19.4601 78.2441 19.6846ZM70.8343 12.4994C70.3103 10.4036 69.6367 8.45763 69.1128 6.43678H69.038C68.514 8.45763 67.9153 10.4785 67.3165 12.4245C68.4392 12.4994 69.5619 12.4994 70.8343 12.4994Z" fill="#ACACAC"/>
<path d="M139.768 11.1521C139.768 12.7987 139.768 14.3705 139.768 16.092C142.388 16.092 145.007 16.092 147.627 16.092C147.627 17.2895 147.627 18.4122 147.627 19.6098C143.436 19.6098 139.169 19.6098 134.903 19.6098C134.903 13.3975 134.903 7.18522 134.903 0.972954C139.169 0.972954 143.361 0.972954 147.702 0.972954C147.702 2.1705 147.702 3.2932 147.702 4.49075C145.082 4.49075 142.463 4.49075 139.843 4.49075C139.843 5.5386 139.843 6.58645 139.843 7.6343C142.313 7.6343 144.783 7.6343 147.328 7.6343C147.328 8.83185 147.328 9.95455 147.328 11.2269C144.708 11.1521 142.238 11.1521 139.768 11.1521Z" fill="#ACACAC"/>
<path d="M0.478516 9.87971C3.62207 9.87971 6.69079 9.87971 9.83434 9.87971C9.31042 11.9754 8.6368 13.9963 8.11287 16.092C9.31042 16.092 10.3583 16.092 11.481 16.092C11.6307 16.092 11.7804 15.9423 11.8552 15.7926C12.7534 14.5202 13.5767 13.3227 14.4 12.0503C14.4748 11.9754 14.4748 11.9006 14.6245 11.9006C14.1754 13.2478 13.8012 14.6699 13.3521 16.0171C13.9509 16.0171 14.6245 16.0171 15.2981 16.0171C15.8221 16.0171 16.4957 16.1668 16.8699 15.9423C17.319 15.7178 17.3939 15.119 17.6932 14.5951C18.2172 13.6969 18.8159 12.7987 19.4147 11.9006C18.9656 13.2478 18.5914 14.5951 18.2172 15.9423C22.0343 15.9423 25.8515 15.9423 29.7435 15.9423C29.2196 16.4662 28.6957 16.9901 28.2466 17.3644C26.1509 19.0858 23.681 20.1337 21.0613 20.7325C19.1153 21.1816 17.1693 21.3312 15.2233 21.1816C11.1816 21.0319 7.5141 19.9092 4.29569 17.4392C2.49937 16.092 1.15214 14.2957 0.703055 12.0503C0.553362 11.5263 0.553362 10.703 0.478516 9.87971Z" fill="#ACACAC"/>
<path d="M119.41 0.972954C123.676 0.972954 127.868 0.972954 132.134 0.972954C132.134 2.1705 132.134 3.2932 132.134 4.49075C129.514 4.49075 126.895 4.49075 124.275 4.49075C124.275 5.68829 124.275 6.81099 124.275 8.00854C126.745 8.00854 129.215 8.00854 131.76 8.00854C131.76 9.28093 131.76 10.3288 131.76 11.6012C129.29 11.6012 126.82 11.6012 124.275 11.6012C124.275 14.2957 124.275 16.9153 124.275 19.5349C122.629 19.5349 121.057 19.5349 119.41 19.5349C119.41 13.3975 119.41 7.26007 119.41 0.972954Z" fill="#ACACAC"/>
<path d="M163.569 16.092C163.569 17.3644 163.569 18.4122 163.569 19.6098C159.303 19.6098 155.112 19.6098 150.771 19.6098C150.771 13.3975 150.771 7.18522 150.771 0.972954C152.342 0.972954 153.914 0.972954 155.561 0.972954C155.561 5.91283 155.561 11.0024 155.561 16.0171C158.255 16.092 160.875 16.092 163.569 16.092Z" fill="#ACACAC"/>
</svg>
