<svg width="139" height="32" viewBox="0 0 139 32" fill="none" xmlns="http://www.w3.org/2000/svg">
<path d="M137.519 0.115356H31.2747V10.9331H137.519V0.115356Z" fill="#ACACAC"/>
<path d="M31.2747 21.8889V31.8781H50.1942C50.1942 31.8781 50.1942 29.9447 50.1942 29.7606C50.1942 29.5304 50.1021 29.4844 49.918 29.4844C49.7339 29.4844 37.5351 29.4844 37.5351 29.4844V25.9398H48.2608V23.8223C48.2608 23.6382 48.1688 23.5461 47.9846 23.5461H37.5351V19.9095H50.1942V17.792C50.1942 17.6079 50.1021 17.5158 49.918 17.5158H35.6478C33.208 17.5158 31.2747 19.4952 31.2747 21.8889Z" fill="#ACACAC"/>
<path d="M57.1454 17.5158H71.5997C71.7839 17.5158 71.8759 17.5618 71.8759 17.792V19.9095H59.0327V29.2542H69.3901V25.9398H62.9455V23.8223C62.9455 23.6382 63.0376 23.5461 63.2217 23.5461C64.8329 23.5461 71.4156 23.5461 71.5077 23.5461C71.6918 23.5461 71.7839 23.6382 71.7839 23.8223V31.8781H52.6802V21.935C52.7722 19.4952 54.7056 17.5158 57.1454 17.5158Z" fill="#ACACAC"/>
<path d="M79.103 17.5158H93.5574C93.7415 17.5158 93.8335 17.5618 93.8335 17.792V19.9095H80.9904V29.2542H91.3478V25.9398H84.9032C84.9032 25.9398 84.9032 24.0064 84.9032 23.8223C84.9032 23.6382 84.9952 23.5461 85.1794 23.5461C86.7905 23.5461 93.3732 23.5461 93.4653 23.5461C93.6494 23.5461 93.7415 23.6382 93.7415 23.8223V31.8781H74.6838V21.935C74.7299 19.4952 76.7093 17.5158 79.103 17.5158Z" fill="#ACACAC"/>
<path d="M96.7339 21.8889V31.8781H115.653V29.7606C115.653 29.5304 115.561 29.4844 115.377 29.4844C115.193 29.4844 102.994 29.4844 102.994 29.4844V25.9398H113.72V23.8223C113.72 23.6382 113.628 23.5461 113.444 23.5461H103.04V19.9095H115.746V17.792C115.746 17.6079 115.653 17.5158 115.469 17.5158H101.107C98.7133 17.5158 96.7339 19.4952 96.7339 21.8889Z" fill="#ACACAC"/>
<path d="M0.662598 17.5158H21.5155V20.2318H10.4676V23.316H21.5155V26.0779H10.5137V29.2082H21.5155V31.8781H0.662598V17.5158Z" fill="#ACACAC"/>
<path d="M133.79 17.5158C135.907 17.5158 137.565 19.6333 137.565 21.7048C137.565 23.8223 135.861 25.8938 133.79 25.8938H132.087L138.531 31.3717C138.531 31.3717 139.176 31.8781 138.485 31.8781H131.672C131.396 31.8781 131.212 31.694 130.936 31.5098C131.166 31.694 124.491 25.9398 124.491 25.9398V31.9241H118.231V21.935C118.231 19.4952 120.164 17.5618 122.604 17.5618H133.79V17.5158ZM132.869 23.5461C133.514 23.5461 134.48 22.9017 134.48 21.7048C134.48 20.4159 133.606 19.8635 132.869 19.8635H124.491V23.5001L132.869 23.5461Z" fill="#ACACAC"/>
</svg>
