<svg width="186" height="38" viewBox="0 0 186 38" fill="none" xmlns="http://www.w3.org/2000/svg">
<path d="M70.845 9.08209H62.1208V28.7578H70.845V9.08209Z" fill="#ACACAC"/>
<path d="M35.2055 9.08209H30.8125V18.9199H39.5985V13.4751C39.5985 11.062 37.6186 9.08209 35.2055 9.08209Z" fill="#ACACAC"/>
<path d="M133.152 9.08209H124.427V37.5438H133.152V9.08209Z" fill="#ACACAC"/>
<path d="M132.347 10.0102H125.231V36.5538H132.347V10.0102Z" fill="white"/>
<path d="M122.447 13.4751L122.385 13.1038C122.2 10.8145 120.343 9.02019 117.992 9.02019C117.807 9.02019 117.559 9.02019 117.373 9.08206H113.599V12.8563C113.599 13.042 113.537 13.2276 113.537 13.4751C113.537 13.6607 113.537 13.9082 113.599 14.0938V14.7125V15.0838H122.323V14.96H122.385V13.4751H122.447Z" fill="#ACACAC"/>
<path d="M150.166 9.08209C147.877 9.08209 145.959 10.8764 145.835 13.1657V13.4751V14.8982V15.0838H154.559V14.7126V13.2276V9.14397L150.166 9.08209Z" fill="#ACACAC"/>
<path d="M10.5182 9.08206V14.0938C10.5182 14.2794 10.4563 14.465 10.4563 14.7125C10.4563 14.96 10.4563 15.1456 10.5182 15.3313V21.6423C10.5182 21.828 10.4563 22.0136 10.4563 22.2611C10.4563 22.4467 10.4563 22.6942 10.5182 22.8798V28.8196H19.2423V22.1373C19.2423 20.5286 18.3761 19.1674 17.1386 18.3631C18.3142 17.6206 19.1186 16.3831 19.2423 14.8981V9.02019H10.5182V9.08206Z" fill="#ACACAC"/>
<path d="M80.9303 13.4132C80.9303 11.0001 78.9503 9.02019 76.5373 9.02019C76.3517 9.02019 76.1042 9.02019 75.9186 9.08206H72.1443V28.7578H80.8684V14.0319C80.9303 13.7844 80.9303 13.5988 80.9303 13.4132Z" fill="#ACACAC"/>
<path d="M164.707 9.08209H155.983V28.7578H164.707V9.08209Z" fill="#ACACAC"/>
<path d="M175.411 9.08209H166.687V28.7578H175.411V9.08209Z" fill="#ACACAC"/>
<path d="M181.289 9.08209H176.896V28.7578H185.62V13.4132C185.62 11.0002 183.702 9.08209 181.289 9.08209Z" fill="#ACACAC"/>
<path d="M121.334 12.9801C121.334 11.3095 119.849 10.0102 117.93 10.0102H114.466V12.7326V13.7845V14.032H121.272V13.9701H121.334V12.9801Z" fill="white"/>
<path d="M29.6375 9.08209H20.9133V28.7578H29.6375V9.08209Z" fill="#ACACAC"/>
<path d="M8.72413 0.35791H0V28.6959H8.72413V0.35791Z" fill="#ACACAC"/>
<path d="M163.902 9.88648H156.787V27.7679H163.902V9.88648Z" fill="white"/>
<path d="M174.668 9.88648H167.553V27.7679H174.668V9.88648Z" fill="white"/>
<path d="M181.289 9.88648H177.7V27.7679H184.816V13.8464C184.816 11.6808 183.269 9.88648 181.289 9.88648Z" fill="white"/>
<path d="M150.29 9.88648C148.496 9.88648 147.011 11.1858 146.825 12.8564V13.1039V14.1557V14.2795H153.693V14.032V12.9183V9.94836L150.29 9.88648Z" fill="white"/>
<path d="M153.074 16.3832H152.208H150.166C148.496 16.3832 147.011 17.3732 146.268 18.7344C145.959 19.2294 145.835 19.7243 145.835 20.0337V24.4267C145.835 26.5304 147.32 28.2629 149.3 28.696H151.156H151.651H154.621V18.1156V17.8063V16.3213L153.074 16.3832Z" fill="#ACACAC"/>
<path d="M152.518 17.2494H151.837H150.228C148.867 17.2494 147.692 18.0538 147.135 19.2912C146.887 19.7243 146.763 20.0956 146.763 20.4049V24.1173C146.763 25.9117 147.939 27.3966 149.486 27.7679H150.971H151.404H153.755V18.7962V18.5487V17.3113H152.518V17.2494Z" fill="white"/>
<path d="M50.4266 23.8698V20.0337V17.8063V14.032C50.4266 13.8464 50.4885 13.6608 50.4885 13.4133C50.4885 13.2276 50.4885 12.9802 50.4266 12.7945V9.02026H46.6524C46.4667 9.02026 46.2811 8.95839 46.0336 8.95839C43.6206 8.95839 41.6406 10.9383 41.6406 13.3514V17.7444V19.9718V24.3648C41.6406 26.5304 43.1875 28.3247 45.2911 28.696H46.0336H46.7761H50.3648V24.9836C50.3648 24.7979 50.4266 24.6123 50.4266 24.3648C50.4885 24.2411 50.4266 24.0555 50.4266 23.8698Z" fill="#ACACAC"/>
<path d="M55.8094 9.02019C55.6237 9.02019 55.3763 9.02019 55.1906 9.08206H51.4164V12.8563C51.4164 13.042 51.3545 13.2276 51.3545 13.4751C51.3545 13.6607 51.3545 13.9082 51.4164 14.0938V17.8681V20.0955V23.8698C51.4164 24.0554 51.3545 24.241 51.3545 24.4885C51.3545 24.6741 51.3545 24.9216 51.4164 25.1072V28.8196H55.0669H55.8094H56.5518C58.5937 28.4484 60.2024 26.6541 60.2024 24.4885V20.0955V17.8681V13.4751C60.2024 11.0001 58.2843 9.02019 55.8094 9.02019Z" fill="#ACACAC"/>
<path d="M87.1796 9.08209C84.7666 9.08209 82.7866 11.062 82.7866 13.4751C82.7866 13.6607 82.7866 13.9082 82.8485 14.0938V17.8681V20.0955V23.8698C82.8485 24.0554 82.7866 24.241 82.7866 24.4885C82.7866 26.5304 84.1478 28.2009 86.0659 28.6959H87.2415H88.3552H91.6345V20.0955V17.8681V9.08209H87.1796Z" fill="#ACACAC"/>
<path d="M112.238 23.1893V22.8181H103.514V24.7361C103.7 26.6542 105.061 28.2629 106.917 28.6342H107.907V28.696H112.238V23.1893C112.3 23.1893 112.238 23.1893 112.238 23.1893Z" fill="#ACACAC"/>
<path d="M121.333 18.0537C121.21 17.9918 121.086 17.8681 120.962 17.8062C120.158 17.2494 119.044 16.7544 117.374 16.6306C116.074 16.3831 114.651 16.0738 113.599 15.7644C112.733 15.5169 112.362 15.0838 112.3 14.8982V9.08209H107.907C105.494 9.08209 103.514 11.062 103.514 13.4751V17.8681C103.514 18.3631 103.823 19.1056 104.566 19.7862C105.308 20.4049 106.546 21.0855 108.526 21.2711C109.454 21.4567 110.382 21.6424 111.248 21.8899C111.31 21.8899 111.372 21.9517 111.434 21.9517C111.681 22.0136 111.929 22.0755 112.114 22.1374C112.176 22.1374 112.176 22.1374 112.238 22.1992C113.352 22.5086 113.599 23.1273 113.599 23.1273V28.8197C113.599 28.8197 116.26 28.8197 117.25 28.8197C117.435 28.8197 117.992 28.8197 117.992 28.8197H118.735C120.777 28.4484 122.385 26.6541 122.385 24.4885V20.0955C122.447 19.5387 122.138 18.7343 121.333 18.0537Z" fill="#ACACAC"/>
<path d="M97.2028 9.08209H92.8098V13.4751V17.8681V20.0955V24.4885V28.7578H96.2747H97.2647H98.1309C100.111 28.3247 101.596 26.5304 101.596 24.4885H101.658V20.0955V17.8681V13.4751C101.596 11.0002 99.6159 9.08209 97.2028 9.08209Z" fill="#ACACAC"/>
<path d="M139.215 9.08209H134.822V17.8062V20.0337V28.6959H137.482H138.287H140.143C142.123 28.2628 143.608 26.4685 143.608 24.4267V20.0337V17.8062V13.4751C143.608 11.0002 141.628 9.08209 139.215 9.08209Z" fill="#ACACAC"/>
<path d="M111.31 23.6841H104.504V23.8697V24.8597V25.0453C104.628 26.5922 106.051 27.8296 107.907 27.8296H111.31V25.0453V23.6841Z" fill="white"/>
<path d="M116.879 17.4969C112.053 16.6306 111.681 16.0119 111.31 15.2694C111.31 14.5269 111.31 10.0102 111.31 10.0102H108.464C106.298 10.0102 104.504 11.8045 104.504 13.9701C104.504 13.9701 104.442 17.7444 104.504 17.93C105.432 19.9099 108.093 20.2812 109.516 20.4049C111.434 20.838 114.404 21.333 114.466 22.6323C114.466 22.8798 114.466 27.8297 114.466 27.8297H116.198H116.879H118.178C120.034 27.5203 121.457 25.8498 121.457 23.8698V19.9099C121.086 18.2393 118.364 17.6206 116.879 17.4969Z" fill="white"/>
<path d="M139.277 10.134H135.812V17.9919V19.9719V27.7679H136.493H138.596H140.081C141.628 27.3967 142.804 25.7879 142.804 23.9318V19.9719V17.9919V14.032C142.804 11.9283 141.195 10.134 139.277 10.134Z" fill="white"/>
</svg>
