<svg width="88" height="54" viewBox="0 0 88 54" fill="none" xmlns="http://www.w3.org/2000/svg">
<path d="M54.2395 35.3394L78.8037 21.6346V17.5945L54.2395 31.3785V35.3394Z" fill="#ACACAC"/>
<path d="M54.2395 18.0699L78.8037 4.28583V0.32489L54.2395 14.0297V18.0699Z" fill="#ACACAC"/>
<path fill-rule="evenodd" clip-rule="evenodd" d="M12.2925 52.7677V43.8951H5.11098V52.7677H0.867336H0.377686V31.1409H5.11098V40.1719H12.2925V31.1409H17.0258V52.7677H12.2925ZM78.8035 45.0834C78.8035 43.8159 79.13 42.5484 79.7012 41.4394C79.946 40.964 80.2725 40.4887 80.7621 40.1719C81.007 39.9342 81.3334 39.7758 81.6598 39.6965C82.1495 39.6173 82.7207 39.6173 82.884 40.0926C82.9656 40.2511 82.9656 40.4095 83.0472 40.4887C83.2104 41.2017 83.2104 42.6276 83.2104 43.103V52.7677H87.7805V41.3601C87.7805 39.855 87.454 38.1914 86.3931 37.0823C85.4954 36.1317 84.4345 35.7356 83.292 35.7356C81.415 35.7356 79.4564 36.8447 78.8851 38.5875V28.6059L74.3151 31.1409V52.7677H78.8851V45.0834H78.8035ZM19.3109 49.6781C18.8212 48.8859 18.4132 47.9353 18.1684 46.9847C17.9235 45.9548 17.7603 44.8458 17.7603 43.5783C17.7603 42.7861 17.8419 41.9939 17.9235 41.2809C18.0867 40.6472 18.25 39.9342 18.4948 39.3005C18.8212 38.5875 19.3109 37.8745 19.8821 37.32C20.6166 36.6862 21.4327 36.2109 22.4936 35.894C23.2281 35.7356 23.9626 35.5772 24.7787 35.6564C25.4315 35.6564 26.0028 35.7356 26.574 35.894C27.3085 36.0525 27.9614 36.3694 28.5326 36.7654C29.1855 37.2408 29.7568 37.8745 30.1648 38.5875C30.6545 39.4589 30.8993 40.4887 31.0625 41.5978C31.1441 42.1523 31.1441 42.6276 31.1441 43.1822V43.9744H26.574H22.004C22.0856 44.6873 22.2488 45.4003 22.4936 46.0341C22.7384 46.6678 23.0649 47.2223 23.3913 47.6977C23.7993 48.2522 24.289 48.6483 24.8603 49.0444C25.5947 49.5197 26.4924 49.6781 27.3901 49.6781C28.3694 49.6781 29.3487 49.4405 30.1648 49.1236L30.8177 48.8859V52.3716L30.4913 52.4508C29.6752 52.7677 28.7775 52.9261 27.7982 53.0053C27.3901 53.1638 26.8189 53.1638 26.166 53.1638C25.5947 53.1638 24.9419 53.0845 24.3706 53.0053C23.7177 52.9261 23.1465 52.6884 22.5752 52.4508C22.004 52.2131 21.5143 51.8963 21.0247 51.5794C20.3718 51.1041 19.8005 50.4703 19.3109 49.6781ZM26.9821 40.7264C26.9821 40.568 26.9005 40.4095 26.9005 40.2511C26.7373 39.855 26.574 39.5381 26.166 39.3005C26.0028 39.2212 25.8396 39.0628 25.5947 39.0628C24.9419 38.9044 24.2074 38.9044 23.6361 39.2212C23.2281 39.4589 22.82 39.855 22.6568 40.2511C22.5752 40.4095 22.4936 40.568 22.412 40.8056H26.9821V40.7264ZM38.5705 39.4589V46.5094C38.5705 46.8262 38.5705 47.1431 38.5705 47.46C38.5705 47.9353 38.6521 48.4898 38.9785 48.8859C39.2234 49.2028 39.5498 49.4405 39.8762 49.5197C40.3659 49.5989 40.8555 49.5989 41.2636 49.5197C41.7532 49.4405 42.1613 49.282 42.6509 49.2028V52.7677L42.2429 52.8469C41.7532 52.9261 41.182 53.0053 40.6923 53.0845C40.2027 53.1638 39.713 53.1638 39.2234 53.1638C38.7337 53.1638 38.1625 53.0845 37.6728 53.0053C36.9383 52.8469 36.2038 52.6885 35.6326 52.2131C35.1429 51.8963 34.7349 51.4209 34.4901 50.8664C34.3269 50.5495 34.2452 50.2327 34.1636 49.8366C34.0004 49.1236 34.0004 48.4106 34.0004 47.6977V39.4589H30.9809V35.9733H34.0004V31.1409L38.5705 28.6059V36.0525H44.2831V31.2201L48.8532 28.6851V36.1317H53.4233V39.6173H48.8532V46.6678C48.8532 46.9847 48.8532 47.3016 48.8532 47.6184C48.8532 48.0938 48.9348 48.6483 49.2612 49.0444C49.5061 49.3613 49.8325 49.5989 50.1589 49.6781C50.6486 49.7573 51.1382 49.7573 51.5463 49.6781C52.0359 49.5989 52.444 49.4405 52.9336 49.3613V52.9261L52.5256 53.0053C52.0359 53.0845 51.4647 53.1638 50.975 53.243C50.567 53.1638 49.9957 53.1638 49.506 53.1638C49.0164 53.1638 48.4451 53.0845 47.9555 53.0053C47.221 52.8469 46.4865 52.6885 45.9153 52.2131C45.4256 51.8963 45.0992 51.4209 44.7728 50.8664C44.6095 50.5495 44.5279 50.2327 44.4463 49.8366C44.2831 49.1236 44.2831 48.4106 44.2831 47.6977V39.4589H38.5705ZM54.729 52.7677H54.2393V36.0525H58.8094V52.8469H54.729V52.7677ZM61.0129 49.5197C60.5232 48.7275 60.1968 47.8561 59.9519 46.8263C59.7887 46.0341 59.6255 45.1627 59.6255 44.2912C59.6255 43.4198 59.6255 42.5484 59.7887 41.7562C59.952 40.964 60.1152 40.2511 60.4416 39.6173C60.8496 38.6667 61.5025 37.8745 62.237 37.2408C63.0531 36.607 64.114 36.0525 65.3381 35.8148C66.4806 35.5772 67.868 35.5772 69.0105 35.8148C69.9082 35.9733 70.7243 36.2901 71.2955 36.7654C72.1116 37.32 72.6013 38.0329 73.0093 38.9044C73.3358 39.6965 73.499 40.6472 73.499 41.5186C73.499 41.7562 73.499 42.0731 73.499 42.3108H68.6841V41.8355C68.6841 41.5978 68.6841 41.3601 68.6841 41.1225C68.6025 40.6472 68.5208 40.1719 68.276 39.7758C68.0312 39.4589 67.7048 39.2212 67.2967 39.142C66.9703 39.0628 66.5622 39.0628 66.2358 39.142C65.9094 39.2212 65.5829 39.4589 65.3381 39.6965C65.0117 40.0134 64.8485 40.4095 64.6852 40.8056C64.6036 41.1225 64.522 41.4394 64.4404 41.8355C64.2772 42.7069 64.3588 43.5783 64.4404 44.4497C64.522 44.925 64.6036 45.4003 64.7669 45.8756C65.1749 46.9847 65.8278 48.0145 66.8887 48.7275C67.4599 49.1236 68.1128 49.3613 68.8473 49.5197C69.5818 49.6781 70.3978 49.6781 71.1323 49.5989C71.7036 49.5197 72.1932 49.4405 72.6013 49.282L73.2541 49.0444V52.2924L72.9277 52.3716C71.9484 52.6884 70.9691 52.9261 69.8266 53.0053C69.2553 53.0845 68.7657 53.0845 68.1944 53.0845C67.6232 53.0845 67.1335 53.0845 66.5622 53.0053C65.6645 52.8469 64.8485 52.6092 64.0324 52.2924C62.8082 51.7378 61.7473 50.7872 61.0129 49.5197Z" fill="#ACACAC"/>
<path fill-rule="evenodd" clip-rule="evenodd" d="M54.2395 29.6358L78.8037 15.8517V11.8116L54.2395 25.5956V29.6358Z" fill="#ACACAC"/>
<path fill-rule="evenodd" clip-rule="evenodd" d="M54.2395 23.8528L78.8037 10.0688V6.10794L54.2395 19.8127V23.8528Z" fill="#ACACAC"/>
</svg>
