<svg width="116" height="68" viewBox="0 0 116 68" fill="none" xmlns="http://www.w3.org/2000/svg">
<path d="M35.674 38.9527H30.827C30.827 38.9527 29.7347 41.1396 27.1406 41.1396C25.5022 41.2058 23.7272 40.3443 22.908 38.9527H18.061C18.061 38.9527 20.1773 45.1156 27.1406 45.1156C33.2164 45.1156 35.674 38.9527 35.674 38.9527Z" fill="#ACACAC"/>
<path d="M58.8849 37.8261C58.9531 37.8261 60.5915 33.3199 60.5915 33.3199L62.2982 37.8261H66.9404L62.9126 27.7534H58.2705L54.2427 37.8261H58.8849Z" fill="#ACACAC"/>
<path d="M34.5819 49.7543H32.4656L31.2368 55.3873H31.9878L32.4656 53.0678H34.3088C35.6742 53.0678 36.3569 52.2063 36.3569 51.2122C36.4251 50.2845 35.8107 49.7543 34.5819 49.7543ZM34.1723 52.4714H32.6022L33.08 50.417H34.1723C34.855 50.417 35.6059 50.417 35.6059 51.2785C35.6742 52.0738 35.0598 52.4714 34.1723 52.4714Z" fill="#ACACAC"/>
<path d="M47.3475 37.8261L54.2425 27.7534H48.508L45.0264 33.9163H44.4802L40.4525 27.7534H35.2642L42.1592 37.8261H47.3475Z" fill="#ACACAC"/>
<path d="M47.3475 38.9527H42.1592V45.1156H47.3475V38.9527Z" fill="#ACACAC"/>
<path d="M11.0294 38.9527C11.3708 39.2177 11.5756 39.6154 11.5756 40.013C11.5756 40.5431 11.0294 41.6697 8.70836 41.6697H5.84114V37.7598H15.0572C14.5793 37.0972 13.9649 36.567 13.3505 36.1031C12.5313 35.6393 12.8044 35.573 12.8044 35.573C12.8044 35.573 14.5111 33.9163 14.5111 32.1933C14.5111 30.4704 13.1457 27.6871 8.70836 27.6871H1.19897V45.1156H10.415C12.6679 45.0493 14.7159 43.724 15.6033 41.7359C15.8764 40.8082 15.8764 39.8804 15.6033 38.9527H11.0294ZM5.63634 30.8017C5.63634 30.8017 7.27475 30.868 8.77663 30.8017C10.2785 30.7354 10.3468 34.7115 8.64009 34.7115C6.93341 34.7115 5.63634 34.7115 5.63634 34.7115V30.8017Z" fill="#ACACAC"/>
<path d="M22.5667 37.8261C22.5667 37.8261 21.5427 31.6632 26.731 31.6632C32.3972 31.6632 31.2367 37.8261 31.2367 37.8261H35.8788C35.8788 37.8261 37.2442 27.7534 26.6628 27.7534C16.0813 27.7534 17.9246 37.8261 17.9246 37.8261H22.5667Z" fill="#ACACAC"/>
<path d="M105.034 36.1031C105.034 32.1271 101.006 27.6871 97.5243 27.6871H89.4688V37.7598H93.4965V31.0668H96.3637C98.4117 31.0668 101.006 33.9826 101.006 36.1031C101.006 38.2237 98.8213 41.7359 96.3637 41.7359H93.4965V38.9527H89.4688V45.1156H98.1387C101.552 45.1156 105.034 40.1455 105.034 36.1031Z" fill="#ACACAC"/>
<path d="M66.3942 22.1206L62.9125 15.9577L58.8848 26.6268H64.6875L66.3942 22.1206Z" fill="#ACACAC"/>
<path d="M105.853 29.5425C106.877 29.5425 107.833 29.0124 108.31 28.1509C108.584 27.7533 108.72 27.2232 108.652 26.7594C108.652 26.2955 108.515 25.7654 108.31 25.3678C108.037 24.9702 107.696 24.6388 107.286 24.3738C106.877 24.1087 106.331 23.9762 105.853 24.0424C105.375 24.0424 104.829 24.175 104.419 24.44C104.01 24.7051 103.6 25.0364 103.395 25.434C102.917 26.2955 102.917 27.3557 103.395 28.2172C103.941 29.0787 104.829 29.6088 105.853 29.5425ZM103.873 25.6328C104.078 25.3015 104.351 25.0364 104.692 24.8376C105.443 24.44 106.331 24.44 107.082 24.8376C107.423 25.0364 107.696 25.3015 107.901 25.6328C108.31 26.3618 108.31 27.2232 107.901 27.9521C107.696 28.2835 107.423 28.5485 107.082 28.7473C106.74 28.9461 106.331 29.0787 105.921 29.0787C105.512 29.0787 105.102 29.0124 104.761 28.8136C104.419 28.6148 104.146 28.3497 103.941 28.0184C103.464 27.2232 103.464 26.3618 103.873 25.6328Z" fill="#ACACAC"/>
<path d="M105.512 27.4221H106.058L106.672 28.2835H107.491L106.809 27.2895C107.013 27.2233 107.15 27.0907 107.218 26.8919C107.355 26.6931 107.355 26.4944 107.355 26.2956C107.355 25.9642 107.218 25.6992 107.013 25.5004C106.74 25.3016 106.399 25.1691 105.989 25.2353H104.624V28.2835H105.443V27.4221H105.512ZM105.443 25.898H105.921C106.058 25.898 106.262 25.9642 106.331 26.0305C106.467 26.0968 106.467 26.2293 106.467 26.3618C106.467 26.4944 106.399 26.6269 106.331 26.6931C106.194 26.7594 106.058 26.8257 105.921 26.8257H105.443V25.898Z" fill="#ACACAC"/>
<path d="M77.3171 38.9527L81.4132 45.1156H87.1476L82.5054 38.9527H77.3171Z" fill="#ACACAC"/>
<path d="M76.7707 38.9527H72.7429V45.1156H76.7707V38.9527Z" fill="#ACACAC"/>
<path d="M70.9683 26.6268L72.7433 22.1206L69.2617 15.9577L65.2339 26.6268H70.9683Z" fill="#ACACAC"/>
<path d="M51.3755 45.1156H56.5638L57.7243 41.736H63.5271L64.6876 45.1156H69.8759L67.5548 38.9527H53.6966L51.3755 45.1156Z" fill="#ACACAC"/>
<path d="M77.317 26.6268L79.0919 22.1206L75.6103 15.9577L71.5825 26.6268H77.317Z" fill="#ACACAC"/>
<path d="M71.1731 51.3448L70.9683 52.2062C70.7635 53.134 70.4221 53.9954 69.876 54.8569H69.3981L68.9885 56.7124H69.6712L69.9443 55.4533H73.0846L72.8115 56.7124H73.4942L73.9038 54.8569H73.3576L74.1086 51.3448H71.1731ZM72.6067 54.7907H70.5587C71.0365 53.9954 71.3779 53.134 71.5827 52.2062L71.6509 51.8086H73.2211L72.6067 54.7907Z" fill="#ACACAC"/>
<path d="M95.271 51.2123C95.2028 51.2123 95.0662 51.2123 94.998 51.2123C93.7009 51.2123 92.7452 52.3388 92.7452 53.7967C92.6769 54.6582 93.2913 55.4534 94.1788 55.5197C94.247 55.5197 94.3836 55.5197 94.4518 55.5197C95.3393 55.5859 96.1585 54.9895 96.3633 54.1281H95.6806C95.5441 54.6582 95.0662 54.9895 94.5201 54.9895C93.974 54.9895 93.4278 54.5919 93.4278 54.0618C93.4278 53.9955 93.4278 53.9293 93.4278 53.863C93.4278 53.7967 93.4278 53.6642 93.4278 53.5979H96.5681C96.6364 53.3991 96.6364 53.1341 96.6364 52.9353C96.7047 52.0738 96.0903 51.2786 95.271 51.2123ZM95.9537 52.8027C95.9537 52.869 95.9537 52.869 95.9537 52.9353H93.5644C93.6326 52.2726 94.247 51.7424 94.998 51.6762C95.5441 51.6099 96.022 52.0075 96.022 52.5377C95.9537 52.6702 95.9537 52.7365 95.9537 52.8027Z" fill="#ACACAC"/>
<path d="M75.6788 53.5315C75.4058 54.5255 75.1327 54.8569 74.7914 54.8569C74.6548 54.8569 74.5865 54.8569 74.45 54.7906L74.3135 55.3207C74.45 55.387 74.6548 55.387 74.7914 55.387C75.474 55.387 75.9519 54.9231 76.2932 53.6641L76.7711 51.8749H78.2047L77.4538 55.387H78.1365L79.0239 51.3448H76.225L75.6788 53.5315Z" fill="#ACACAC"/>
<path d="M89.1276 54.5918L88.5815 51.3448H87.6258L86.7383 55.387H87.421L88.1036 52.1399H88.1719L88.6498 55.387H89.3324L91.2439 52.1399L90.5612 55.387H91.2439L92.1314 51.3448H91.1074L89.1276 54.5918Z" fill="#ACACAC"/>
<path d="M80.0478 52.405C80.0478 52.4713 80.0478 52.5376 80.0478 52.6038C80.0478 53.134 80.3891 53.5316 80.9353 53.5979L79.092 55.3208H79.9795L81.6179 53.5979H82.5054L82.0958 55.3208H82.7785L83.6659 51.2785H81.4814C80.7987 51.2122 80.116 51.7424 80.0478 52.405ZM82.915 51.8749L82.6419 53.134H81.6862C81.2766 53.134 80.7304 53.134 80.7304 52.6038C80.7304 52.14 81.0718 51.8749 81.6862 51.8749H82.915Z" fill="#ACACAC"/>
<path d="M100.323 49.8868C99.6404 49.8868 98.9577 50.2181 98.4799 50.7483C97.8655 51.676 97.5924 52.7363 97.5241 53.7966C97.3876 54.658 98.002 55.387 98.8895 55.4532C99.026 55.4532 99.0943 55.4532 99.2308 55.4532C100.664 55.4532 101.552 54.1942 101.552 52.8688C101.62 52.0736 101.006 51.3447 100.187 51.2784C100.05 51.2784 99.9817 51.2784 99.8452 51.2784C99.2308 51.2784 98.6847 51.6097 98.3433 52.1399C98.6847 51.1459 99.2308 50.6157 100.118 50.5495C100.869 50.4832 101.757 50.5495 101.961 49.688H101.279C101.142 49.8205 100.869 49.8205 100.323 49.8868ZM99.7769 51.8085C100.323 51.7423 100.801 52.1399 100.801 52.67C100.801 52.7363 100.801 52.8026 100.801 52.8688C100.801 53.9954 100.118 54.8568 99.2991 54.8568C98.7529 54.8568 98.2068 54.4592 98.2068 53.8628C98.2068 53.7966 98.2068 53.7303 98.2068 53.664C98.2068 52.8688 98.7529 51.8085 99.7769 51.8085Z" fill="#ACACAC"/>
<path d="M107.696 53.5315C107.423 54.5255 107.15 54.8569 106.808 54.8569C106.672 54.8569 106.603 54.8569 106.467 54.7906L106.33 55.3207C106.467 55.387 106.672 55.387 106.808 55.387C107.491 55.387 107.969 54.9231 108.31 53.6641L108.788 51.8749H110.222L109.471 55.387H110.153L111.041 51.3448H108.242L107.696 53.5315Z" fill="#ACACAC"/>
<path d="M104.897 51.2123C104.829 51.2123 104.692 51.2123 104.624 51.2123C103.327 51.2123 102.371 52.3388 102.371 53.7967C102.303 54.6582 102.917 55.4534 103.805 55.5197C103.873 55.5197 104.01 55.5197 104.078 55.5197C104.965 55.5859 105.784 54.9895 105.989 54.1281H105.307C105.17 54.6582 104.692 54.9895 104.146 54.9895C103.463 54.9233 102.986 54.3269 103.054 53.7305C103.054 53.6642 103.054 53.6642 103.054 53.5979H106.194C106.262 53.3991 106.262 53.1341 106.262 52.9353C106.331 52.0738 105.716 51.2786 104.897 51.2123ZM105.58 52.8027C105.58 52.869 105.58 52.9353 105.58 52.9353H103.19C103.259 52.2726 103.873 51.7424 104.624 51.6762C105.17 51.6099 105.648 52.0075 105.648 52.5377C105.58 52.6702 105.58 52.7365 105.58 52.8027Z" fill="#ACACAC"/>
<path d="M65.1653 51.2123C65.0971 51.2123 64.9605 51.2123 64.8923 51.2123C63.5952 51.2123 62.6394 52.3388 62.6394 53.7967C62.5712 54.6582 63.1856 55.4534 64.0731 55.5197C64.1413 55.5197 64.2779 55.5197 64.3461 55.5197C65.2336 55.5859 66.0528 54.9895 66.2576 54.1281H65.5749C65.4384 54.6582 64.9605 54.9895 64.4144 54.9895C63.8683 54.9895 63.3221 54.5919 63.3221 53.9955C63.3221 53.9293 63.3221 53.863 63.3221 53.7967C63.3221 53.7305 63.3221 53.5979 63.3221 53.5317H66.4624C66.5307 53.3329 66.5307 53.0678 66.5307 52.869C66.6672 52.0738 66.0528 51.2786 65.1653 51.2123ZM65.9163 52.8027C65.9163 52.869 65.9163 52.869 65.9163 52.9353H63.5269C63.5952 52.2726 64.2096 51.7424 64.9605 51.6762C65.5067 51.6099 65.9845 52.0075 65.9845 52.5377C65.9163 52.6702 65.9163 52.7365 65.9163 52.8027Z" fill="#ACACAC"/>
<path d="M50.8978 51.2123C50.8295 51.2123 50.693 51.2123 50.6247 51.2123C49.3276 51.2123 48.3719 52.3388 48.3719 53.7967C48.3036 54.6582 48.918 55.4534 49.8055 55.5197C49.8738 55.5197 50.0103 55.5197 50.0786 55.5197C50.966 55.5859 51.7853 54.9895 51.9901 54.1281H51.3074C51.1708 54.6582 50.693 54.9895 50.1468 54.9895C49.4642 54.9233 48.9863 54.3931 49.0545 53.7305C49.0545 53.6642 49.0545 53.5979 49.0545 53.5979H52.1949C52.2631 53.3991 52.2631 53.1341 52.2631 52.9353C52.3314 52.0738 51.717 51.2786 50.8978 51.2123ZM51.5805 52.8027C51.5805 52.869 51.5805 52.9353 51.5805 52.9353H49.1911C49.2594 52.2726 49.8738 51.7424 50.6247 51.6762C51.1708 51.6099 51.6487 52.0075 51.6487 52.5377C51.6487 52.6702 51.5805 52.7365 51.5805 52.8027Z" fill="#ACACAC"/>
<path d="M46.3239 54.7906H44.5489L45.3681 51.3448H44.6854L43.8662 54.7906H42.1595L42.9105 51.3448H42.2278L41.3403 55.387H46.87L47.7575 51.3448H47.0748L46.3239 54.7906Z" fill="#ACACAC"/>
<path d="M114.932 51.2786L112.406 54.592L113.089 51.2786H112.406L111.519 55.3873H112.475L115.069 52.0738L114.318 55.3873H115L115.888 51.2786H114.932Z" fill="#ACACAC"/>
<path d="M39.3604 51.2123C39.2921 51.2123 39.1556 51.2123 39.0873 51.2123C37.7903 51.2123 36.8345 52.3388 36.8345 53.7967C36.7663 54.6582 37.3807 55.4534 38.2681 55.5197C38.3364 55.5197 38.4729 55.5197 38.5412 55.5197C39.4287 55.5859 40.2479 54.9895 40.4527 54.1281H39.77C39.6335 54.6582 39.1556 54.9895 38.6095 54.9895C38.0633 54.9895 37.5172 54.5919 37.5172 53.9955C37.5172 53.9293 37.5172 53.863 37.5172 53.7967C37.5172 53.7305 37.5172 53.5979 37.5172 53.5317H40.6575C40.7258 53.3329 40.7258 53.0678 40.7258 52.869C40.8623 52.0738 40.2479 51.2786 39.3604 51.2123ZM40.1114 52.8027C40.1114 52.869 40.1114 52.869 40.1114 52.9353H37.722C37.7903 52.2726 38.4047 51.7424 39.1556 51.6762C39.7018 51.6099 40.1796 52.0075 40.1796 52.5377C40.1114 52.6702 40.1114 52.7365 40.1114 52.8027Z" fill="#ACACAC"/>
<path d="M58.5431 54.5918L59.294 51.3448H58.6113L57.7239 55.387H58.6113L61.2055 52.0737L60.4546 55.387H61.1372L62.0247 51.3448H61.1372L58.5431 54.5918Z" fill="#ACACAC"/>
<path d="M56.154 52.9351H54.106L54.4473 51.3448H53.7647L52.8772 55.387H53.5599L53.9695 53.4653H56.0175L55.6761 55.387H56.3588L57.2463 51.3448H56.5636L56.154 52.9351Z" fill="#ACACAC"/>
<path d="M80.7984 27.7534H72.7429V37.8261H81.959C83.5974 37.8261 85.4406 34.7778 85.4406 32.7897C85.4406 30.7354 83.1195 27.7534 80.7984 27.7534ZM80.1158 34.7115C78.2043 34.7115 76.7707 34.7115 76.7707 34.7115V30.8017C76.7707 30.8017 77.9312 30.8017 80.1158 30.8017C82.3003 30.868 82.0273 34.7115 80.1158 34.7115Z" fill="#ACACAC"/>
</svg>
