<svg width="123" height="36" viewBox="0 0 123 36" fill="none" xmlns="http://www.w3.org/2000/svg">
<path d="M17.8836 9.89779C20.5963 9.89779 22.8303 7.72923 22.8303 5.09599C22.8303 2.46274 20.5963 0.294189 17.8836 0.294189C15.171 0.294189 12.937 2.46274 12.937 5.09599C12.937 7.72923 15.171 9.89779 17.8836 9.89779Z" fill="#ACACAC"/>
<path d="M29.7715 22.0572C30.4098 22.0572 30.8885 21.5925 30.8885 20.9729C30.8885 20.3532 30.4098 19.8885 29.7715 19.8885C29.1332 19.8885 28.6545 20.3532 28.6545 20.9729C28.7343 21.515 29.213 22.0572 29.7715 22.0572Z" fill="#ACACAC"/>
<path d="M28.9739 25.4647C29.6122 25.4647 30.1707 24.9226 30.1707 24.3031C30.1707 23.6835 29.6122 23.1414 28.9739 23.1414C28.3356 23.1414 27.7771 23.6835 27.7771 24.3031C27.7771 24.9226 28.2558 25.4647 28.9739 25.4647Z" fill="#ACACAC"/>
<path d="M27.1389 28.4078C27.857 28.4078 28.4155 27.8657 28.4155 27.1686C28.4155 26.4715 27.857 25.9294 27.1389 25.9294C26.4208 25.9294 25.8623 26.4715 25.8623 27.1686C25.8623 27.8657 26.4208 28.4078 27.1389 28.4078Z" fill="#ACACAC"/>
<path d="M23.0697 30.4213C23.8675 30.4213 24.5058 29.8018 24.5058 29.0273C24.5058 28.2528 23.8675 27.6332 23.0697 27.6332C22.2718 27.6332 21.6335 28.2528 21.6335 29.0273C21.6335 29.8018 22.2718 30.4213 23.0697 30.4213Z" fill="#ACACAC"/>
<path d="M17.9638 31.8155C18.9212 31.8155 19.6392 31.1185 19.6392 30.189C19.6392 29.2596 18.9212 28.5625 17.9638 28.5625C17.0064 28.5625 16.2883 29.2596 16.2883 30.189C16.2883 31.041 17.0064 31.8155 17.9638 31.8155Z" fill="#ACACAC"/>
<path d="M11.4214 30.8861C12.4586 30.8861 13.3362 30.0342 13.3362 29.0274C13.3362 28.0205 12.4586 27.1686 11.4214 27.1686C10.3842 27.1686 9.50659 28.0205 9.50659 29.0274C9.50659 30.0342 10.3842 30.8861 11.4214 30.8861Z" fill="#ACACAC"/>
<path d="M5.51723 26.8588C6.71401 26.8588 7.67142 25.9294 7.67142 24.7677C7.67142 23.606 6.71401 22.6766 5.51723 22.6766C4.32046 22.6766 3.36304 23.606 3.36304 24.7677C3.36304 25.9294 4.32046 26.8588 5.51723 26.8588Z" fill="#ACACAC"/>
<path d="M3.52254 19.114C4.95866 19.114 6.23522 17.9522 6.23522 16.4807C6.23522 15.0866 5.03845 13.9249 3.52254 13.9249C2.08642 13.9249 0.889648 15.0866 0.889648 16.4807C0.889648 17.9522 2.08642 19.114 3.52254 19.114Z" fill="#ACACAC"/>
<path d="M7.83097 11.8339C9.82558 11.8339 11.501 10.2075 11.501 8.27128C11.501 6.33507 9.82558 4.70866 7.83097 4.70866C5.83636 4.70866 4.16089 6.33507 4.16089 8.27128C4.16089 10.2075 5.83636 11.8339 7.83097 11.8339Z" fill="#ACACAC"/>
<path d="M44.532 7.96156C44.532 6.87729 45.4096 6.02536 46.5266 6.02536C47.6436 6.02536 48.5212 6.87729 48.5212 7.96156V24.0708H65.0366C66.1536 24.0708 67.0313 24.9227 67.0313 26.007C67.0313 27.0912 66.1536 27.9432 65.0366 27.9432H46.5266C45.4096 27.9432 44.532 27.0912 44.532 26.007V7.96156Z" fill="#ACACAC"/>
<path d="M92.7218 24.0708C93.8388 24.0708 94.7164 24.9227 94.7164 26.007C94.7164 27.0912 93.8388 27.9432 92.7218 27.9432H74.0522C72.9352 27.9432 72.0576 27.0912 72.0576 26.007V7.96156C72.0576 6.87729 72.9352 6.02536 74.0522 6.02536H92.642C93.759 6.02536 94.6367 6.87729 94.6367 7.96156C94.6367 9.04584 93.759 9.89777 92.642 9.89777H76.0468V24.0708H92.7218Z" fill="#ACACAC"/>
<path d="M100.541 9.20065C99.743 8.42616 99.743 7.18698 100.541 6.48994C101.339 5.71545 102.615 5.71545 103.333 6.48994L112.668 15.474C113.466 16.2485 113.466 17.4877 112.668 18.1847L103.094 27.4011C102.296 28.1756 101.02 28.1756 100.302 27.4011C99.5037 26.6266 99.5037 25.3875 100.302 24.6904L108.44 16.8681L100.541 9.20065Z" fill="#ACACAC"/>
<path d="M117.056 14.3121C116.258 15.0866 114.982 15.0866 114.184 14.3121C113.386 13.5377 113.386 12.2985 114.184 11.6015L119.529 6.41256C120.327 5.63809 121.604 5.63809 122.402 6.41256C123.199 7.18703 123.199 8.42618 122.402 9.20065L117.056 14.3121Z" fill="#ACACAC"/>
<path d="M114.104 22.057C113.306 21.2825 113.306 20.0434 114.104 19.3463C114.902 18.5719 116.179 18.5719 116.897 19.3463L122.322 24.6128C123.12 25.3873 123.12 26.6265 122.322 27.3235C121.524 28.098 120.248 28.098 119.45 27.3235L114.104 22.057Z" fill="#ACACAC"/>
<path d="M44.9307 35.3007V31.5056H45.4892V34.836H47.2444V35.3007H44.9307ZM52.4304 35.3007V31.5056H52.9889V35.3007H52.4304ZM59.0526 31.9703V33.0546H60.4089V33.5193H59.0526V35.3782H58.4941V31.583H60.8876V32.0477H59.0526V31.9703ZM66.6321 31.9703V33.0546H67.9087V33.5193H66.6321V34.9135H68.3874V35.3782H66.0736V31.583H68.3874V32.0477H66.6321V31.9703Z" fill="#ACACAC"/>
<path d="M80.5148 31.9703V33.0546H81.7913V33.5193H80.5148V34.9135H82.2701V35.3782H79.9563V31.583H82.2701V32.0477H80.5148V31.9703ZM89.6102 35.3007L88.6528 33.7517L87.6954 35.3007H87.1369L88.3337 33.3644L87.2167 31.5056H87.7752L88.6528 32.8997L89.5304 31.5056H90.0889L88.8922 33.3644L90.0889 35.3007H89.6102ZM95.8334 33.8292V35.3007H95.2749V31.5056C95.6739 31.5056 95.9132 31.5056 95.993 31.5056C97.11 31.5056 97.6685 31.8928 97.6685 32.5899C97.6685 33.4419 97.1898 33.9066 96.1526 33.9066C96.1526 33.9066 95.993 33.9066 95.8334 33.8292ZM95.8334 31.9703V33.3644C96.0728 33.3644 96.1526 33.3644 96.2324 33.3644C96.8706 33.3644 97.2696 33.1321 97.2696 32.5899C97.2696 32.1252 96.8706 31.8928 96.2324 31.8928C96.0728 31.9703 95.9132 31.9703 95.8334 31.9703ZM103.573 31.9703V33.0546H104.849V33.5193H103.573V34.9135H105.328V35.3782H103.014V31.583H105.328V32.0477H103.573V31.9703ZM112.748 35.3007L111.711 33.6742C111.551 33.6742 111.391 33.6742 111.152 33.6742V35.3007H110.594V31.5056C110.594 31.5056 110.753 31.5056 110.992 31.5056C111.232 31.5056 111.471 31.5056 111.551 31.5056C112.508 31.5056 112.987 31.8928 112.987 32.5899C112.987 32.8223 112.907 33.0546 112.748 33.2095C112.588 33.4419 112.429 33.5193 112.189 33.5968L113.306 35.3782H112.748V35.3007ZM111.152 31.9703V33.2095C111.312 33.2095 111.391 33.2095 111.551 33.2095C111.87 33.2095 112.109 33.1321 112.269 33.0546C112.429 32.9772 112.508 32.7448 112.508 32.5125C112.508 32.2801 112.429 32.1252 112.269 32.0477C112.109 31.9703 111.87 31.8928 111.551 31.8928C111.391 31.9703 111.312 31.9703 111.152 31.9703ZM119.609 31.9703V35.3007H119.051V31.9703H117.774V31.5056H120.886V31.9703H119.609Z" fill="#ACACAC"/>
<path d="M79.5571 18.9593C78.5997 18.9593 77.8816 18.1073 77.8816 17.023C77.8816 15.9387 78.5997 15.0868 79.5571 15.0868H89.8493C90.8067 15.0868 91.5247 15.9387 91.5247 17.023C91.5247 18.1073 90.8067 18.9593 89.8493 18.9593H79.5571Z" fill="#ACACAC"/>
</svg>
