<svg width="356" height="368" viewBox="0 0 356 368" fill="none" xmlns="http://www.w3.org/2000/svg">
<path d="M222.993 87.5604C222.407 87.593 221.869 87.9596 221.633 88.5379L218.686 95.8041C218.498 96.2603 218.539 96.7816 218.791 97.2052C219.044 97.6288 219.484 97.9139 219.972 97.9628C221.259 98.1094 222.472 98.8262 223.31 99.9504C224.076 100.985 224.401 102.215 224.198 103.331C223.994 104.447 223.253 105.49 222.17 106.206C221.006 106.972 219.589 107.257 218.368 106.972C215.877 106.394 213.947 103.64 214.151 100.952C214.216 100.089 213.572 99.3313 212.701 99.258C211.822 99.1928 211.081 99.8363 211.008 100.708C210.682 104.928 213.662 109.115 217.652 110.035C219.72 110.516 221.999 110.076 223.896 108.829C225.696 107.648 226.933 105.848 227.292 103.893C227.65 101.922 227.121 99.7956 225.834 98.0687C224.906 96.8142 223.66 95.8693 222.284 95.3235L224.556 89.7191C224.882 88.9126 224.491 87.9922 223.685 87.6663C223.457 87.5849 223.221 87.5441 222.993 87.5604Z" fill="#E0E0E0"/>
<path d="M226.241 85.3203C226.526 84.6686 226.225 83.911 225.574 83.6259C224.922 83.3408 224.165 83.6422 223.88 84.2939C223.595 84.9456 223.897 85.7031 224.548 85.9882C225.199 86.2733 225.956 85.9719 226.241 85.3203Z" fill="#E0E0E0"/>
<path d="M177.422 30.4329C177.658 29.9035 177.585 29.2599 177.178 28.7875L172.113 22.8654C171.796 22.4907 171.324 22.287 170.835 22.3196C170.347 22.3522 169.899 22.6047 169.63 23.012C168.914 24.0791 167.725 24.8204 166.357 25.0485C165.095 25.2521 163.866 24.9752 162.97 24.2909C162.083 23.6067 161.496 22.4744 161.366 21.1873C161.219 19.8107 161.618 18.4258 162.424 17.4809C164.069 15.5503 167.383 15.1023 169.655 16.5116C170.387 16.9677 171.348 16.7396 171.804 16.0065C172.268 15.2571 172.032 14.304 171.299 13.856C167.733 11.6403 162.677 12.3571 160.039 15.4607C158.671 17.0655 158.02 19.2812 158.256 21.5213C158.476 23.6555 159.502 25.5698 161.057 26.7754C162.628 27.9973 164.745 28.4942 166.862 28.1521C168.393 27.8996 169.793 27.2397 170.908 26.2704L174.808 30.8321C175.37 31.4919 176.355 31.5652 177.015 31.0031C177.194 30.8321 177.332 30.6366 177.422 30.4329Z" fill="#E0E0E0"/>
<path d="M177.911 34.3186C178.358 34.8644 179.164 34.954 179.71 34.506C180.255 34.058 180.345 33.2515 179.897 32.7057C179.449 32.16 178.643 32.0704 178.098 32.5184C177.552 32.9664 177.471 33.7729 177.911 34.3186Z" fill="#E0E0E0"/>
<path d="M354.225 34.7341H281.9V139.621H354.225V34.7341Z" fill="#868686"/>
<path d="M350.603 34.7341H278.278V139.621H350.603V34.7341Z" fill="#B1B1B1"/>
<path d="M341.613 46.0977H287.257V128.266H341.613V46.0977Z" fill="white"/>
<path d="M341.613 128.265C341.613 128.265 341.605 128.127 341.605 127.866C341.605 127.598 341.597 127.206 341.597 126.701C341.589 125.667 341.58 124.16 341.572 122.197C341.564 118.262 341.548 112.519 341.523 105.27C341.499 90.778 341.475 70.2665 341.434 46.1057L341.613 46.285C325.003 46.2931 306.603 46.2931 287.265 46.3013H287.257L287.453 46.1057C287.436 77.101 287.42 105.685 287.412 128.274L287.257 128.119C303.81 128.151 317.382 128.184 326.819 128.2C331.541 128.217 335.23 128.233 337.754 128.241C339.008 128.249 339.968 128.257 340.62 128.257C341.271 128.257 341.613 128.265 341.613 128.265C341.613 128.265 341.295 128.274 340.652 128.282C340.001 128.282 339.048 128.29 337.811 128.298C335.303 128.306 331.623 128.322 326.917 128.339C317.448 128.355 303.851 128.388 287.257 128.42H287.102V128.265C287.094 105.677 287.078 77.0928 287.062 46.0976V45.9021H287.257H287.265C306.603 45.9102 325.012 45.9102 341.613 45.9184H341.792V46.0976C341.76 70.3073 341.727 90.8676 341.703 105.384C341.678 112.617 341.662 118.344 341.654 122.27C341.646 124.217 341.637 125.716 341.629 126.742C341.621 127.239 341.621 127.622 341.621 127.891C341.621 128.143 341.613 128.265 341.613 128.265Z" fill="#E0E0E0"/>
<path d="M350.805 34.7341C350.846 34.7666 350.357 35.4835 349.519 36.6076C348.68 37.7318 347.483 39.2632 346.124 40.9168C344.764 42.5704 343.494 44.0367 342.549 45.0712C341.605 46.1139 341.002 46.733 340.962 46.6923C340.921 46.6597 341.458 45.9754 342.346 44.8839C343.315 43.7109 344.512 42.2609 345.831 40.6561C347.15 39.0514 348.338 37.6014 349.307 36.4284C350.195 35.3613 350.765 34.7015 350.805 34.7341Z" fill="#E0E0E0"/>
<path d="M341.89 127.997C344.593 132.29 347.777 136.281 351.367 139.858L341.89 127.997Z" fill="white"/>
<path d="M351.376 139.865C351.344 139.898 350.692 139.344 349.723 138.358C348.754 137.381 347.46 135.972 346.149 134.326C344.83 132.681 343.739 131.108 342.998 129.944C342.257 128.779 341.85 128.029 341.899 127.997C341.948 127.964 342.436 128.665 343.234 129.781C344.032 130.897 345.156 132.428 346.458 134.074C347.769 135.711 349.015 137.136 349.927 138.163C350.839 139.189 351.417 139.825 351.376 139.865Z" fill="#E0E0E0"/>
<path d="M278.261 139.54C281.42 135.638 284.579 131.744 287.738 127.842L278.261 139.54Z" fill="white"/>
<path d="M287.738 127.851C287.819 127.916 285.767 130.596 283.154 133.822C280.54 137.056 278.35 139.613 278.26 139.548C278.179 139.483 280.231 136.803 282.844 133.577C285.466 130.343 287.656 127.777 287.738 127.851Z" fill="#E0E0E0"/>
<path d="M278.278 34.7342C278.359 34.669 280.419 37.1291 282.878 40.2327C285.337 43.3363 287.25 45.9104 287.169 45.9755C287.088 46.0407 285.028 43.5806 282.569 40.477C280.11 37.3735 278.188 34.8075 278.278 34.7342Z" fill="#E0E0E0"/>
<path d="M324.678 62.7805H306.48V114.483H324.678V62.7805Z" fill="#E0E0E0"/>
<path d="M75.4164 39.3552L69.6274 39.3862L69.7819 68.1902L75.5708 68.1592L75.4164 39.3552Z" fill="#D2D2D2"/>
<path d="M34.4886 39.4281L19.5073 39.5083L19.5924 55.4091L34.5737 55.3289L34.4886 39.4281Z" fill="#C7C7C7"/>
<path d="M49.3962 39.3463L34.4149 39.4265L34.5 55.3273L49.4813 55.2472L49.3962 39.3463Z" fill="#CFCFCF"/>
<path d="M19.5245 43.8983C29.4821 43.9797 39.4642 43.9227 49.4218 43.7598C49.6254 43.7598 49.6254 43.4421 49.4218 43.4421C39.4642 43.3851 29.4821 43.434 19.5245 43.6213C19.3535 43.6295 19.3535 43.8983 19.5245 43.8983Z" fill="#E0E0E0"/>
<path d="M37.3863 55.0594L10.1595 55.2053L10.2289 68.1655L37.4557 68.0196L37.3863 55.0594Z" fill="#C7C7C7"/>
<path d="M64.4831 54.9217L37.2563 55.0676L37.3257 68.0278L64.5525 67.8819L64.4831 54.9217Z" fill="#CFCFCF"/>
<path d="M10.1776 58.8133C28.2609 59.0169 46.4094 58.8377 64.4927 58.5445C64.6963 58.5445 64.6963 58.2268 64.4927 58.2268C46.4094 58.129 28.2609 58.1453 10.1776 58.5445C10.0066 58.5445 10.0066 58.8133 10.1776 58.8133Z" fill="#E0E0E0"/>
<path d="M105.471 68.1648H0V72.808H105.471V68.1648Z" fill="#B1B1B1"/>
<path d="M21.5518 70.3967H17.2692V86.2405H21.5518V70.3967Z" fill="#B1B1B1"/>
<path d="M85.4663 70.3967H81.1836V86.2405H85.4663V70.3967Z" fill="#B1B1B1"/>
<path d="M81.0704 28.6106L75.2815 28.6416L75.4939 68.2633L81.2829 68.2323L81.0704 28.6106Z" fill="white"/>
<path d="M90.1037 35.9818L81.115 36.03L81.2875 68.1331L90.2762 68.0848L90.1037 35.9818Z" fill="#F5F5F5"/>
<path d="M90.0422 42.1714C90.0422 42.261 88.0311 42.3261 85.5478 42.3261C83.0645 42.3261 81.0535 42.2528 81.0535 42.1714C81.0535 42.0818 83.0645 42.0166 85.5478 42.0166C88.0311 42.0166 90.0422 42.0818 90.0422 42.1714Z" fill="#E0E0E0"/>
<path d="M90.0422 40.8191C90.0422 40.9087 88.0311 40.9739 85.5478 40.9739C83.0645 40.9739 81.0535 40.9005 81.0535 40.8191C81.0535 40.7295 83.0645 40.6643 85.5478 40.6643C88.0311 40.6643 90.0422 40.7376 90.0422 40.8191Z" fill="#E0E0E0"/>
<path d="M90.0422 63.261C90.0422 63.3506 88.0311 63.4157 85.5478 63.4157C83.0645 63.4157 81.0535 63.3424 81.0535 63.261C81.0535 63.1714 83.0645 63.1062 85.5478 63.1062C88.0311 63.1062 90.0422 63.1714 90.0422 63.261Z" fill="#E0E0E0"/>
<path d="M90.0422 61.9089C90.0422 61.9985 88.0311 62.0637 85.5478 62.0637C83.0645 62.0637 81.0535 61.9904 81.0535 61.9089C81.0535 61.8193 83.0645 61.7542 85.5478 61.7542C88.0311 61.7542 90.0422 61.8275 90.0422 61.9089Z" fill="#E0E0E0"/>
<path d="M85.6945 58.9681C85.6049 58.9681 85.5398 55.7261 85.5398 51.7346C85.5398 47.7349 85.6131 44.501 85.6945 44.501C85.7841 44.501 85.8492 47.7431 85.8492 51.7346C85.8492 55.7261 85.7759 58.9681 85.6945 58.9681Z" fill="#E0E0E0"/>
<path d="M99.9266 43.8655H90.1399V68.0996H99.9266V43.8655Z" fill="#D0D0D0"/>
<path d="M79.7506 35.3693C79.7506 36.2898 79.0097 37.0311 78.0897 37.0311C77.1696 37.0311 76.4287 36.2898 76.4287 35.3693C76.4287 34.4488 77.1696 33.7075 78.0897 33.7075C79.0016 33.7075 79.7506 34.4569 79.7506 35.3693Z" fill="#E0E0E0"/>
<path d="M78.5945 39.9475H77.5686V63.5137H78.5945V39.9475Z" fill="#E0E0E0"/>
<path d="M356 367.462C356 367.576 277.983 367.674 181.77 367.674C85.5234 367.674 7.52319 367.576 7.52319 367.462C7.52319 367.348 85.5234 367.25 181.77 367.25C277.983 367.25 356 367.348 356 367.462Z" fill="#263238"/>
<path d="M283.105 172.359H46.8164V179.927H283.105V172.359Z" fill="#B1B1B1"/>
<path d="M68.2623 367.845L60.5925 367.821V178.925H68.2623V367.845Z" fill="#B1B1B1"/>
<path d="M271.877 367.829H264.126L264.207 178.925H271.877V367.829Z" fill="#B1B1B1"/>
<path d="M138.381 102.761C138.381 102.761 180.557 146.969 179.816 156.776C179.075 166.584 169.63 168.718 166.552 168.335C163.467 167.953 140.286 142.114 140.286 142.114L138.381 102.761Z" fill="#E8505B"/>
<g opacity="0.4">
<g opacity="0.4">
<path opacity="0.4" d="M138.381 102.761C138.381 102.761 180.557 146.969 179.816 156.776C179.075 166.584 169.63 168.718 166.552 168.335C163.467 167.953 140.286 142.114 140.286 142.114L138.381 102.761Z" fill="black"/>
</g>
</g>
<path d="M160.861 321.161L172.292 359.447L185.149 352.466L177.845 317.414L160.861 321.161Z" fill="#FFBE9D"/>
<path d="M183.569 335.62L187.51 353.736C187.51 353.736 207.238 355.814 208.296 359.096L173.457 368L166.162 340.019L183.569 335.62Z" fill="#E8505B"/>
<path d="M176.347 354.983C175.72 355.341 175.452 356.221 175.777 356.856C176.111 357.5 176.999 357.785 177.634 357.435C178.269 357.093 178.627 356.042 178.228 355.447C177.829 354.844 176.763 354.567 176.233 355.056" fill="#E0E0E0"/>
<g opacity="0.4">
<g opacity="0.4">
<path opacity="0.4" d="M173.449 368L172.822 365.149L206.464 357.679C206.464 357.679 208.191 357.956 208.288 359.096L173.449 368Z" fill="black"/>
</g>
</g>
<path d="M188.031 353.419C188.072 353.59 187.241 353.883 186.541 354.649C185.824 355.39 185.58 356.237 185.409 356.213C185.246 356.221 185.238 355.138 186.101 354.233C186.948 353.313 188.023 353.248 188.031 353.419Z" fill="#263238"/>
<path d="M192.069 353.997C192.151 354.152 191.491 354.632 191.092 355.496C190.669 356.351 190.726 357.166 190.555 357.207C190.4 357.272 190.026 356.311 190.539 355.235C191.043 354.16 192.02 353.834 192.069 353.997Z" fill="#263238"/>
<path d="M195.261 357.842C195.114 357.915 194.658 357.125 194.862 356.082C195.057 355.04 195.766 354.461 195.872 354.592C196.002 354.706 195.611 355.341 195.465 356.196C195.294 357.052 195.424 357.777 195.261 357.842Z" fill="#263238"/>
<path d="M186.671 349.386C186.639 349.558 185.8 349.525 184.856 349.834C183.903 350.128 183.235 350.641 183.113 350.519C182.983 350.421 183.553 349.606 184.668 349.256C185.784 348.89 186.72 349.232 186.671 349.386Z" fill="#263238"/>
<path d="M185.808 345.745C185.825 345.819 185.181 346.096 184.058 346.185C183.496 346.226 182.828 346.218 182.087 346.087C181.721 346.022 181.338 345.933 180.948 345.81C180.76 345.745 180.54 345.696 180.312 345.534C180.076 345.403 179.857 344.98 180.003 344.646C180.117 344.336 180.402 344.132 180.646 344.067C180.899 343.994 181.119 343.994 181.322 343.994C181.737 343.986 182.128 344.027 182.503 344.092C183.244 344.222 183.887 344.466 184.383 344.735C185.385 345.281 185.825 345.843 185.768 345.892C185.702 345.965 185.173 345.534 184.196 345.126C183.708 344.923 183.105 344.735 182.413 344.646C182.071 344.605 181.705 344.58 181.33 344.589C180.939 344.589 180.622 344.662 180.573 344.849C180.557 344.923 180.557 344.947 180.663 345.037C180.768 345.118 180.939 345.175 181.127 345.24C181.485 345.362 181.843 345.46 182.185 345.534C182.869 345.68 183.504 345.737 184.033 345.753C185.124 345.77 185.792 345.656 185.808 345.745Z" fill="#263238"/>
<path d="M185.654 346.047C185.597 346.087 185.108 345.566 184.766 344.475C184.595 343.937 184.481 343.261 184.514 342.503C184.53 342.129 184.587 341.729 184.685 341.33C184.799 340.931 184.929 340.41 185.572 340.165C185.914 340.068 186.272 340.263 186.427 340.467C186.606 340.67 186.679 340.866 186.769 341.061C186.94 341.452 187.029 341.852 187.07 342.234C187.152 343.008 187.005 343.701 186.785 344.23C186.337 345.305 185.678 345.688 185.645 345.639C185.564 345.566 186.077 345.085 186.378 344.084C186.525 343.587 186.606 342.968 186.508 342.3C186.46 341.966 186.37 341.623 186.215 341.298C186.069 340.939 185.849 340.679 185.719 340.752C185.548 340.793 185.32 341.151 185.255 341.477C185.157 341.835 185.092 342.194 185.067 342.536C185.01 343.22 185.067 343.847 185.173 344.36C185.393 345.403 185.735 345.998 185.654 346.047Z" fill="#263238"/>
<path d="M129.808 212.006C130.231 213.7 160.104 335.62 160.104 335.62L187.225 327.425L161.618 203.933L129.808 212.006Z" fill="#263238"/>
<path d="M125.818 56.2394L121.08 92.668C120.273 98.8589 124.817 104.471 131.037 104.968C136.842 105.433 141.996 101.254 142.745 95.4701C143.095 92.725 143.397 90.4441 143.454 90.159C143.454 90.159 152.833 90.493 154.698 81.4022C155.602 77.0115 156.717 67.8066 157.629 59.4733C158.614 50.521 152.548 42.318 143.706 40.6155L142.827 40.4445C133.252 39.1819 126.82 46.6191 125.818 56.2394Z" fill="#FFBE9D"/>
<path d="M143.494 90.0286C143.494 90.0286 137.648 89.3932 132.267 84.3672C132.267 84.3672 133.814 91.4623 143.063 92.3909L143.494 90.0286Z" fill="#EB996E"/>
<path d="M155.032 64.6216C154.926 65.314 154.25 65.7946 153.525 65.6969C152.801 65.5991 152.304 64.9556 152.41 64.2632C152.516 63.5708 153.192 63.0902 153.916 63.1879C154.633 63.2938 155.138 63.9292 155.032 64.6216Z" fill="#263238"/>
<path d="M155.105 63.0575C154.91 63.196 154.063 62.2755 152.662 62.0148C151.27 61.7297 150.106 62.2511 149.984 62.0556C149.927 61.9659 150.146 61.689 150.659 61.4528C151.164 61.2165 151.97 61.0455 152.841 61.2165C153.713 61.3876 154.38 61.8519 154.739 62.2592C155.113 62.6584 155.203 62.9923 155.105 63.0575Z" fill="#263238"/>
<path d="M140.946 62.6257C140.84 63.3181 140.164 63.7988 139.44 63.701C138.715 63.6033 138.218 62.9597 138.324 62.2673C138.43 61.5749 139.106 61.0943 139.831 61.1921C140.555 61.2898 141.052 61.9333 140.946 62.6257Z" fill="#263238"/>
<path d="M141.109 60.8581C140.913 60.9966 140.067 60.0761 138.666 59.8155C137.274 59.5303 136.102 60.0517 135.988 59.848C135.931 59.7584 136.15 59.4815 136.663 59.2452C137.168 59.009 137.974 58.8379 138.845 59.009C139.717 59.1801 140.384 59.6444 140.751 60.0517C141.117 60.459 141.198 60.793 141.109 60.8581Z" fill="#263238"/>
<path d="M144.089 72.5475C144.097 72.4661 144.992 72.4824 146.442 72.572C146.808 72.6046 147.158 72.5964 147.264 72.3683C147.394 72.1239 147.321 71.7085 147.231 71.2605C147.06 70.3318 146.881 69.3543 146.694 68.3361C145.969 64.1735 145.522 60.7848 145.693 60.7604C145.864 60.7359 146.58 64.0839 147.305 68.2383C147.476 69.2647 147.639 70.2422 147.793 71.1709C147.85 71.6026 147.997 72.1077 147.712 72.6127C147.565 72.8652 147.264 73.0037 147.02 73.02C146.776 73.0444 146.572 73.0119 146.393 72.9874C144.96 72.7919 144.081 72.629 144.089 72.5475Z" fill="#263238"/>
<path d="M142.07 58.0069C141.858 58.3572 140.498 57.9092 138.813 57.7951C137.136 57.6404 135.719 57.8684 135.564 57.4856C135.499 57.3064 135.8 56.9887 136.403 56.7199C137.005 56.451 137.917 56.2637 138.927 56.3452C139.936 56.4266 140.808 56.7606 141.361 57.119C141.915 57.4774 142.159 57.8359 142.07 58.0069Z" fill="#263238"/>
<path d="M155.748 57.9581C155.439 58.2269 154.543 57.7137 153.387 57.4775C152.239 57.2005 151.205 57.282 151.042 56.8991C150.977 56.7199 151.189 56.4267 151.677 56.2149C152.157 55.995 152.915 55.8891 153.704 56.0683C154.494 56.2475 155.129 56.6711 155.471 57.0702C155.813 57.4694 155.886 57.8278 155.748 57.9581Z" fill="#263238"/>
<path d="M125.264 63.1228C125.126 63.025 119.361 60.068 118.36 66.3323C117.359 72.5965 123.856 72.3114 123.897 72.1322C123.945 71.9611 125.264 63.1228 125.264 63.1228Z" fill="#FFBE9D"/>
<path d="M122.366 69.4602C122.342 69.4357 122.244 69.5172 122.048 69.5742C121.853 69.6313 121.536 69.6312 121.226 69.4602C120.599 69.1099 120.217 67.9695 120.363 66.8372C120.436 66.267 120.648 65.7375 120.917 65.3221C121.177 64.8903 121.527 64.6215 121.869 64.6134C122.211 64.5889 122.415 64.8252 122.464 65.0125C122.521 65.1999 122.464 65.3221 122.488 65.3383C122.504 65.3546 122.643 65.2569 122.627 64.9881C122.618 64.8577 122.57 64.703 122.439 64.5563C122.309 64.4097 122.097 64.312 121.861 64.3038C121.373 64.2631 120.868 64.6378 120.567 65.094C120.241 65.5501 119.997 66.1367 119.907 66.7802C119.744 68.0509 120.2 69.338 121.071 69.7371C121.495 69.9245 121.886 69.8512 122.097 69.729C122.333 69.6068 122.39 69.4765 122.366 69.4602Z" fill="#EB996E"/>
<path d="M121.845 62.2511C122.838 62.2022 124.312 63.3996 124.548 64.3609C124.784 65.3302 124.678 66.3566 124.906 67.3178C125.142 68.2872 125.899 69.2647 126.893 69.224C127.577 69.1914 128.163 68.6701 128.464 68.051C128.765 67.4319 128.822 66.7313 128.871 66.0471C129.067 63.0657 129.01 60.068 129.449 57.111C129.897 54.1622 130.899 51.1971 132.918 48.9895C134.937 46.7901 138.112 45.4949 140.987 46.2932C142.892 46.8227 144.471 48.1749 146.344 48.8103C148.559 49.5679 151.123 49.2257 153.069 47.9143C153.134 47.8735 153.257 47.8084 153.411 47.735C154.103 47.4092 154.527 46.6598 154.388 45.9104C154.339 45.6578 154.258 45.4135 154.136 45.2424C151.001 40.9821 144.317 38.6686 139.032 38.97C133.748 39.2714 128.342 41.9189 125.264 46.228C122.187 50.5454 121.568 57.2413 121.845 62.2511Z" fill="#263238"/>
<path d="M146.914 76.7915C146.873 76.9055 145.986 76.6774 144.927 76.2864C143.869 75.8954 143.046 75.4881 143.087 75.3822C143.128 75.2763 144.015 75.4963 145.074 75.8873C146.124 76.2783 146.955 76.6856 146.914 76.7915Z" fill="#263238"/>
<path d="M153.713 83.8215C153.753 83.8296 153.59 84.5464 152.939 85.5158C152.296 86.4852 151.107 87.6256 149.536 88.4483C147.964 89.2711 146.409 89.6702 145.294 89.8983C144.17 90.1264 143.47 90.1916 143.454 90.1345C143.446 90.0694 144.129 89.8983 145.22 89.6051C146.312 89.3037 147.818 88.8638 149.34 88.0736C150.855 87.2835 152.019 86.2245 152.695 85.3366C153.387 84.4568 153.647 83.797 153.713 83.8215Z" fill="#EB996E"/>
<path d="M149.308 88.4727C147.101 89.5805 145.481 92.5782 144.08 94.5251C143.649 95.1197 143.209 95.747 143.087 96.4638C142.957 97.2295 143.209 98.0034 143.478 98.7365C143.877 99.8199 144.333 100.887 144.789 101.954C144.919 102.256 145.09 102.598 145.408 102.671C145.815 102.761 146.165 102.361 146.328 101.979C146.743 101.026 146.702 99.9421 146.841 98.9157C146.979 97.8893 147.41 96.7733 148.355 96.3416" fill="#EB996E"/>
<path d="M152.792 96.6105L150.643 95.0058C150.374 94.7858 149.975 94.8184 149.747 95.0872L148.607 96.4069V96.415L149.21 99.7467C149.91 104.023 146.743 103.355 146.743 103.355L146.49 102.541L145.098 97.3273C144.821 94.8428 145.017 94.5414 146.222 92.7412L148.876 88.9452C149.43 88.1225 150.464 87.7885 151.392 88.1306C155.202 89.5399 163.418 92.0895 164.346 95.3153C166.031 101.205 167.391 116.21 167.415 116.478C167.415 116.487 167.415 116.478 167.415 116.487L155.821 117.529C155.821 117.529 155.821 117.537 155.821 117.529L155.878 107.51C155.878 107.51 154.193 106.532 153.696 104.765C153.199 102.989 152.792 96.6105 152.792 96.6105Z" fill="#FFBE9D"/>
<path d="M160.828 98.5736C160.845 98.5899 160.706 98.7772 160.389 99.046C160.071 99.3067 159.566 99.6733 158.809 99.8443C158.435 99.9258 158.003 99.9421 157.555 99.8362C157.107 99.7303 156.635 99.4778 156.309 99.0623C155.626 98.2396 155.536 97.0829 154.925 96.2438C154.616 95.861 154.152 95.5433 153.728 95.2663C153.297 94.9894 152.857 94.745 152.426 94.5413C152.011 94.3621 151.546 94.134 151.237 94.2074C150.879 94.297 150.561 94.5413 150.293 94.7694C149.242 95.7469 148.664 96.4719 148.607 96.4149C148.583 96.3986 148.713 96.2031 148.957 95.8773C149.21 95.5514 149.56 95.0708 150.097 94.5495C150.374 94.297 150.683 94.0037 151.164 93.8652C151.286 93.8408 151.416 93.8245 151.555 93.8408C151.677 93.8652 151.799 93.8897 151.913 93.9222C152.141 93.9956 152.369 94.0852 152.597 94.1829C153.045 94.3866 153.5 94.6309 153.956 94.916C154.404 95.2093 154.868 95.5026 155.267 95.9913C155.959 96.9851 156.033 98.1174 156.611 98.8179C157.156 99.5348 158.084 99.6651 158.752 99.5511C159.444 99.437 159.949 99.1275 160.291 98.9076C160.625 98.6876 160.804 98.5491 160.828 98.5736Z" fill="#EB996E"/>
<path d="M159.542 102.101C159.526 102.215 158.036 102.052 156.269 101.539C154.502 101.034 153.159 100.374 153.199 100.268C153.248 100.154 154.641 100.626 156.383 101.131C158.125 101.636 159.558 101.987 159.542 102.101Z" fill="#EB996E"/>
<path d="M155.406 96.6595C152.369 96.6676 152.011 96.521 148.567 96.7084C148.054 96.7328 147.533 96.7654 147.052 96.9527C146.572 97.1401 146.14 97.5148 146.01 98.0117C145.766 98.9566 146.718 99.812 147.671 100.032C148.624 100.244 149.625 100.081 150.569 100.301C152.019 100.635 153.533 101.327 154.388 102.541C156.375 105.359 158.451 103.999 159.811 105.009L163.361 102.761L162.107 97.5148L155.406 96.6595Z" fill="#FFBE9D"/>
<path d="M160.12 105.001C160.096 105.042 159.803 104.781 159.151 104.699C158.516 104.577 157.49 104.732 156.342 104.203C155.78 103.942 155.243 103.486 154.787 102.924C154.364 102.337 153.891 101.824 153.224 101.425C152.572 101.026 151.807 100.724 150.993 100.529C150.195 100.309 149.316 100.415 148.371 100.301C147.427 100.203 146.45 99.649 146.148 98.6796C146.002 98.1909 146.165 97.6532 146.49 97.3111C146.8 96.9608 147.223 96.7572 147.63 96.6594C148.461 96.4721 149.202 96.5209 149.902 96.4721C150.61 96.4476 151.262 96.4395 151.864 96.4476C153.069 96.4721 154.03 96.5291 154.698 96.5617C155.365 96.5943 155.74 96.6187 155.74 96.6513C155.74 96.6757 155.373 96.7083 154.698 96.7327C154.03 96.7572 153.053 96.7409 151.864 96.7572C151.27 96.7653 150.618 96.7898 149.918 96.8305C149.226 96.8875 148.444 96.8712 147.728 97.0423C147.028 97.1971 146.328 97.8406 146.556 98.5737C146.775 99.2906 147.59 99.8038 148.436 99.8771C149.299 99.983 150.228 99.8771 151.107 100.121C151.962 100.333 152.76 100.651 153.452 101.091C154.144 101.506 154.698 102.142 155.088 102.704C155.504 103.249 155.984 103.673 156.497 103.934C157.531 104.455 158.549 104.357 159.208 104.537C159.542 104.61 159.786 104.724 159.941 104.822C160.055 104.928 160.128 104.993 160.12 105.001Z" fill="#EB996E"/>
<path d="M155.072 94.2808C155.08 94.2319 155.292 94.1831 155.609 94.3297C155.911 94.4682 156.302 94.8347 156.383 95.3887C156.456 95.9426 156.188 96.4069 155.935 96.6187C155.675 96.8468 155.455 96.8631 155.43 96.8142C155.406 96.7572 155.552 96.6431 155.707 96.4151C155.862 96.1951 156.017 95.8285 155.96 95.4457C155.903 95.0628 155.658 94.7533 155.447 94.5822C155.235 94.4111 155.056 94.346 155.072 94.2808Z" fill="#EB996E"/>
<path d="M161.887 230.823L147.036 267.919L161.439 270.453L177.512 238.464L161.887 230.823Z" fill="#FFBE9D"/>
<path d="M170.681 256.279L162.498 272.913C162.498 272.913 176.657 286.818 175.444 290.044L142.631 275.332L154.315 248.882L170.681 256.279Z" fill="#E8505B"/>
<path d="M152.988 266.942C152.271 266.828 151.514 267.349 151.376 268.058C151.237 268.767 151.759 269.54 152.467 269.663C153.175 269.785 154.112 269.19 154.169 268.473C154.226 267.756 153.566 266.877 152.85 266.926" fill="#E0E0E0"/>
<g opacity="0.4">
<g opacity="0.4">
<path opacity="0.4" d="M142.631 275.332L143.812 272.66L174.898 287.795C174.898 287.795 176.07 289.082 175.452 290.044L142.631 275.332Z" fill="black"/>
</g>
</g>
<path d="M163.108 272.986C163.035 273.141 162.197 272.856 161.179 273.019C160.153 273.157 159.436 273.662 159.322 273.54C159.192 273.442 159.86 272.595 161.097 272.416C162.327 272.228 163.206 272.856 163.108 272.986Z" fill="#263238"/>
<path d="M165.909 275.951C165.877 276.122 165.062 276.081 164.216 276.521C163.353 276.929 162.889 277.605 162.734 277.523C162.571 277.483 162.88 276.489 163.947 275.976C165.005 275.446 165.974 275.796 165.909 275.951Z" fill="#263238"/>
<path d="M166.015 280.953C165.852 280.92 165.991 280.024 166.797 279.324C167.595 278.623 168.507 278.615 168.515 278.778C168.547 278.949 167.847 279.202 167.196 279.78C166.536 280.35 166.186 281.01 166.015 280.953Z" fill="#263238"/>
<path d="M164.55 268.986C164.419 269.101 163.784 268.555 162.848 268.204C161.92 267.838 161.081 267.83 161.057 267.651C161.016 267.496 161.969 267.211 163.06 267.626C164.159 268.05 164.688 268.897 164.55 268.986Z" fill="#263238"/>
<path d="M166.137 265.598C166.113 265.663 165.429 265.484 164.501 264.856C164.037 264.547 163.516 264.115 163.019 263.553C162.767 263.276 162.53 262.967 162.302 262.633C162.197 262.47 162.058 262.29 161.977 262.022C161.871 261.777 161.961 261.305 162.286 261.134C162.571 260.955 162.913 260.979 163.149 261.085C163.393 261.183 163.573 261.321 163.727 261.443C164.053 261.696 164.338 261.973 164.59 262.25C165.087 262.82 165.437 263.406 165.657 263.928C166.105 264.97 166.097 265.687 166.023 265.695C165.926 265.712 165.779 265.044 165.266 264.115C165.006 263.651 164.647 263.129 164.167 262.633C163.923 262.388 163.654 262.144 163.353 261.916C163.043 261.671 162.75 261.533 162.596 261.647C162.539 261.688 162.522 261.712 162.547 261.851C162.579 261.981 162.677 262.136 162.783 262.299C162.986 262.616 163.206 262.918 163.426 263.187C163.874 263.724 164.33 264.164 164.745 264.506C165.584 265.19 166.178 265.516 166.137 265.598Z" fill="#263238"/>
<path d="M165.828 265.736C165.763 265.736 165.698 265.019 166.105 263.952C166.308 263.423 166.642 262.828 167.139 262.25C167.391 261.965 167.676 261.688 168.002 261.435C168.336 261.199 168.767 260.865 169.419 261.077C169.752 261.207 169.907 261.582 169.899 261.842C169.907 262.111 169.842 262.315 169.801 262.519C169.687 262.926 169.516 263.301 169.305 263.626C168.889 264.278 168.344 264.734 167.839 265.011C166.813 265.573 166.064 265.467 166.072 265.402C166.056 265.296 166.748 265.239 167.611 264.645C168.034 264.351 168.49 263.911 168.824 263.333C168.995 263.04 169.134 262.722 169.223 262.372C169.329 261.997 169.321 261.663 169.174 261.639C169.011 261.565 168.621 261.704 168.36 261.916C168.059 262.136 167.79 262.372 167.554 262.624C167.082 263.129 166.74 263.651 166.504 264.123C166.023 265.076 165.926 265.752 165.828 265.736Z" fill="#263238"/>
<path d="M133.455 186.346L179.181 163.945C187.225 160.002 196.906 161.819 202.988 168.401C208.646 174.534 209.974 183.511 206.318 191.022L175.981 253.436L150.602 245.428L172.919 197.856L147.818 216.999C141.035 222.172 132.763 225.007 124.239 225.072L117.668 225.129C106.652 224.673 96.678 218.498 91.345 208.845L133.455 186.346Z" fill="#263238"/>
<path d="M175.981 253.436C175.981 253.436 175.818 253.403 175.517 253.314C175.191 253.216 174.743 253.085 174.173 252.914C172.977 252.548 171.25 252.018 169.052 251.35C164.607 249.966 158.264 247.994 150.553 245.591L150.366 245.534L150.448 245.355C154.926 235.775 160.511 223.842 166.552 210.93C168.686 206.385 170.762 201.962 172.732 197.767L173.042 198.019C161.529 206.605 151.221 213.733 143.617 218.425C139.814 220.762 136.671 222.481 134.416 223.459C133.284 223.939 132.381 224.241 131.746 224.363C131.436 224.453 131.184 224.436 131.021 224.461C130.858 224.469 130.777 224.477 130.777 224.469C130.777 224.444 131.11 224.444 131.729 224.298C132.348 224.151 133.235 223.833 134.351 223.328C136.582 222.318 139.692 220.567 143.47 218.205C151.026 213.456 161.293 206.287 172.789 197.693L173.449 197.196L173.099 197.946C171.128 202.149 169.06 206.572 166.927 211.118C160.861 224.013 155.251 235.938 150.749 245.51L150.643 245.273C158.337 247.734 164.664 249.754 169.093 251.171C171.275 251.88 172.993 252.442 174.19 252.825C174.76 253.012 175.199 253.167 175.517 253.273C175.834 253.371 175.981 253.436 175.981 253.436Z" fill="#455A64"/>
<path d="M181.517 187.527C181.599 187.649 178.717 189.083 176.25 192.064C173.742 195.021 172.838 198.109 172.708 198.044C172.659 198.027 172.822 197.253 173.31 196.064C173.799 194.875 174.662 193.303 175.924 191.787C177.186 190.28 178.586 189.156 179.669 188.464C180.76 187.78 181.501 187.486 181.517 187.527Z" fill="#455A64"/>
<path d="M84.5871 275.837H150.358C151.27 275.837 152.019 276.562 152.043 277.483C152.068 278.436 151.311 279.218 150.358 279.218H84.5871C83.6507 279.218 82.9017 278.46 82.9017 277.532C82.8935 276.595 83.6507 275.837 84.5871 275.837Z" fill="#D0D0D0"/>
<path d="M141.703 233.951H90.2539C90.2539 228.444 94.7157 223.98 100.22 223.98H131.729C137.241 223.972 141.703 228.444 141.703 233.951Z" fill="#455A64"/>
<path d="M143.323 233.951H89.0488V236.973H143.323V233.951Z" fill="#D0D0D0"/>
<path d="M93.8771 236.973L80.6057 367.845H83.7241L99.9266 236.973H93.8771Z" fill="#D0D0D0"/>
<path d="M138.088 236.973L151.351 367.788L148.233 367.804L132.047 237.022L138.088 236.973Z" fill="#D0D0D0"/>
<path d="M119.598 235.824L117.367 367.845H114.167L112.767 235.458L119.598 235.824Z" fill="#D0D0D0"/>
<path d="M118.564 92.3339L121.78 82.5425L143.063 92.399L142.086 102.761L131.485 105.775L121.071 99.3882L118.564 92.3339Z" fill="#E8505B"/>
<path d="M91.345 208.845C91.345 208.845 88.3731 207.037 88.365 202.907C88.3569 198.98 91.8661 198.663 91.98 196.488C93.1525 174.046 95.6928 127.557 97.3619 112.886C99.4707 94.3949 121.128 90.4849 121.128 90.4849L139.008 94.8755V96.2277C145.196 104.186 147.875 116.185 147.875 126.262L147.044 179.691L91.345 208.845Z" fill="#E8505B"/>
<path d="M111.431 178.925C111.456 178.941 111.22 179.267 110.772 179.837C110.324 180.408 109.656 181.214 108.81 182.2C107.116 184.163 104.682 186.794 101.816 189.531C98.9496 192.268 96.2139 194.581 94.1703 196.178C93.1525 196.976 92.3139 197.612 91.7195 198.027C91.1333 198.451 90.7995 198.671 90.775 198.646C90.7588 198.622 91.06 198.353 91.6137 197.897C92.2325 197.384 93.0222 196.724 93.9748 195.942C95.9615 194.288 98.6565 191.942 101.514 189.221C104.364 186.493 106.831 183.91 108.573 181.996C109.404 181.084 110.096 180.326 110.633 179.731C111.13 179.194 111.415 178.909 111.431 178.925Z" fill="#263238"/>
<g opacity="0.2">
<g opacity="0.2">
<g opacity="0.2">
<path opacity="0.2" d="M93.8201 196.414C93.8852 193.034 96.4092 190.248 98.9169 187.975C101.848 185.319 104.975 182.868 108.256 180.652C108.419 182.305 107.295 183.78 106.204 185.026C102.54 189.213 98.4773 193.058 94.0887 196.471" fill="black"/>
</g>
</g>
</g>
<path d="M125.11 90.7211C124.996 90.6885 125.289 89.4177 125.769 87.8781C126.242 86.3467 126.722 85.1248 126.836 85.1655C126.95 85.1981 126.657 86.4689 126.176 88.0085C125.704 89.5399 125.224 90.7536 125.11 90.7211Z" fill="#263238"/>
<path d="M133.415 87.9433C133.529 87.9677 133.333 89.2385 132.983 90.7699C132.633 92.3013 132.25 93.5232 132.136 93.4988C132.022 93.4743 132.218 92.2117 132.568 90.6721C132.926 89.1407 133.301 87.9107 133.415 87.9433Z" fill="#263238"/>
<path d="M139.594 91.0305C139.708 91.0549 139.537 92.1953 139.375 93.6046C139.212 95.0057 139.122 96.1543 139 96.1543C138.886 96.1543 138.788 94.9894 138.951 93.5557C139.114 92.1139 139.48 90.9979 139.594 91.0305Z" fill="#263238"/>
<path d="M118.116 143.311C118.116 143.344 117.798 143.36 117.212 143.376C116.634 143.392 115.787 143.401 114.753 143.401C112.677 143.401 109.803 143.368 106.636 143.311C103.468 143.254 100.594 143.173 98.5182 143.099C97.476 143.059 96.6374 143.026 96.0593 142.985C95.4812 142.944 95.1555 142.912 95.1555 142.887C95.1555 142.855 95.4812 142.839 96.0593 142.822C96.6374 142.806 97.4841 142.798 98.5182 142.798C100.594 142.798 103.46 142.83 106.636 142.887C109.803 142.944 112.669 143.026 114.745 143.099C115.714 143.14 116.528 143.181 117.204 143.213C117.798 143.246 118.116 143.278 118.116 143.311Z" fill="#FAFAFA"/>
<path d="M113.573 136.477C113.573 136.591 109.493 136.599 104.462 136.493C99.4299 136.387 95.3508 136.2 95.3589 136.086C95.3589 135.971 99.438 135.963 104.47 136.069C109.502 136.175 113.581 136.354 113.573 136.477Z" fill="#FAFAFA"/>
<g opacity="0.2">
<g opacity="0.2">
<g opacity="0.2">
<path opacity="0.2" d="M105.838 125.944C112.343 140.134 120.306 152.874 129.572 165.435C131.957 168.669 134.514 171.919 137.958 173.98C141.41 176.041 143.69 175.471 147.126 173.394C143.283 172.164 142.265 171.781 139 169.41C135.776 167.073 133.121 163.855 130.785 160.637C122.635 149.429 114.696 137.886 106.538 126.685" fill="black"/>
</g>
</g>
</g>
<path d="M173.555 146.122C173.701 145.185 173.848 144.232 174.304 143.409C174.768 142.586 175.606 141.902 176.551 141.918C177.495 141.926 178.407 142.839 178.196 143.759C178.073 144.305 177.626 144.704 177.292 145.152C176.25 146.57 176.347 148.484 176.364 150.235C176.38 151.995 176.144 153.982 174.743 155.033" fill="#FFBE9D"/>
<path d="M108.956 105.229C102.076 110.043 100.57 119.615 105.65 126.302L135.401 165.501C141.866 173.915 153.354 176.604 162.88 171.936C170.916 168.001 175.818 159.644 175.338 150.708L168.783 109.489L152.776 110.483L154.291 144.052L129.523 108.838C124.833 102.174 115.632 100.553 108.956 105.229Z" fill="#E8505B"/>
<path d="M173.082 162.389C169.142 161.468 168.474 160.792 164.542 159.872C163.369 159.595 161.863 158.837 162.392 157.599C162.669 156.947 163.361 156.565 164.061 156.622C165.6 156.744 168.067 157.664 169.541 157.803C169.907 157.835 169.899 157.469 169.736 157.216C167.334 156.491 164.867 155.97 162.376 155.636C160.821 155.432 160.218 153.388 161.472 152.451C161.627 152.329 162.335 152.125 162.522 152.149C164.102 152.378 164.102 152.378 165.779 152.671C170.501 153.485 169.875 152.557 169.875 152.557C169.907 152.206 164.501 151.677 161.741 151.351C161.154 151.278 160.511 151.18 160.137 150.724C159.681 150.17 159.844 149.29 160.324 148.761C160.804 148.231 161.505 147.824 162.221 147.816C165.291 147.759 175.37 148.883 175.37 148.883C175.37 148.883 176.689 150.675 176.29 154.349C175.843 158.357 173.082 162.389 173.082 162.389Z" fill="#FFBE9D"/>
<path d="M158.818 173.394C158.818 173.394 158.671 173.418 158.394 173.451C158.093 173.484 157.678 173.524 157.14 173.581C156.041 173.679 154.413 173.842 152.304 173.858C150.203 173.858 147.582 173.752 144.716 172.808C141.85 171.863 138.951 169.851 136.338 167.138C133.708 164.425 131.176 161.159 128.481 157.656C125.802 154.137 123.001 150.325 120.086 146.293C117.171 142.26 114.151 138 111.057 133.56C109.518 131.337 107.946 129.072 106.359 126.775C105.96 126.197 105.569 125.618 105.17 125.04L104.608 124.128C104.413 123.826 104.242 123.508 104.095 123.183C103.428 121.904 103.004 120.503 102.76 119.069C102.499 117.635 102.491 116.169 102.67 114.743C102.736 114.027 102.923 113.334 103.078 112.634C103.306 111.957 103.493 111.265 103.802 110.63C104.063 109.97 104.437 109.367 104.771 108.748C105.178 108.178 105.545 107.567 106.017 107.054C106.896 105.97 107.963 105.058 109.095 104.284C110.226 103.502 111.472 102.94 112.742 102.484C114.029 102.109 115.339 101.791 116.667 101.767C119.305 101.612 121.902 102.256 124.149 103.372C126.38 104.537 128.261 106.231 129.612 108.194C130.956 110.133 132.258 112.015 133.512 113.831C136.028 117.464 138.373 120.853 140.514 123.948C144.773 130.131 148.225 135.141 150.627 138.619C151.807 140.346 152.727 141.69 153.362 142.619C153.664 143.067 153.9 143.417 154.063 143.661C154.217 143.898 154.291 144.028 154.291 144.028C154.291 144.028 154.193 143.914 154.03 143.686C153.851 143.441 153.607 143.099 153.297 142.659C152.646 141.739 151.71 140.411 150.496 138.701C148.07 135.239 144.585 130.261 140.27 124.103C138.113 121.016 135.759 117.635 133.227 114.01C131.965 112.194 130.654 110.32 129.303 108.39C127.976 106.475 126.144 104.838 123.97 103.706C121.78 102.622 119.256 102.003 116.683 102.158C115.396 102.182 114.118 102.492 112.872 102.859C111.643 103.298 110.43 103.852 109.331 104.618C108.231 105.376 107.197 106.255 106.343 107.306C105.878 107.803 105.528 108.39 105.129 108.952C104.804 109.554 104.437 110.133 104.185 110.776C103.884 111.395 103.696 112.063 103.477 112.723C103.322 113.399 103.143 114.075 103.086 114.776C102.907 116.161 102.915 117.586 103.167 118.979C103.411 120.372 103.819 121.733 104.462 122.971C105.072 124.225 105.911 125.358 106.693 126.514C108.28 128.811 109.844 131.076 111.382 133.3C114.476 137.739 117.489 142 120.396 146.04C123.302 150.08 126.087 153.893 128.749 157.42C131.428 160.931 133.944 164.205 136.541 166.91C139.122 169.622 141.964 171.61 144.781 172.563C147.598 173.516 150.203 173.647 152.296 173.671C154.396 173.671 156.025 173.541 157.132 173.467C157.67 173.427 158.085 173.402 158.386 173.378C158.679 173.394 158.818 173.394 158.818 173.394Z" fill="#263238"/>
<path d="M155.992 156.353C155.846 156.336 156.839 153.38 156.229 149.706C155.667 146.024 153.81 143.523 153.941 143.458C153.973 143.433 154.486 144.004 155.089 145.079C155.691 146.154 156.342 147.759 156.644 149.632C156.937 151.506 156.823 153.233 156.579 154.438C156.342 155.66 156.033 156.369 155.992 156.353Z" fill="#263238"/>
<path d="M156.391 114.857C156.285 114.89 155.919 113.921 155.813 112.658C155.707 111.395 155.903 110.377 156.017 110.394C156.139 110.402 156.131 111.404 156.237 112.625C156.334 113.839 156.505 114.825 156.391 114.857Z" fill="#263238"/>
<path d="M160.796 114.45C160.69 114.483 160.299 113.546 160.137 112.316C159.974 111.086 160.112 110.076 160.226 110.084C160.348 110.092 160.397 111.07 160.56 112.267C160.715 113.448 160.918 114.41 160.796 114.45Z" fill="#263238"/>
<path d="M165.168 113.497C165.054 113.505 164.916 112.699 164.859 111.705C164.81 110.711 164.859 109.897 164.973 109.888C165.087 109.88 165.225 110.687 165.282 111.681C165.339 112.674 165.29 113.489 165.168 113.497Z" fill="#263238"/>
<path d="M138.21 122.572C138.275 122.669 133.227 126.286 126.934 130.652C120.64 135.019 115.486 138.481 115.413 138.383C115.348 138.285 120.396 134.668 126.689 130.302C132.991 125.936 138.145 122.474 138.21 122.572Z" fill="#FAFAFA"/>
<path d="M134.269 116.658C134.286 116.682 133.968 116.927 133.382 117.342C132.731 117.798 131.892 118.385 130.899 119.085C128.798 120.552 125.908 122.604 122.765 124.934C119.622 127.264 116.821 129.439 114.802 131.019C113.841 131.768 113.035 132.396 112.408 132.893C111.838 133.332 111.521 133.561 111.496 133.544C111.48 133.52 111.765 133.243 112.302 132.77C112.84 132.29 113.629 131.614 114.615 130.791C116.585 129.145 119.361 126.93 122.512 124.6C125.663 122.27 128.586 120.258 130.736 118.849C131.811 118.148 132.69 117.586 133.3 117.212C133.911 116.829 134.253 116.633 134.269 116.658Z" fill="#FAFAFA"/>
<path d="M329.784 320.893H274.385V328.509H329.784V320.893Z" fill="#263238"/>
<path d="M329.881 328.606H274.295V320.802H329.881V328.606ZM274.483 328.419H329.693V320.99H274.483V328.419Z" fill="#263238"/>
<path d="M279.522 325.975L287.493 365.336H317L324.71 328.508L279.522 325.975Z" fill="#263238"/>
<path d="M279.522 361.614L283.773 367.462H319.638L324.71 361.614H279.522Z" fill="#455A64"/>
<path d="M300.008 327.124C299.902 327.124 299.755 308.893 299.698 286.402C299.633 263.903 299.674 245.673 299.78 245.673C299.886 245.673 300.032 263.903 300.089 286.402C300.154 308.893 300.114 327.124 300.008 327.124Z" fill="#263238"/>
<path d="M312.343 281.49C312.359 281.498 312.302 281.645 312.196 281.914C312.066 282.223 311.903 282.614 311.699 283.095C311.585 283.356 311.471 283.641 311.341 283.942C311.227 284.26 311.105 284.61 310.975 284.977C310.845 285.351 310.698 285.742 310.551 286.166C310.405 286.59 310.291 287.046 310.144 287.518C309.542 289.408 309.061 291.722 308.597 294.304C308.19 296.894 307.889 299.762 307.742 302.792C307.474 308.844 307.816 314.343 308.182 318.294C308.361 320.273 308.54 321.87 308.671 322.977C308.728 323.499 308.776 323.914 308.809 324.248C308.833 324.541 308.842 324.696 308.833 324.696C308.817 324.696 308.785 324.55 308.736 324.256C308.679 323.922 308.605 323.507 308.524 322.994C308.345 321.894 308.125 320.297 307.913 318.318C307.474 314.359 307.091 308.852 307.36 302.767C307.514 299.729 307.824 296.845 308.255 294.239C308.744 291.648 309.257 289.318 309.9 287.429C310.055 286.956 310.177 286.5 310.34 286.076C310.503 285.661 310.657 285.262 310.796 284.895C310.942 284.529 311.072 284.187 311.195 283.869C311.333 283.559 311.471 283.282 311.585 283.03C311.813 282.557 312.001 282.183 312.147 281.873C312.261 281.621 312.334 281.49 312.343 281.49Z" fill="#263238"/>
<path d="M310.926 266.746C310.942 266.754 310.877 266.958 310.747 267.349C310.6 267.772 310.413 268.335 310.169 269.043C310.039 269.418 309.9 269.825 309.745 270.265C309.607 270.721 309.46 271.21 309.298 271.74C308.972 272.799 308.597 273.996 308.264 275.34C308.084 276.016 307.897 276.717 307.71 277.45C307.547 278.191 307.368 278.957 307.189 279.755C306.798 281.344 306.521 283.071 306.163 284.871C305.552 288.496 305.015 292.495 304.64 296.715C304.29 300.943 304.136 304.983 304.087 308.657C304.079 312.331 304.119 315.638 304.274 318.416C304.323 319.809 304.412 321.063 304.486 322.163C304.551 323.262 304.616 324.216 304.689 324.989C304.746 325.739 304.795 326.333 304.828 326.773C304.852 327.181 304.86 327.401 304.852 327.401C304.836 327.401 304.803 327.189 304.754 326.782C304.705 326.342 304.632 325.747 304.543 324.998C304.445 324.224 304.355 323.279 304.274 322.171C304.184 321.071 304.07 319.817 304.005 318.424C303.818 315.646 303.745 312.331 303.737 308.649C303.769 304.967 303.916 300.918 304.266 296.682C304.64 292.446 305.186 288.431 305.821 284.806C306.187 282.997 306.48 281.27 306.879 279.682C307.067 278.884 307.246 278.118 307.425 277.377C307.628 276.643 307.824 275.943 308.011 275.267C308.361 273.923 308.76 272.725 309.102 271.666C309.273 271.145 309.436 270.656 309.583 270.2C309.745 269.76 309.9 269.353 310.039 268.986C310.307 268.286 310.527 267.732 310.682 267.316C310.828 266.942 310.918 266.738 310.926 266.746Z" fill="#263238"/>
<path d="M296.498 330.35C296.49 330.35 296.482 330.276 296.466 330.138C296.45 329.975 296.433 329.771 296.417 329.51C296.376 328.932 296.319 328.126 296.254 327.099C296.124 324.973 295.929 321.943 295.701 318.22C295.22 310.726 294.528 300.364 293.266 288.968C292.623 283.274 291.874 277.865 291.1 272.962C290.685 270.51 290.311 268.18 289.887 266.021C289.496 263.846 289.081 261.834 288.69 259.993C288.324 258.152 287.917 256.499 287.591 255.049C287.274 253.591 286.956 252.344 286.704 251.326C286.459 250.324 286.264 249.542 286.126 248.98C286.069 248.727 286.02 248.524 285.987 248.369C285.955 248.231 285.946 248.157 285.955 248.157C285.963 248.157 285.987 248.222 286.028 248.361C286.077 248.516 286.134 248.719 286.207 248.964C286.362 249.526 286.582 250.308 286.858 251.293C287.143 252.303 287.477 253.55 287.819 255C288.169 256.45 288.593 258.095 288.975 259.936C289.382 261.769 289.814 263.781 290.221 265.956C290.661 268.123 291.051 270.453 291.475 272.904C292.273 277.808 293.03 283.225 293.673 288.928C294.935 300.332 295.587 310.702 295.994 318.204C296.197 321.959 296.336 324.998 296.425 327.091C296.466 328.118 296.49 328.924 296.515 329.51C296.523 329.771 296.523 329.975 296.531 330.138C296.515 330.276 296.507 330.35 296.498 330.35Z" fill="#263238"/>
<path d="M299.552 254.438C299.308 251.855 296.702 249.909 294.105 249.876C291.516 249.852 289.098 251.407 287.51 253.46C285.922 255.513 285.051 258.022 284.334 260.515C282.592 266.6 281.631 272.994 282.38 279.283C283.129 285.571 285.678 291.762 290.189 296.202C290.921 296.927 291.874 297.644 292.875 297.432C293.429 297.318 293.877 296.935 294.292 296.552C303.151 288.545 308.264 276.554 307.914 264.612C307.84 262.225 307.531 259.733 306.204 257.737C304.893 255.757 301.807 253.639 299.552 254.438Z" fill="#E8505B"/>
<path d="M280.19 233.747C278.969 235.955 277.756 238.162 276.534 240.361C276.453 240.516 276.339 240.687 276.16 240.704C275.964 240.72 275.826 240.541 275.72 240.378C272.504 235.433 269.28 230.497 266.064 225.552L268.286 224.29L280.19 233.747Z" fill="#E8505B"/>
<g opacity="0.2">
<g opacity="0.2">
<g opacity="0.2">
<g opacity="0.2">
<g opacity="0.2">
<path opacity="0.2" d="M280.19 233.747C278.969 235.955 277.756 238.162 276.534 240.361C276.453 240.516 276.339 240.687 276.16 240.704C275.964 240.72 275.826 240.541 275.72 240.378C272.504 235.433 269.28 230.497 266.064 225.552L268.286 224.29L280.19 233.747Z" fill="black"/>
</g>
</g>
</g>
</g>
</g>
<path d="M299.78 245.673C288.804 239.189 277.821 232.713 266.845 226.228C266.512 226.033 266.145 225.797 266.047 225.422C265.917 224.933 266.284 224.461 266.634 224.102C271.161 219.426 277.747 216.714 284.237 217.186C290.726 217.651 296.971 221.406 300.146 227.092C303.313 232.77 303.419 240.28 299.78 245.673Z" fill="#E8505B"/>
<path d="M271.584 220.021C271.584 220.005 271.731 219.989 272.016 219.964C272.3 219.948 272.716 219.899 273.261 219.907C274.344 219.883 275.916 219.948 277.829 220.274C279.742 220.591 281.989 221.202 284.334 222.253C286.679 223.296 289.106 224.803 291.32 226.791C293.51 228.794 295.261 231.059 296.531 233.291C297.809 235.523 298.64 237.698 299.145 239.571C299.649 241.445 299.877 243.001 299.959 244.084C300.016 244.622 299.991 244.76 300.008 245.046C300.016 245.331 299.763 245.762 299.755 245.762C299.723 245.762 299.934 245.168 299.804 244.101C299.674 243.033 299.405 241.494 298.876 239.645C297.834 235.971 295.416 231.026 291.051 227.076C286.687 223.133 281.525 221.219 277.772 220.543C275.883 220.192 274.328 220.078 273.253 220.062C272.186 220.038 271.592 220.062 271.584 220.021Z" fill="#263238"/>
<path d="M295.318 232.256C295.334 232.305 294.699 232.598 293.649 233.014C292.598 233.429 291.133 233.959 289.496 234.48C287.852 235.002 286.353 235.417 285.254 235.686C284.155 235.955 283.471 236.077 283.455 236.028C283.439 235.971 284.106 235.751 285.173 235.417C286.386 235.034 287.803 234.594 289.366 234.105C290.929 233.6 292.338 233.144 293.551 232.753C294.634 232.403 295.301 232.199 295.318 232.256Z" fill="#263238"/>
<path d="M290.131 218.319C290.237 218.31 290.473 219.956 290.522 221.992C290.579 224.037 290.425 225.691 290.319 225.683C290.205 225.683 290.18 224.029 290.123 222.001C290.074 219.972 290.017 218.327 290.131 218.319Z" fill="#263238"/>
<path d="M266.552 225.862C266.536 225.813 267.448 225.479 268.946 225.023C270.444 224.558 272.528 223.98 274.849 223.418C277.169 222.856 279.294 222.432 280.833 222.155C282.372 221.887 283.341 221.764 283.349 221.813C283.357 221.87 282.413 222.09 280.89 222.424C279.368 222.766 277.259 223.239 274.938 223.793C272.618 224.355 270.534 224.892 269.019 225.283C267.505 225.683 266.569 225.919 266.552 225.862Z" fill="#263238"/>
<path d="M285.881 248.833C283.048 246.683 280.052 246.259 276.502 246.398C272.952 246.536 269.492 247.62 266.235 249.045C260.682 251.481 255.463 255.065 252.141 260.14C248.819 265.215 247.671 271.935 250.154 277.474C250.399 278.028 250.724 278.599 251.278 278.843C251.864 279.095 252.532 278.9 253.134 278.704C259.452 276.644 265.811 274.558 271.625 271.332C277.43 268.107 282.722 263.618 285.832 257.745C286.582 256.336 287.208 254.829 287.331 253.232C287.453 251.652 287.013 249.958 285.881 248.833Z" fill="#E8505B"/>
<path d="M285.938 248.174C285.938 248.19 285.784 248.247 285.482 248.361C285.14 248.475 284.701 248.63 284.155 248.817C283.862 248.915 283.545 249.021 283.195 249.135C282.844 249.257 282.478 249.412 282.071 249.575C281.273 249.901 280.345 250.218 279.368 250.699C278.871 250.927 278.358 251.163 277.821 251.408C277.283 251.652 276.746 251.961 276.176 252.247C275.028 252.809 273.872 253.525 272.643 254.259C270.224 255.79 267.66 257.631 265.16 259.806C262.685 262.005 260.535 264.311 258.703 266.526C257.824 267.659 256.961 268.718 256.261 269.777C255.903 270.306 255.528 270.795 255.219 271.3C254.909 271.805 254.608 272.286 254.323 272.75C253.729 273.662 253.289 274.542 252.866 275.291C252.662 275.674 252.459 276.016 252.288 276.35C252.133 276.676 251.986 276.986 251.848 277.263C251.596 277.776 251.392 278.191 251.229 278.517C251.083 278.802 251.001 278.949 250.985 278.941C250.969 278.933 251.034 278.778 251.156 278.485C251.302 278.151 251.482 277.727 251.71 277.198C251.832 276.912 251.97 276.603 252.117 276.269C252.271 275.935 252.467 275.576 252.662 275.194C253.069 274.428 253.493 273.532 254.071 272.611C254.356 272.139 254.649 271.65 254.95 271.145C255.259 270.64 255.626 270.135 255.984 269.606C256.684 268.53 257.539 267.455 258.41 266.306C260.234 264.074 262.4 261.737 264.891 259.521C267.407 257.33 269.988 255.481 272.439 253.957C273.685 253.232 274.857 252.515 276.013 251.97C276.591 251.685 277.129 251.383 277.674 251.139C278.22 250.903 278.741 250.674 279.246 250.454C280.231 249.99 281.175 249.689 281.981 249.379C282.388 249.233 282.763 249.086 283.113 248.972C283.463 248.866 283.789 248.768 284.082 248.687C284.636 248.532 285.083 248.402 285.434 248.304C285.776 248.198 285.938 248.157 285.938 248.174Z" fill="#263238"/>
<path d="M263.808 260.156C263.841 260.262 260.755 261.256 256.92 262.38C253.085 263.504 249.951 264.327 249.918 264.221C249.886 264.115 252.971 263.121 256.806 261.997C260.641 260.881 263.776 260.05 263.808 260.156Z" fill="#263238"/>
<path d="M263.523 275.373C263.466 275.373 263.409 274.55 263.369 273.222C263.336 271.895 263.328 270.062 263.385 268.033C263.442 266.005 263.548 264.172 263.662 262.853C263.776 261.525 263.882 260.71 263.931 260.718C263.988 260.718 263.979 261.541 263.939 262.869C263.89 264.327 263.841 266.095 263.776 268.05C263.727 270.005 263.686 271.772 263.646 273.231C263.621 274.55 263.58 275.373 263.523 275.373Z" fill="#263238"/>
<path d="M276.551 268.734C276.445 268.742 276.095 265.011 275.777 260.401C275.46 255.79 275.289 252.051 275.394 252.043C275.5 252.035 275.85 255.766 276.168 260.376C276.485 264.987 276.656 268.726 276.551 268.734Z" fill="#263238"/>
<path d="M260.34 251.685C260.34 251.628 261.187 251.611 262.546 251.619C263.906 251.628 265.787 251.668 267.863 251.733C269.939 251.799 271.82 251.888 273.18 251.97C274.54 252.051 275.378 252.124 275.378 252.181C275.378 252.238 274.531 252.255 273.172 252.247C271.812 252.238 269.931 252.198 267.847 252.124C265.771 252.059 263.89 251.97 262.53 251.888C261.17 251.815 260.332 251.733 260.34 251.685Z" fill="#263238"/>
<path d="M291.605 297.073C291.589 297.073 291.573 296.919 291.556 296.633C291.54 296.299 291.524 295.884 291.499 295.363C291.451 294.263 291.442 292.666 291.483 290.695C291.516 288.724 291.654 286.378 291.89 283.779C292.151 281.189 292.517 278.338 293.046 275.373C293.592 272.407 294.243 269.613 294.919 267.088C295.611 264.571 296.311 262.323 296.971 260.466C297.622 258.6 298.2 257.109 298.632 256.091C298.835 255.619 298.998 255.228 299.137 254.918C299.259 254.649 299.324 254.519 299.34 254.519C299.356 254.527 299.308 254.674 299.218 254.943C299.104 255.252 298.966 255.651 298.786 256.14C298.396 257.175 297.866 258.673 297.248 260.547C296.621 262.412 295.953 264.661 295.277 267.178C294.626 269.695 293.983 272.481 293.437 275.438C292.908 278.395 292.525 281.221 292.248 283.812C291.996 286.394 291.833 288.732 291.76 290.695C291.679 292.658 291.654 294.255 291.654 295.355C291.646 295.868 291.646 296.291 291.638 296.625C291.63 296.919 291.613 297.073 291.605 297.073Z" fill="#263238"/>
<path d="M293.339 275.495C293.38 275.536 292.875 276.089 292.029 276.937C291.174 277.784 289.969 278.924 288.584 280.138C287.2 281.352 285.914 282.403 284.961 283.136C284.009 283.869 283.39 284.292 283.357 284.252C283.325 284.211 283.878 283.706 284.782 282.924C285.792 282.044 286.997 281.001 288.324 279.845C289.643 278.68 290.832 277.621 291.833 276.733C292.737 275.935 293.299 275.454 293.339 275.495Z" fill="#263238"/>
<path d="M303.769 283.901C303.721 283.934 303.199 283.185 302.369 281.963C301.465 280.651 300.35 279.014 299.112 277.214C297.85 275.43 296.71 273.809 295.79 272.505C294.935 271.3 294.414 270.55 294.463 270.518C294.504 270.485 295.106 271.178 296.018 272.334C296.93 273.499 298.151 275.128 299.438 276.986C300.724 278.835 301.832 280.553 302.605 281.808C303.37 283.071 303.81 283.869 303.769 283.901Z" fill="#263238"/>
<path d="M298.306 257.476C298.363 257.566 294.903 259.904 290.571 262.689C286.24 265.475 282.682 267.659 282.625 267.569C282.568 267.479 286.028 265.141 290.36 262.355C294.691 259.57 298.249 257.378 298.306 257.476Z" fill="#263238"/>
<path d="M308.068 268.017C307.995 268.098 305.65 265.923 302.833 263.178C300.016 260.425 297.793 258.128 297.866 258.054C297.94 257.973 300.284 260.148 303.102 262.901C305.927 265.646 308.15 267.944 308.068 268.017Z" fill="#263238"/>
<path d="M310.527 267.805L313.499 267.561C315.608 267.39 317.659 266.762 319.5 265.72C320.411 265.207 321.331 264.702 322.3 264.31C325.972 262.836 330.076 263.097 334.033 262.901C340.49 262.575 346.881 260.946 352.694 258.128C353.028 257.965 353.329 257.72 353.509 257.386C354.119 256.27 352.987 255.285 352.01 254.682C347.003 251.595 341.906 248.467 336.223 246.935C330.54 245.404 324.092 245.665 319.247 248.996C313.556 252.923 311.488 260.963 310.527 267.805Z" fill="#E8505B"/>
<path d="M353.574 257.028C353.566 257.036 353.395 256.955 353.069 256.792C352.711 256.605 352.247 256.36 351.66 256.051C350.439 255.407 348.68 254.462 346.458 253.395C344.235 252.336 341.54 251.147 338.405 250.291C335.279 249.42 331.68 248.972 327.967 249.444C324.271 249.933 320.859 251.375 318.449 253.533C316.023 255.684 314.541 258.291 313.491 260.498C312.449 262.73 311.805 264.62 311.333 265.923C311.113 266.543 310.934 267.048 310.804 267.422C310.682 267.764 310.608 267.944 310.592 267.936C310.576 267.927 310.625 267.748 310.722 267.398C310.836 267.015 310.991 266.502 311.178 265.875C311.602 264.563 312.204 262.649 313.23 260.384C314.256 258.144 315.73 255.489 318.197 253.265C320.656 251.033 324.14 249.55 327.902 249.053C331.68 248.564 335.344 249.045 338.495 249.941C341.662 250.829 344.357 252.059 346.58 253.151C348.794 254.25 350.537 255.244 351.734 255.928C352.304 256.262 352.76 256.531 353.11 256.735C353.419 256.914 353.582 257.012 353.574 257.028Z" fill="#263238"/>
<path d="M346.433 260.865C346.376 260.955 342.484 258.437 337.746 255.244C333.007 252.051 329.221 249.387 329.278 249.298C329.335 249.208 333.227 251.725 337.965 254.918C342.712 258.112 346.498 260.775 346.433 260.865Z" fill="#263238"/>
<path d="M342.289 249.094C342.305 249.183 341.051 249.477 339.456 249.607C337.86 249.737 336.565 249.656 336.565 249.566C336.565 249.469 337.843 249.403 339.415 249.273C340.994 249.143 342.273 248.996 342.289 249.094Z" fill="#263238"/>
<path d="M325.272 246.87C325.37 246.911 324.792 247.807 323.994 248.866C323.196 249.925 322.471 250.748 322.382 250.707C322.284 250.666 322.862 249.77 323.66 248.711C324.45 247.652 325.175 246.829 325.272 246.87Z" fill="#263238"/>
<path d="M328.749 263.154C328.724 263.194 328 262.82 326.876 262.135C325.753 261.451 324.238 260.457 322.61 259.276C320.989 258.095 319.556 256.987 318.531 256.165C317.505 255.35 316.886 254.82 316.918 254.78C316.951 254.739 317.635 255.179 318.702 255.945C319.866 256.792 321.283 257.818 322.846 258.959C324.466 260.132 325.948 261.166 327.031 261.899C328.114 262.649 328.781 263.105 328.749 263.154Z" fill="#263238"/>
<path d="M314.899 280.448C312.066 279.698 308.687 282.46 308.101 285.335C307.515 288.211 308.598 291.151 309.86 293.799C312.652 299.664 316.512 305.097 321.584 309.146C326.665 313.194 333.023 315.785 339.513 315.752C338.316 310.18 339.83 304.364 339.163 298.703C338.576 293.766 336.28 289.042 332.747 285.547C329.213 282.044 324.474 279.788 319.532 279.258C317.717 279.055 315.624 278.77 314.899 280.448Z" fill="#E8505B"/>
<path d="M339.513 315.752C339.505 315.76 339.366 315.703 339.106 315.565C338.853 315.426 338.479 315.198 338.047 314.856C337.16 314.18 336.134 312.876 335.246 311.109C334.79 310.229 334.286 309.276 333.797 308.225C333.317 307.166 332.804 306.034 332.275 304.853C331.737 303.671 331.143 302.441 330.402 301.244C329.669 300.047 328.79 298.874 327.821 297.733C325.883 295.452 323.799 293.481 321.991 291.591C320.176 289.709 318.653 287.901 317.546 286.256C316.43 284.61 315.755 283.144 315.372 282.101C315.193 281.58 315.054 281.172 314.989 280.887C314.916 280.602 314.883 280.456 314.9 280.456C314.94 280.448 315.095 281.034 315.51 282.052C315.934 283.062 316.634 284.496 317.766 286.101C318.889 287.714 320.42 289.481 322.244 291.339C324.059 293.204 326.152 295.175 328.114 297.481C329.091 298.629 329.979 299.818 330.719 301.049C331.469 302.27 332.063 303.517 332.592 304.706C333.113 305.895 333.618 307.028 334.082 308.095C334.554 309.146 335.051 310.107 335.483 310.995C336.337 312.762 337.29 314.049 338.137 314.75C338.975 315.442 339.537 315.711 339.513 315.752Z" fill="#263238"/>
<path d="M324.849 311.117C324.8 311.109 324.89 310.376 325.109 309.211C325.329 308.046 325.696 306.441 326.184 304.69C326.681 302.939 327.202 301.383 327.625 300.275C328.049 299.159 328.35 298.491 328.399 298.507C328.456 298.523 328.236 299.232 327.886 300.364C327.536 301.497 327.055 303.061 326.567 304.796C326.078 306.531 325.671 308.119 325.378 309.268C325.093 310.416 324.906 311.133 324.849 311.117Z" fill="#263238"/>
<path d="M338.975 297.448C338.959 297.505 338.202 297.31 336.981 296.992C335.759 296.674 334.074 296.234 332.193 295.811C330.312 295.387 328.602 295.061 327.365 294.825C326.127 294.589 325.354 294.442 325.362 294.385C325.37 294.336 326.152 294.385 327.406 294.548C328.659 294.711 330.394 295.004 332.274 295.428C334.163 295.852 335.849 296.332 337.054 296.723C338.267 297.106 338.992 297.391 338.975 297.448Z" fill="#263238"/>
<path d="M314.329 301.415C314.281 301.407 314.386 300.56 314.639 299.208C314.891 297.855 315.282 295.99 315.811 293.954C316.341 291.917 316.902 290.101 317.35 288.797C317.798 287.494 318.115 286.704 318.164 286.72C318.221 286.736 317.993 287.559 317.619 288.879C317.244 290.198 316.723 292.023 316.194 294.051C315.665 296.08 315.225 297.921 314.908 299.257C314.59 300.601 314.386 301.431 314.329 301.415Z" fill="#263238"/>
<path d="M332.47 285.531C332.462 285.637 328.92 285.351 324.564 284.887C320.208 284.423 316.691 283.967 316.699 283.853C316.707 283.747 320.249 284.032 324.605 284.496C328.961 284.96 332.486 285.417 332.47 285.531Z" fill="#263238"/>
<path d="M329.881 328.476C329.881 328.582 317.44 328.671 302.092 328.671C286.736 328.671 274.295 328.582 274.295 328.476C274.295 328.37 286.736 328.28 302.092 328.28C317.432 328.28 329.881 328.37 329.881 328.476Z" fill="#455A64"/>
<path d="M321.218 344.499C321.218 344.605 312.831 344.694 302.491 344.694C292.151 344.694 283.764 344.605 283.764 344.499C283.764 344.393 292.151 344.303 302.491 344.303C312.839 344.303 321.218 344.393 321.218 344.499Z" fill="#455A64"/>
<path d="M320.892 346.788C320.892 346.894 312.652 346.984 302.491 346.984C292.33 346.984 284.09 346.894 284.09 346.788C284.09 346.682 292.33 346.593 302.491 346.593C312.66 346.593 320.892 346.682 320.892 346.788Z" fill="#455A64"/>
<path d="M321.551 342.609C321.551 342.715 312.88 342.805 302.182 342.805C291.483 342.805 282.812 342.715 282.812 342.609C282.812 342.503 291.483 342.414 302.182 342.414C312.872 342.414 321.551 342.503 321.551 342.609Z" fill="#455A64"/>
<path d="M210.267 15.8688C203.005 14.2478 193.682 19.2901 191.166 26.0838C188.65 32.8775 191.378 41.2841 196.849 46.0331C192.583 51.5235 192.404 59.6938 196.011 65.6322C199.618 71.5787 206.612 75.1467 213.557 75.1059C220.51 75.0652 227.252 71.6032 231.77 66.3246C237.657 69.2246 245.156 68.5159 250.391 64.5488C255.626 60.5818 258.346 53.56 257.149 47.1003C265.389 44.0944 269.916 33.5618 266.423 25.5136C262.938 17.4654 252.158 13.5635 244.334 17.5224C244.505 8.74929 236.851 0.56264 228.09 0.139053C219.346 -0.292681 210.943 7.1201 210.267 15.8688C210.805 15.7874 209.73 15.9584 210.267 15.8688Z" fill="#FAFAFA"/>
<path d="M210.267 15.8682C210.267 15.8682 210.234 15.8764 210.136 15.9008H210.12H210.112C210.104 15.8601 210.112 15.8927 210.112 15.8845H210.12L210.161 15.8764C210.193 15.8682 210.226 15.8601 210.267 15.8601C210.307 15.8519 210.356 15.8438 210.405 15.8356C210.405 15.9008 210.316 15.8682 210.267 15.8927L210.242 15.9008L210.25 15.8682C210.356 15.1677 210.389 13.3186 211.504 10.8015C212.033 9.53885 212.856 8.13776 213.996 6.70407C215.136 5.27039 216.666 3.853 218.58 2.63926C220.493 1.42552 222.838 0.464302 225.5 0.130319C225.834 0.0895898 226.168 0.0570062 226.51 0.0162766C226.852 0.0162766 227.194 0.00813065 227.544 0.00813065C228.236 -0.0325989 228.936 0.105882 229.653 0.154757C231.061 0.407281 232.519 0.757555 233.895 1.42552C234.253 1.57215 234.595 1.73507 234.929 1.93057C235.263 2.11792 235.613 2.29713 235.947 2.50078C236.59 2.94881 237.274 3.36425 237.876 3.90188C238.519 4.39063 239.081 4.98529 239.676 5.56365C240.213 6.19088 240.791 6.80997 241.255 7.51867C243.258 10.2557 244.536 13.7747 244.52 17.5137L244.268 17.3589C247.671 15.6564 251.88 15.3306 255.846 16.4466C259.794 17.5463 263.629 20.096 265.868 23.9571C268.14 27.8101 268.368 32.7954 266.788 37.178C266.007 39.3773 264.785 41.4627 263.173 43.2222C261.561 44.9899 259.534 46.4317 257.23 47.287L257.36 47.0508C257.987 50.4232 257.555 54.0319 256.179 57.3065C254.811 60.573 252.483 63.5381 249.389 65.4932C244.04 68.89 237.086 69.1588 231.68 66.5114L231.932 66.4625C228.024 70.9917 222.667 74.079 217.057 74.9995C211.447 75.977 205.715 74.5433 201.368 71.5293C199.194 70.0223 197.345 68.1243 195.994 65.9656C194.65 63.807 193.804 61.4039 193.478 59.0009C193.12 56.5978 193.283 54.1948 193.828 51.9546C194.39 49.7227 195.399 47.6699 196.718 45.943L196.743 46.1629C194.097 43.8413 192.297 40.9006 191.231 37.9274C190.685 36.4448 190.368 34.9215 190.205 33.439C190.05 31.9564 190.058 30.4983 190.278 29.1135C190.669 26.3439 191.833 23.8838 193.429 22.0917C194.992 20.267 196.775 18.9392 198.485 17.978C200.203 17.0168 201.864 16.414 203.33 16.0312C204.803 15.6646 206.09 15.5424 207.124 15.5261C208.158 15.5342 208.956 15.5994 209.477 15.7135C210.006 15.8112 210.267 15.8682 210.267 15.8682C210.267 15.8682 209.998 15.8438 209.469 15.7623C208.948 15.6646 208.158 15.6157 207.124 15.6239C206.098 15.6564 204.82 15.7868 203.362 16.1696C201.913 16.5606 200.268 17.1716 198.575 18.1409C196.889 19.1103 195.131 20.4299 193.6 22.2383C192.037 24.0142 190.913 26.4253 190.539 29.1542C190.319 30.5146 190.327 31.9483 190.482 33.4145C190.645 34.8727 190.962 36.3634 191.508 37.8296C192.574 40.7459 194.357 43.6458 196.963 45.9185L197.077 46.0163L196.987 46.1385C195.701 47.8328 194.716 49.8449 194.178 52.0361C193.649 54.2274 193.494 56.5897 193.852 58.9438C194.178 61.298 195.009 63.6522 196.328 65.762C197.655 67.8718 199.462 69.7372 201.604 71.2116C205.878 74.1686 211.496 75.5697 217 74.6003C222.504 73.6961 227.78 70.6414 231.623 66.1937L231.729 66.0715L231.876 66.1448C237.152 68.7271 243.958 68.4583 249.177 65.151C252.19 63.253 254.461 60.3531 255.805 57.1599C257.148 53.9667 257.572 50.4314 256.961 47.1486L256.928 46.9775L257.091 46.9123C261.594 45.2424 264.899 41.3405 266.414 37.0558C267.969 32.771 267.749 27.9079 265.543 24.1689C263.369 20.4055 259.623 17.9047 255.756 16.8213C251.872 15.7135 247.761 16.0312 244.43 17.6848L244.178 17.807V17.5219C244.202 13.8725 242.965 10.4105 241.003 7.71417C240.547 7.01362 239.977 6.41082 239.448 5.78359C238.861 5.21337 238.316 4.62687 237.681 4.14626C237.086 3.61677 236.419 3.20133 235.784 2.76145C235.458 2.5578 235.116 2.38674 234.782 2.19124C234.457 1.99573 234.115 1.83282 233.764 1.68619C232.413 1.02637 230.98 0.676096 229.604 0.423572C228.904 0.366551 228.22 0.22807 227.536 0.2688C227.194 0.2688 226.86 0.2688 226.518 0.276946C226.184 0.30953 225.859 0.350259 225.525 0.382843C222.903 0.692388 220.583 1.63731 218.685 2.81847C216.788 4.00778 215.258 5.40073 214.118 6.80997C212.986 8.22736 212.156 9.60402 211.61 10.8503C210.478 13.343 210.413 15.1758 210.275 15.8682L210.259 15.8519C210.316 15.8601 210.389 15.8031 210.413 15.8601C210.364 15.8682 210.316 15.8764 210.275 15.8764C210.234 15.8845 210.202 15.8845 210.169 15.8927L210.128 15.9008H210.12C210.12 15.8927 210.12 15.9171 210.112 15.8845H210.12H210.136C210.234 15.8682 210.267 15.8682 210.267 15.8682Z" fill="#263238"/>
<path d="M223.937 51.8162C225.647 52.7611 227.609 53.201 229.522 52.9404C231.778 52.6308 233.895 51.3112 235.319 49.3317C236.671 47.45 237.225 45.1773 236.834 43.0919C236.443 40.9903 235.1 39.0679 233.146 37.8297C231.59 36.8359 229.791 36.3634 228.041 36.4449L228.187 29.0891C228.203 28.3723 227.633 27.7776 226.909 27.7613C226.192 27.745 225.598 28.3152 225.582 29.0402L225.403 37.9274C225.394 38.3347 225.574 38.7257 225.899 38.9783C226.217 39.2308 226.64 39.3204 227.031 39.2145C228.578 38.8072 230.296 39.1086 231.753 40.0291C233.097 40.8844 234.017 42.1715 234.277 43.5644C234.538 44.9574 234.147 46.4969 233.211 47.8003C232.201 49.2095 230.727 50.1382 229.172 50.35C226.078 50.7817 222.675 48.4845 221.747 45.3402C221.543 44.6478 220.819 44.2568 220.127 44.4605C219.434 44.6641 219.044 45.3891 219.247 46.0815C219.972 48.5497 221.747 50.6025 223.937 51.8162Z" fill="#E8505B"/>
<path d="M228.684 23.7454C228.724 22.9389 228.098 22.2547 227.292 22.2221C226.485 22.1814 225.802 22.8086 225.769 23.615C225.728 24.4215 226.355 25.1057 227.161 25.1383C227.967 25.1709 228.651 24.5518 228.684 23.7454Z" fill="#E8505B"/>
<path d="M180.329 56.6221C176.632 56.2067 172.887 59.1963 172.472 62.9026C172.057 66.609 175.037 70.348 178.733 70.7716C182.429 71.1952 186.183 68.2138 186.606 64.5155C187.03 60.8173 184.058 57.062 180.361 56.6303" fill="#FAFAFA"/>
<path d="M180.37 56.6304C180.37 56.6304 181.013 56.6059 182.079 56.997C183.13 57.388 184.611 58.3084 185.703 60.0517C186.24 60.9151 186.68 61.9823 186.794 63.1878C186.908 64.3934 186.696 65.7294 186.036 66.9268C185.727 67.5296 185.312 68.108 184.815 68.613C184.327 69.1344 183.757 69.5905 183.113 69.9652C181.851 70.731 180.288 71.1383 178.709 70.9753C177.137 70.7798 175.704 70.0304 174.646 68.9959C174.108 68.4908 173.652 67.9125 173.294 67.2934C172.928 66.6824 172.651 66.0308 172.488 65.371C172.114 64.0513 172.211 62.6991 172.594 61.5587C172.985 60.4101 173.652 59.4733 174.369 58.7483C175.826 57.2984 177.479 56.7281 178.586 56.5897C179.718 56.443 180.337 56.6141 180.337 56.6141C180.337 56.663 179.71 56.5571 178.619 56.7526C177.544 56.9399 175.965 57.5346 174.589 58.9601C173.913 59.6688 173.294 60.5812 172.936 61.6727C172.594 62.7643 172.512 64.035 172.879 65.2732C173.042 65.8923 173.302 66.5114 173.66 67.0897C174.002 67.6681 174.434 68.222 174.947 68.6945C175.957 69.672 177.308 70.3644 178.774 70.5518C180.247 70.6984 181.721 70.3318 182.918 69.6068C183.529 69.2566 184.074 68.8248 184.538 68.3361C185.01 67.8555 185.409 67.3178 185.711 66.7476C186.346 65.6153 186.549 64.369 186.46 63.2286C186.362 62.08 185.955 61.0536 185.458 60.2146C184.441 58.5202 183.032 57.5835 182.03 57.1599C180.996 56.7118 180.361 56.6793 180.37 56.6304Z" fill="#263238"/>
<path d="M166.471 72.1158C164.875 71.9366 163.263 73.2237 163.084 74.8203C162.905 76.4169 164.191 78.0298 165.787 78.2171C167.383 78.3963 169.003 77.1174 169.182 75.5208C169.37 73.9242 168.083 72.3032 166.487 72.1158" fill="#FAFAFA"/>
<path d="M166.487 72.1158C166.487 72.0995 166.772 72.0751 167.245 72.2298C167.709 72.3846 168.368 72.7838 168.865 73.5495C169.109 73.9323 169.304 74.3967 169.361 74.9424C169.418 75.4801 169.321 76.0829 169.036 76.6205C168.482 77.6876 167.212 78.5837 165.763 78.437C164.322 78.2497 163.279 77.093 162.986 75.9281C162.823 75.3416 162.872 74.7306 163.043 74.2256C163.222 73.7124 163.524 73.297 163.841 72.9874C164.493 72.352 165.225 72.1158 165.714 72.0669C166.21 72.018 166.479 72.1077 166.471 72.1239C166.471 72.1647 166.194 72.1321 165.738 72.2298C165.282 72.3194 164.623 72.5883 164.053 73.1911C163.483 73.7776 163.043 74.7795 163.361 75.8222C163.638 76.8404 164.582 77.8587 165.812 78.0053C167.041 78.1356 168.189 77.3618 168.694 76.425C169.239 75.4719 169.036 74.3967 168.612 73.7043C168.189 72.9874 167.611 72.5801 167.188 72.3846C166.748 72.1891 166.479 72.1565 166.487 72.1158Z" fill="#263238"/>
</svg>
