<svg width="133" height="80" viewBox="0 0 133 80" fill="none" xmlns="http://www.w3.org/2000/svg">
<g clip-path="url(#clip0)">
<path d="M4.61584 68.2077H129.462C131.021 68.2077 132.296 66.9311 132.296 65.37V12.9886C132.296 11.4275 131.021 10.1509 129.462 10.1509H4.61584C3.05658 10.1509 1.78149 11.4275 1.78149 12.9886V65.37C1.78149 66.9311 3.05658 68.2077 4.61584 68.2077Z" fill="#303864"/>
<path d="M1.25243 20.9945C11.7289 20.9945 20 13.126 20 2.44534C20 1.90043 19.8603 0.017498 19.8603 0.0559124C19.9258 0.061178 18.9246 -0.0724882 17.1702 0.0559198C5.85088 1.13499 -0.339374 9.54922 0.0143695 19.8004L0.117012 20.9945C0.395283 21.0069 0.971171 20.9945 1.25243 20.9945Z" fill="#0CD725"/>
<path d="M48.2312 59.5523C48.2312 55.3978 65.5906 26.1414 70.9861 20.5243C71.8677 19.6088 71.1609 18.1425 70.3995 17.3474C69.2264 16.0635 66.352 15.272 64.8292 15.272C64.3592 15.272 63.1862 16.9206 61.5468 19.5468C56.9127 24.4344 46.9415 35.7343 43.3057 39.8851C44.4205 35.975 47.7029 28.3409 47.7029 26.0211C47.7029 21.3778 43.7137 18.6313 39.2582 18.6313C33.9793 18.6313 21.5454 27.305 21.5454 33.1081C21.5454 34.9391 23.0099 36.6498 24.8315 36.6498C25.9463 36.6498 24.0701 35.8547 24.0701 34.144C24.0701 31.2114 36.1506 24.3104 39.2582 24.4344C36.7954 31.3974 18.4451 56.2586 9.88377 56.2586C6.48111 56.2586 4.72148 55.7078 4.01836 55.7078C3.72691 55.7078 3.60669 55.7699 3.60669 56.0142C3.60669 58.8848 8.12415 62.5505 14.3393 62.5505C23.254 62.5505 32.2197 46.4214 38.6717 33.7172C37.5569 39.276 35.9138 43.8572 36.7954 44.7727C38.0268 46.0566 40.3147 46.7278 41.4295 46.7278C42.3075 46.7278 48.876 38.4808 54.6248 31.0911C48.7011 41.9022 42.1909 55.2154 42.1909 59.9827C42.1909 62.7329 44.4205 63.8928 46.1801 63.8928C48.1146 63.8928 49.7576 62.1821 49.7576 61.511C49.754 60.7742 48.2312 61.5037 48.2312 59.5523Z" fill="white"/>
<path d="M77.1467 28.8299C77.9664 28.7059 78.0866 28.1587 77.9664 27.1812C77.9664 25.4706 81.7188 20.5829 82.3053 19.7914C84.0066 18.0808 78.6112 16.0054 77.143 16.0054C75.4417 16.0054 73.1538 20.5246 73.1538 23.4572C73.1575 26.3241 75.0919 28.8299 77.1467 28.8299Z" fill="white"/>
<path d="M106.033 28.4431C106.849 28.279 106.94 27.7246 106.776 26.7544C106.696 25.0473 110.211 19.9737 110.762 19.1494C112.379 17.3548 106.893 15.5566 105.428 15.6332C103.73 15.7208 101.657 20.3531 101.796 23.282C101.931 26.1452 103.982 28.5489 106.033 28.4431Z" fill="white"/>
<path d="M104.266 32.0176C103.158 30.9744 99.57 29.5665 97.9306 29.654C97.4715 29.6759 96.6773 30.6644 95.7156 32.2401C95.1982 32.7799 94.7246 33.3343 94.6263 33.4109C93.0998 35.428 80.1995 53.6872 76.4435 56.9882C76.4435 56.9882 76.4435 56.9882 76.3852 56.9882C80.1376 48.7412 92.6881 25.9008 99.9015 16.8003C100.663 15.8228 100.488 15.1517 99.5481 14.4185C98.6082 13.6234 95.5589 12.0987 93.7993 12.2811C91.9049 12.489 84.8263 25.2588 79.052 36.9161C74.7021 42.9162 66.3229 54.3912 63.4194 56.9918C63.831 53.9972 73.3323 37.2043 75.2085 35.3076C76.1484 34.2681 76.265 33.4146 75.2085 32.313C74.152 31.2151 70.6327 29.6248 68.9933 29.6248C66.822 29.6248 56.1477 50.6963 56.1477 54.7267C56.1477 57.9037 58.8436 61.139 62.7745 61.139C65.8238 61.139 66.2938 60.7122 67.7 59.246C68.2683 58.6733 69.7147 56.4739 71.5289 53.5486C71.1792 54.5298 70.9861 55.2337 70.9861 55.5803C70.9861 57.9621 72.5709 61.139 75.5036 61.139C78.7277 61.139 79.7259 60.3438 80.7824 59.246C81.7479 58.2393 85.4383 52.2611 89.0778 46.0932C87.4165 50.2477 86.218 53.9425 86.2872 55.3869C86.4366 58.5602 91.2272 62.1311 92.1344 60.8654C93.7628 58.5894 99.9525 39.4913 104.408 35.0085C105.293 33.9216 105.37 33.0644 104.266 32.0176Z" fill="white"/>
<path d="M129.706 31.908C129.057 30.8429 128.249 29.7158 127.699 29.0228C126.715 27.7936 124.208 25.4519 122.263 24.9413C119.629 24.3285 115.909 24.7297 112.674 26.0757C111.596 26.5243 110.554 27.159 109.643 27.8119C108.827 28.5523 108.179 29.2636 107.632 30.1025C107.089 30.9414 106.714 31.576 106.35 32.7505C106.219 33.4253 106.058 33.9688 106 34.7348C105.854 36.6242 106.645 38.9585 107.366 40.4576C110.018 45.958 111.1 46.1732 112.82 49.1532C115.487 53.7782 112.911 60.3582 106.288 57.9363C104.703 57.3564 101.443 54.8761 101.789 51.2724C102.135 47.6796 103.676 46.3629 103.676 46.3629C102.936 46.1732 101.275 45.7757 100.495 46.0602C99.1074 46.5672 98.7941 47.2201 98.2986 48.0116C97.8104 48.7885 96.0982 52.4943 97.2129 56.6415C97.9124 59.2494 100.933 64.0969 106.058 65.658C111.421 67.2921 117.603 64.1845 120.321 58.5783C123.411 52.1952 118.088 47.3951 115.512 41.9641C114.824 40.5124 114.427 38.7725 114.904 37.2479C115.334 35.8691 116.113 35.3767 117.152 34.567C117.753 34.1803 118.416 33.8849 119.115 33.6989C120.518 33.3232 122.077 33.3743 123.636 33.9724C122.78 34.8259 122.183 36.015 121.884 37.1129C121.516 38.4661 121.454 39.4291 122.208 40.6546C122.7 39.8923 123.145 39.4984 123.768 39.068C124.442 38.6047 125.039 38.1853 125.859 37.7147C126.646 37.2333 127.451 36.7263 128.263 36.1828C129.076 35.6393 129.903 35.0594 130.744 34.4284C130.839 33.9797 130.354 32.9767 129.706 31.908Z" fill="white"/>
</g>
<defs>
<clipPath id="clip0">
<rect width="132.3" height="80" fill="white"/>
</clipPath>
</defs>
</svg>
