<svg width="60" height="80" viewBox="0 0 60 80" fill="none" xmlns="http://www.w3.org/2000/svg">
<path fill-rule="evenodd" clip-rule="evenodd" d="M16.4531 63.3776C19.4069 67.5856 22.8678 72.516 26.9169 78.3859C28.4066 80.538 31.5933 80.5381 33.0831 78.3859C37.1322 72.516 40.5931 67.5856 43.5469 63.3776C57.155 43.9914 60 39.9385 60 30C60 13.4314 46.5686 0 30 0C13.4314 0 0 13.4314 0 30C0 39.9385 2.84495 43.9914 16.4531 63.3776Z" fill="#303864"/>
<path d="M35.3616 38.0046C35.3616 35.823 44.4936 20.4598 47.3319 17.5101C47.7957 17.0293 47.4239 16.2594 47.0234 15.8418C46.4063 15.1676 44.8942 14.752 44.0931 14.752C43.8459 14.752 43.2288 15.6177 42.3663 16.9968C39.9286 19.5634 34.6832 25.4972 32.7706 27.6769C33.357 25.6236 35.0837 21.6147 35.0837 20.3966C35.0837 17.9583 32.9852 16.516 30.6413 16.516C27.8644 16.516 21.3234 21.0708 21.3234 24.1181C21.3234 25.0796 22.0939 25.978 23.0521 25.978C23.6385 25.978 22.6516 25.5604 22.6516 24.6621C22.6516 23.1221 29.0066 19.4982 30.6413 19.5634C29.3458 23.2198 19.6925 36.275 15.1888 36.275C13.3988 36.275 12.4732 35.9858 12.1033 35.9858C11.95 35.9858 11.8867 36.0183 11.8867 36.1467C11.8867 37.6541 14.2631 39.579 17.5327 39.579C22.2223 39.579 26.9387 31.1092 30.3328 24.438C29.7464 27.357 28.882 29.7627 29.3458 30.2435C29.9936 30.9177 31.1971 31.2701 31.7836 31.2701C32.2454 31.2701 35.7008 26.9395 38.725 23.0589C35.6089 28.7361 32.1841 35.7272 32.1841 38.2306C32.1841 39.6748 33.357 40.2839 34.2826 40.2839C35.3003 40.2839 36.1646 39.3856 36.1646 39.0331C36.1627 38.6462 35.3616 39.0293 35.3616 38.0046Z" fill="white"/>
</svg>
