<svg width="336" height="12" viewBox="0 0 336 12" fill="none" xmlns="http://www.w3.org/2000/svg">
<path d="M0.46967 5.46967C0.176777 5.76256 0.176777 6.23744 0.46967 6.53033L5.24264 11.3033C5.53553 11.5962 6.01041 11.5962 6.3033 11.3033C6.59619 11.0104 6.59619 10.5355 6.3033 10.2426L2.06066 6L6.3033 1.75736C6.59619 1.46447 6.59619 0.989593 6.3033 0.696699C6.01041 0.403806 5.53553 0.403806 5.24264 0.696699L0.46967 5.46967ZM335.53 6.53033C335.823 6.23744 335.823 5.76256 335.53 5.46967L330.757 0.696699C330.464 0.403806 329.99 0.403806 329.697 0.696699C329.404 0.989593 329.404 1.46447 329.697 1.75736L333.939 6L329.697 10.2426C329.404 10.5355 329.404 11.0104 329.697 11.3033C329.99 11.5962 330.464 11.5962 330.757 11.3033L335.53 6.53033ZM1 6.75H335V5.25H1V6.75Z" fill="#303864"/>
</svg>
