<svg width="34" height="34" viewBox="0 0 34 34" xmlns="http://www.w3.org/2000/svg">
<path d="M17.9428 5.39052C18.4635 5.91122 18.4635 6.75544 17.9429 7.27614L8.21899 17L17.9429 26.7239C18.4636 27.2446 18.4636 28.0888 17.9429 28.6095C17.4222 29.1302 16.5779 29.1302 16.0572 28.6095L5.39057 17.9428C4.86987 17.4221 4.86987 16.5779 5.39057 16.0572L16.0572 5.39052C16.5779 4.86983 17.4222 4.86983 17.9428 5.39052Z"/>
<path d="M29 17.0001C29 17.7365 28.403 18.3334 27.6667 18.3334L6.33333 18.3334C5.59695 18.3334 5 17.7365 5 17.0001C5 16.2637 5.59695 15.6668 6.33333 15.6668L27.6667 15.6667C28.403 15.6667 29 16.2637 29 17.0001Z"/>
</svg>
