<svg width="34" height="34" viewBox="0 0 34 34" xmlns="http://www.w3.org/2000/svg">
<path d="M16.0572 28.6095C15.5365 28.0888 15.5365 27.2446 16.0572 26.7239L25.781 17L16.0571 7.27614C15.5365 6.75544 15.5365 5.91122 16.0571 5.39052C16.5778 4.86982 17.4221 4.86982 17.9428 5.39052L28.6094 16.0572C29.1301 16.5779 29.1301 17.4221 28.6094 17.9428L17.9428 28.6095C17.4221 29.1302 16.5778 29.1302 16.0572 28.6095Z"/>
<path d="M5 16.9999C5 16.2635 5.59695 15.6666 6.33333 15.6666L27.6667 15.6666C28.403 15.6666 29 16.2635 29 16.9999C29 17.7363 28.403 18.3333 27.6667 18.3333L6.33333 18.3333C5.59695 18.3333 5 17.7363 5 16.9999Z"/>
</svg>
