<svg width="34" height="34" viewBox="0 0 34 34" fill="none" xmlns="http://www.w3.org/2000/svg">
<path fill-rule="evenodd" clip-rule="evenodd" d="M4.43934 16.4393C5.02513 15.8536 5.97487 15.8536 6.56066 16.4393L17.5 27.3787L28.4393 16.4393C29.0251 15.8536 29.9749 15.8536 30.5607 16.4393C31.1464 17.0251 31.1464 17.9749 30.5607 18.5607L18.5607 30.5607C17.9749 31.1464 17.0251 31.1464 16.4393 30.5607L4.43934 18.5607C3.85355 17.9749 3.85355 17.0251 4.43934 16.4393Z" fill="#0CD725"/>
<path fill-rule="evenodd" clip-rule="evenodd" d="M17.5 4C18.3284 4 19 4.67157 19 5.5V29.5C19 30.3284 18.3284 31 17.5 31C16.6716 31 16 30.3284 16 29.5V5.5C16 4.67157 16.6716 4 17.5 4Z" fill="#0CD725"/>
</svg>
