<svg width="22" height="22" viewBox="0 0 22 22" xmlns="http://www.w3.org/2000/svg">
<path d="M11 0C4.92486 0 0 4.92486 0 11C0 17.0751 4.92486 22 11 22C17.0751 22 22 17.0751 22 11C22 4.92486 17.0751 0 11 0ZM13.6318 4.11022C14.4961 4.1182 15.3097 4.50573 16.0744 5.27037C16.9234 6.13952 17.4108 7.24933 17.0935 8.53197C16.9123 9.21164 16.4828 9.90607 15.8031 10.616C13.7444 12.6351 11.8931 14.5162 9.52699 16.8693C9.07438 17.3139 8.2658 17.8568 7.443 17.8898C6.75869 17.8844 6.20702 17.603 5.69739 17.0962C5.15522 16.5471 4.75429 15.8331 4.81386 14.9438C4.88937 14.3094 5.1993 13.7204 5.74306 13.1766L11.0228 7.8982C11.8031 7.12475 12.9014 6.52604 13.9447 7.42152C14.8881 8.39874 14.2855 9.45657 13.4465 10.3219L8.57496 15.1706L7.64575 14.2186L12.4945 9.36985C12.716 9.14747 13.1685 8.75855 12.9927 8.35069C12.7636 8.14383 12.2147 8.60726 11.9735 8.84886L6.69508 14.1287C6.43109 14.3945 6.20152 14.674 6.15126 15.0793C6.10594 15.4267 6.2641 15.7817 6.6266 16.1441C7.32937 16.7959 7.81852 16.6098 8.57494 15.9185C10.5877 13.9058 12.203 12.308 14.2737 10.2426C14.9544 9.56191 15.4463 9.13288 15.8031 8.19219C16.0845 7.13196 14.9957 5.62457 13.7634 5.4516C12.9547 5.37614 12.2495 5.90715 11.6566 6.47077L5.87866 12.2474L4.92798 11.3196L10.7046 5.51881C11.6109 4.62768 12.5284 4.15958 13.4573 4.11427C13.5153 4.11143 13.5742 4.10971 13.6318 4.11022Z"/>
</svg>
