<svg width="24" height="24" viewBox="0 0 24 24" fill="none" xmlns="http://www.w3.org/2000/svg">
<path d="M19.9241 8.60938L17.7366 4.4375C17.6741 4.3125 17.5699 4.20833 17.4241 4.125C17.2783 4.04167 17.1376 4 17.0022 4H7.00223C6.86682 4 6.72619 4.04167 6.58036 4.125C6.43452 4.20833 6.33036 4.3125 6.26786 4.4375L4.08036 8.53125C4.01786 8.65625 3.99182 8.80208 4.00223 8.96875C4.01265 9.13542 4.05952 9.27083 4.14286 9.375L11.6429 19.8438C11.7262 19.9479 11.8251 20 11.9397 20C11.9918 20 12.0439 19.987 12.096 19.9609C12.1481 19.9349 12.1949 19.8958 12.2366 19.8438L19.8616 9.46875C20.0283 9.22917 20.0595 8.96875 19.9554 8.6875C19.9449 8.65625 19.9345 8.63021 19.9241 8.60938ZM18.721 8.5H16.0491L17.1272 5.42188L18.721 8.5ZM12.9866 5H16.2054L15.2054 7.85938L12.9866 5ZM14.4397 8.5H9.79911L11.9866 5.34375L14.4397 8.5ZM8.90848 8.01562L7.90848 5H11.0179L8.90848 8.01562ZM14.6429 9.5L11.9554 17.1875L9.39286 9.5H14.6429ZM10.8304 16.9844L5.45536 9.5H8.34598L10.8304 16.9844ZM15.7054 9.5H18.596L13.0804 17L15.7054 9.5ZM6.93973 5.28125L8.01786 8.5H5.23661L6.93973 5.28125Z" fill="#303864"/>
</svg>
