<svg width="20" height="20" viewBox="0 0 20 20" xmlns="http://www.w3.org/2000/svg">
<path fill-rule="evenodd" clip-rule="evenodd" d="M10.7857 0.325437C11.2196 0.759353 11.2196 1.46287 10.7857 1.89679L2.68246 10L10.7857 18.1032C11.2196 18.5371 11.2196 19.2406 10.7857 19.6746C10.3518 20.1085 9.64824 20.1085 9.21433 19.6746L0.325441 10.7857C-0.108476 10.3518 -0.108476 9.64824 0.325441 9.21433L9.21433 0.325437C9.64825 -0.108479 10.3518 -0.108479 10.7857 0.325437Z"/>
<path fill-rule="evenodd" clip-rule="evenodd" d="M20 9.99978C20 10.6134 19.5025 11.1109 18.8889 11.1109L1.11111 11.1109C0.497461 11.1109 -1.02907e-06 10.6134 -1.00224e-06 9.99978C-9.75419e-07 9.38613 0.497461 8.88867 1.11111 8.88867L18.8889 8.88867C19.5025 8.88867 20 9.38613 20 9.99978Z" />
</svg>
