<svg width="16" height="13" viewBox="0 0 16 13" fill="none" xmlns="http://www.w3.org/2000/svg">
<path d="M14.2695 2.10107H11.8955L11.3299 0.516065C11.2909 0.407607 11.2193 0.313857 11.1249 0.247621C11.0305 0.181385 10.918 0.145894 10.8028 0.145996H5.44724C5.21158 0.145996 5.00037 0.294373 4.92181 0.516065L4.35449 2.10107H1.98047C1.20891 2.10107 0.583984 2.726 0.583984 3.49756V11.4575C0.583984 12.2291 1.20891 12.854 1.98047 12.854H14.2695C15.0411 12.854 15.666 12.2291 15.666 11.4575V3.49756C15.666 2.726 15.0411 2.10107 14.2695 2.10107ZM8.125 10.061C6.58188 10.061 5.33203 8.81118 5.33203 7.26807C5.33203 5.72495 6.58188 4.4751 8.125 4.4751C9.66812 4.4751 10.918 5.72495 10.918 7.26807C10.918 8.81118 9.66812 10.061 8.125 10.061ZM6.44922 7.26807C6.44922 7.71251 6.62577 8.13875 6.94004 8.45302C7.25431 8.76729 7.68056 8.94385 8.125 8.94385C8.56944 8.94385 8.99569 8.76729 9.30996 8.45302C9.62423 8.13875 9.80078 7.71251 9.80078 7.26807C9.80078 6.82362 9.62423 6.39738 9.30996 6.08311C8.99569 5.76884 8.56944 5.59229 8.125 5.59229C7.68056 5.59229 7.25431 5.76884 6.94004 6.08311C6.62577 6.39738 6.44922 6.82362 6.44922 7.26807Z" fill="white"/>
</svg>
