<svg width="34" height="34" viewBox="0 0 34 34" fill="none" xmlns="http://www.w3.org/2000/svg">
<path d="M8 5.30078L8 28.7014C8.00073 28.9384 8.06451 29.1706 8.18448 29.3731C8.30445 29.5757 8.47606 29.7409 8.68085 29.8509C8.88564 29.961 9.11585 30.0117 9.3467 29.9977C9.57754 29.9837 9.80029 29.9054 9.99095 29.7714L26.487 18.071C27.171 17.5861 27.171 16.4187 26.487 15.9325L9.99096 4.23215C9.80069 4.09672 9.57783 4.0173 9.3466 4.00252C9.11537 3.98774 8.8846 4.03817 8.67938 4.14832C8.47416 4.25847 8.30232 4.42414 8.18255 4.62732C8.06277 4.8305 7.99964 5.06342 8 5.30078ZM23.5355 17.0011L10.5379 26.221L10.5379 7.78125L23.5355 17.0011Z" fill="#303864"/>
</svg>
