<svg width="11" height="11" viewBox="0 0 11 11" fill="none" xmlns="http://www.w3.org/2000/svg">
<path fill-rule="evenodd" clip-rule="evenodd" d="M10.0975 5.3375C10.0975 6.58733 9.61308 7.78598 8.75087 8.66974C7.88866 9.55351 6.71925 10.05 5.49991 10.05C4.28056 10.05 3.11115 9.55351 2.24894 8.66974C1.38673 7.78598 0.902344 6.58733 0.902344 5.3375C0.902344 4.08767 1.38673 2.88902 2.24894 2.00526C3.11115 1.12149 4.28056 0.625 5.49991 0.625C6.71925 0.625 7.88866 1.12149 8.75087 2.00526C9.61308 2.88902 10.0975 4.08767 10.0975 5.3375V5.3375ZM7.81593 3.55264C7.77488 3.51071 7.726 3.4777 7.67221 3.45557C7.61843 3.43345 7.56084 3.42267 7.5029 3.42388C7.44496 3.42509 7.38785 3.43826 7.33499 3.46261C7.28213 3.48696 7.23461 3.52199 7.19526 3.5656L5.19934 6.1722L3.9965 4.9387C3.9148 4.86067 3.80673 4.81818 3.69506 4.8202C3.5834 4.82222 3.47686 4.86859 3.39789 4.94953C3.31892 5.03048 3.27368 5.13968 3.27171 5.25413C3.26974 5.36859 3.31119 5.47936 3.38733 5.56311L4.90797 7.12236C4.94893 7.16427 4.99772 7.1973 5.0514 7.21947C5.10509 7.24164 5.16259 7.2525 5.22046 7.2514C5.27833 7.2503 5.33539 7.23726 5.38824 7.21307C5.44109 7.18888 5.48864 7.15402 5.52807 7.11058L7.82225 4.17116C7.90046 4.0878 7.94367 3.97634 7.94259 3.8607C7.94152 3.74505 7.89625 3.63445 7.8165 3.55264H7.81593Z" fill="#0CD725"/>
</svg>
