<svg width="34" height="34" viewBox="0 0 34 34" fill="none" xmlns="http://www.w3.org/2000/svg">
<path fill-rule="evenodd" clip-rule="evenodd" d="M25.2424 8.63562C25.6539 8.22992 26.2094 8.0016 26.7888 8.00001C27.3682 7.99842 27.9249 8.22369 28.3386 8.62712C28.7523 9.03056 28.9898 9.57973 28.9997 10.1559C29.0096 10.7321 28.791 11.289 28.3914 11.7062L16.6541 26.299C16.4524 26.5151 16.2089 26.6885 15.9383 26.8089C15.6676 26.9293 15.3753 26.9942 15.0789 26.9996C14.7825 27.0051 14.488 26.951 14.213 26.8407C13.9381 26.7304 13.6883 26.566 13.4787 26.3575L5.70185 18.6195C5.4852 18.4187 5.31142 18.1766 5.1909 17.9075C5.07038 17.6385 5.00557 17.3481 5.00034 17.0536C4.99512 16.7591 5.04959 16.4666 5.16049 16.1935C5.2714 15.9203 5.43648 15.6723 5.64587 15.464C5.85527 15.2557 6.1047 15.0915 6.37928 14.9812C6.65386 14.8709 6.94797 14.8167 7.24405 14.8219C7.54014 14.8271 7.83214 14.8916 8.10264 15.0115C8.37313 15.1313 8.61658 15.3042 8.81846 15.5197L14.9752 21.6404L25.1866 8.69996C25.2048 8.6773 25.2244 8.65582 25.2454 8.63562H25.2424Z" fill="#0CD725"/>
</svg>
