<svg width="22" height="23" viewBox="0 0 22 23" xmlns="http://www.w3.org/2000/svg">
<path d="M21.5967 0.407299C21.7247 0.536081 21.8263 0.689069 21.8956 0.8575C21.9649 1.02593 22.0006 1.2065 22.0006 1.38885C22.0006 1.57121 21.9649 1.75177 21.8956 1.9202C21.8263 2.08863 21.7247 2.24162 21.5967 2.3704L2.35072 21.7796C2.09259 22.04 1.74248 22.1862 1.37743 22.1862C1.01237 22.1862 0.662263 22.04 0.404129 21.7796C0.145995 21.5193 0.000976565 21.1662 0.000976562 20.7981C0.00097656 20.4299 0.145995 20.0769 0.404129 19.8165L19.6501 0.407299C19.7778 0.278191 19.9295 0.175758 20.0965 0.105866C20.2635 0.0359753 20.4426 0 20.6234 0C20.8042 0 20.9833 0.0359753 21.1503 0.105866C21.3173 0.175758 21.469 0.278191 21.5967 0.407299Z"/>
<path d="M0.403873 0.407299C0.275851 0.536081 0.174279 0.689069 0.104976 0.8575C0.0356727 1.02593 0 1.2065 0 1.38885C0 1.57121 0.0356727 1.75177 0.104976 1.9202C0.174279 2.08863 0.275851 2.24162 0.403873 2.3704L19.6499 21.7796C19.908 22.04 20.2581 22.1862 20.6231 22.1862C20.9882 22.1862 21.3383 22.04 21.5964 21.7796C21.8546 21.5193 21.9996 21.1662 21.9996 20.7981C21.9996 20.4299 21.8546 20.0769 21.5964 19.8165L2.35047 0.407299C2.22277 0.278191 2.07107 0.175758 1.90405 0.105866C1.73704 0.0359753 1.55799 0 1.37717 0C1.19635 0 1.0173 0.0359753 0.850288 0.105866C0.683273 0.175758 0.531572 0.278191 0.403873 0.407299Z"/>
</svg>
