<svg width="84" height="86" viewBox="0 0 84 86" fill="none" xmlns="http://www.w3.org/2000/svg">
<path fill-rule="evenodd" clip-rule="evenodd" d="M22.2651 77.9667C52.0531 77.3064 75.6657 52.6232 75.0054 22.8352C74.891 17.6725 74.0549 12.6953 72.5958 7.99776C69.1418 7.3862 65.577 7.10424 61.9359 7.18495C32.1479 7.84525 8.53527 32.5284 9.19557 62.3164C9.31001 67.4791 10.1461 72.4563 11.6052 77.1538C15.0592 77.7654 18.624 78.0474 22.2651 77.9667Z" fill="#303864"/>
<path fill-rule="evenodd" clip-rule="evenodd" d="M12.4467 71.7204C41.6025 79.5326 71.571 62.2303 79.3833 33.0745C80.7373 28.0214 81.3368 22.9438 81.2511 17.9614C78.0656 16.3863 74.6788 15.1003 71.1149 14.1454C41.9591 6.33309 11.9906 23.6354 4.17837 52.7912C2.82439 57.8443 2.2248 62.9219 2.31057 67.9043C5.49603 69.4794 8.88283 70.7654 12.4467 71.7204Z" fill="#0CD725"/>
</svg>
