<svg width="20" height="20" viewBox="0 0 20 20" fill="none" xmlns="http://www.w3.org/2000/svg">
<path d="M14.2745 3.5293C13.9866 3.52999 13.7017 3.58769 13.4362 3.69906C13.1708 3.81043 12.93 3.97326 12.7277 4.17817L4.3108 12.5948L4.2778 12.7614L3.69549 15.6891L3.52942 16.4705L4.31134 16.3044L7.23887 15.7221L7.40494 15.6885L15.8219 7.27187C16.0273 7.06998 16.1905 6.8292 16.3018 6.56357C16.4132 6.29794 16.4706 6.01279 16.4706 5.72475C16.4706 5.43671 16.4132 5.15156 16.3018 4.88593C16.1905 4.6203 16.0273 4.37952 15.8219 4.17763C15.6195 3.97276 15.3786 3.80999 15.113 3.69871C14.8475 3.58743 14.5625 3.52985 14.2745 3.5293V3.5293ZM14.2745 4.54385C14.5428 4.54385 14.8132 4.66628 15.0729 4.92657C15.5908 5.44397 15.5908 6.00554 15.0729 6.52346L14.6908 6.88915L13.1099 5.30876L13.4761 4.92657C13.7364 4.66628 14.0063 4.54385 14.2745 4.54385V4.54385ZM12.362 6.0577L13.9419 7.63809L7.50501 14.0746C7.15751 13.3947 6.60427 12.8418 5.92414 12.4948L12.362 6.0577ZM5.24282 13.3603C5.55785 13.487 5.844 13.6761 6.08411 13.9162C6.32422 14.1563 6.51332 14.4425 6.64005 14.7575L4.89312 15.1067L5.24282 13.3603Z" fill="white"/>
</svg>
