<svg width="18" height="12" viewBox="0 0 18 12" fill="none" xmlns="http://www.w3.org/2000/svg">
<path fill-rule="evenodd" clip-rule="evenodd" d="M5 11.125C5 10.9592 5.06585 10.8003 5.18306 10.6831C5.30027 10.5658 5.45924 10.5 5.625 10.5H9.375C9.54076 10.5 9.69973 10.5658 9.81694 10.6831C9.93415 10.8003 10 10.9592 10 11.125C10 11.2908 9.93415 11.4497 9.81694 11.5669C9.69973 11.6842 9.54076 11.75 9.375 11.75H5.625C5.45924 11.75 5.30027 11.6842 5.18306 11.5669C5.06585 11.4497 5 11.2908 5 11.125ZM2.5 7.375C2.5 7.20924 2.56585 7.05027 2.68306 6.93306C2.80027 6.81585 2.95924 6.75 3.125 6.75H11.875C12.0408 6.75 12.1997 6.81585 12.3169 6.93306C12.4342 7.05027 12.5 7.20924 12.5 7.375C12.5 7.54076 12.4342 7.69973 12.3169 7.81694C12.1997 7.93415 12.0408 8 11.875 8H3.125C2.95924 8 2.80027 7.93415 2.68306 7.81694C2.56585 7.69973 2.5 7.54076 2.5 7.375ZM0 3.625C0 3.45924 0.0658481 3.30027 0.183058 3.18306C0.300269 3.06585 0.45924 3 0.625 3H14.375C14.5408 3 14.6997 3.06585 14.8169 3.18306C14.9342 3.30027 15 3.45924 15 3.625C15 3.79076 14.9342 3.94973 14.8169 4.06694C14.6997 4.18415 14.5408 4.25 14.375 4.25H0.625C0.45924 4.25 0.300269 4.18415 0.183058 4.06694C0.0658481 3.94973 0 3.79076 0 3.625Z" fill="#303864"/>
</svg>
