<svg width="10" height="10" viewBox="0 0 10 10" fill="none" xmlns="http://www.w3.org/2000/svg">
<path d="M3.52795 3.49798L3.52712 3.4984L3.52587 3.49923L3.52795 3.49798ZM7.67546 3.42007C7.64647 3.3921 7.61431 3.36763 7.57962 3.34715C7.53052 3.31824 7.47601 3.29971 7.41946 3.2927C7.36292 3.2857 7.30553 3.29036 7.25086 3.30641C7.19619 3.32246 7.14539 3.34956 7.1016 3.38602C7.05781 3.42248 7.02197 3.46754 6.99629 3.5184C6.85279 3.80128 6.65483 4.05304 6.41379 4.25923C6.45075 4.05154 6.46943 3.84102 6.46962 3.63006C6.47042 2.98846 6.30118 2.35809 5.97914 1.80316C5.6571 1.24822 5.19375 0.788537 4.63629 0.470898C4.57486 0.435994 4.50556 0.417284 4.43491 0.416528C4.36426 0.415772 4.29457 0.432994 4.23241 0.466576C4.17024 0.500158 4.11764 0.548997 4.07954 0.608501C4.04144 0.668004 4.0191 0.736219 4.01462 0.806732C3.99129 1.20177 3.88801 1.58797 3.71104 1.94192C3.53406 2.29587 3.28707 2.61021 2.98504 2.8659L2.8892 2.94381C2.57321 3.15642 2.29352 3.41852 2.06087 3.72007C1.69932 4.17553 1.44887 4.70897 1.32938 5.27808C1.20989 5.8472 1.22465 6.43632 1.37249 6.99874C1.52033 7.56115 1.79719 8.08138 2.1811 8.51817C2.56501 8.95495 3.04541 9.29628 3.5842 9.51507C3.64746 9.54081 3.71608 9.55062 3.78402 9.54361C3.85195 9.53661 3.91713 9.51301 3.9738 9.4749C4.03048 9.43679 4.07691 9.38533 4.10902 9.32505C4.14114 9.26478 4.15794 9.19753 4.15795 9.12923C4.15761 9.0851 4.15058 9.04127 4.13712 8.99923C4.0439 8.64883 4.01705 8.28409 4.05795 7.92382C4.45232 8.66739 5.08527 9.25675 5.85504 9.59715C5.94896 9.63913 6.05511 9.64477 6.15295 9.61298C6.76107 9.41667 7.30889 9.06813 7.74438 8.60049C8.17986 8.13284 8.48854 7.56161 8.6411 6.94107C8.79366 6.32053 8.78502 5.67129 8.61601 5.05503C8.447 4.43877 8.12323 3.87596 7.67546 3.42007ZM6.04837 8.76631C5.68516 8.58227 5.36475 8.32385 5.10796 8.00785C4.85118 7.69184 4.66379 7.32533 4.55795 6.93215C4.5256 6.79974 4.50056 6.66565 4.48295 6.53048C4.4711 6.44441 4.43263 6.3642 4.37294 6.30107C4.31325 6.23794 4.23531 6.19505 4.15004 6.1784C4.12382 6.17331 4.09716 6.17079 4.07045 6.1709C3.99725 6.17083 3.92531 6.19005 3.86189 6.22662C3.79847 6.26319 3.74581 6.31583 3.7092 6.37923C3.36356 6.97559 3.18978 7.656 3.20712 8.34507C2.90302 8.10869 2.64886 7.81431 2.45938 7.47898C2.26989 7.14365 2.14885 6.77404 2.10328 6.39158C2.0577 6.00913 2.08849 5.62143 2.19386 5.25096C2.29923 4.88049 2.47709 4.53462 2.71712 4.2334C2.89938 3.99666 3.11924 3.79144 3.36795 3.6259C3.37884 3.61892 3.38928 3.61126 3.3992 3.60298C3.3992 3.60298 3.52254 3.5009 3.5267 3.49882C4.12054 2.99675 4.54294 2.32193 4.73504 1.5684C5.18897 1.98813 5.4916 2.54601 5.59595 3.15538C5.70031 3.76476 5.60053 4.39154 5.31212 4.9384C5.27395 5.01139 5.25828 5.09405 5.26707 5.17595C5.27586 5.25785 5.30873 5.3353 5.36152 5.39853C5.41431 5.46175 5.48466 5.50792 5.56367 5.53118C5.64269 5.55444 5.72682 5.55376 5.80545 5.52923C6.44368 5.32907 7.00526 4.9382 7.41462 4.40923C7.66075 4.77266 7.82167 5.18696 7.8854 5.62123C7.94913 6.05551 7.91402 6.49857 7.78269 6.9174C7.65136 7.33622 7.4272 7.72 7.12691 8.04013C6.82662 8.36026 6.45794 8.60849 6.04837 8.76631Z" fill="#303864"/>
</svg>
