<svg width="53" height="53" viewBox="0 0 53 53" fill="none" xmlns="http://www.w3.org/2000/svg">
<path d="M52.8314 26.6633C52.8314 26.6633 52.8097 26.519 52.7881 26.2449C52.7664 25.9491 52.7448 25.5451 52.7087 25.0112C52.6943 24.7371 52.6726 24.434 52.651 24.1022C52.6149 23.7703 52.5428 23.4096 52.4851 23.0128C52.3624 22.2264 52.2398 21.3173 51.944 20.3289C51.4822 18.3161 50.5443 15.9425 49.0581 13.4246C47.5647 10.9212 45.4076 8.30227 42.464 6.08019C39.5349 3.87975 35.8411 2.00396 31.57 1.24643C30.5023 1.09493 29.4201 0.871272 28.3019 0.871272C27.7463 0.849628 27.1836 0.799129 26.6136 0.806344C26.0509 0.835202 25.4738 0.864057 24.9038 0.892915C24.6152 0.914558 24.3266 0.91456 24.038 0.950633L23.1723 1.08049C22.5951 1.17428 22.0108 1.24643 21.4336 1.36186C20.2937 1.67209 19.1105 1.90296 17.985 2.3719C16.8235 2.73985 15.7341 3.31701 14.6158 3.85088C14.0675 4.14668 13.5481 4.49298 13.007 4.81042C12.4587 5.12065 11.9536 5.50302 11.4486 5.88539C10.3953 6.60685 9.47905 7.50867 8.51951 8.37442C7.64655 9.33396 6.73753 10.2791 5.98722 11.3685L5.39562 12.1621L4.87617 13.0134L4.35672 13.8719C4.17636 14.1533 4.01041 14.4419 3.87333 14.7521C3.58475 15.3581 3.28895 15.9641 2.99316 16.5774C2.76229 17.2123 2.52423 17.8544 2.29337 18.4892C1.44926 21.0865 0.99474 23.8424 0.958667 26.6417C0.99474 29.4482 1.44926 32.2041 2.29337 34.8014C2.53145 35.4435 2.76229 36.0783 2.99316 36.7132C3.28895 37.3265 3.57754 37.9325 3.87333 38.5385C4.01041 38.8487 4.17636 39.1373 4.35672 39.4187L4.87617 40.2772L5.39562 41.1285L5.98722 41.9221C6.73753 43.0115 7.65377 43.9566 8.51951 44.9162C9.47905 45.7819 10.4025 46.691 11.4486 47.4124C11.9536 47.802 12.4587 48.1844 13.007 48.4874C13.5481 48.8048 14.0675 49.1511 14.6158 49.4469C15.7341 49.988 16.8307 50.558 17.985 50.9331C19.1105 51.4021 20.2937 51.6329 21.4336 51.9432C22.0108 52.0658 22.5951 52.1307 23.1723 52.2245L24.038 52.3544C24.3266 52.3905 24.6152 52.3905 24.9038 52.4121C25.481 52.441 26.0509 52.4698 26.6136 52.4987C27.1836 52.5059 27.7391 52.4554 28.3019 52.4338C29.4201 52.4265 30.5023 52.2101 31.57 52.0586C35.8411 51.3011 39.5349 49.4253 42.464 47.2248C45.4004 45.0028 47.5575 42.3839 49.0581 39.8804C50.5443 37.3625 51.4822 34.9889 51.944 32.9833C52.247 31.9949 52.3624 31.0859 52.4851 30.2995C52.5428 29.9099 52.6149 29.5492 52.651 29.2101C52.6726 28.8782 52.6871 28.5752 52.7087 28.301C52.7448 27.7672 52.7737 27.3559 52.7881 27.0673C52.8097 26.8076 52.8314 26.6633 52.8314 26.6633C52.8314 26.6633 52.8386 26.8076 52.8314 27.0818C52.8242 27.3776 52.8097 27.7888 52.7881 28.3227C52.7737 28.5968 52.7664 28.8999 52.752 29.2389C52.7231 29.5708 52.6582 29.9387 52.6005 30.3355C52.4851 31.1219 52.3768 32.0454 52.0883 33.041C51.6482 35.0683 50.7247 37.4635 49.2457 40.0103C47.7523 42.5498 45.5952 45.2048 42.6372 47.4629C39.6864 49.6994 35.9565 51.6113 31.6422 52.3905C30.56 52.5492 29.4634 52.7728 28.3307 52.7801C27.768 52.8017 27.198 52.8594 26.6208 52.8522C26.0437 52.8233 25.4665 52.7945 24.8894 52.7656C24.6008 52.744 24.305 52.7512 24.0164 52.7079L23.1434 52.578C22.5591 52.4843 21.9675 52.4121 21.3831 52.2967C20.2288 51.9865 19.0239 51.7484 17.884 51.2794C16.7081 50.9043 15.597 50.3271 14.4643 49.786C13.9088 49.4902 13.3821 49.1367 12.8338 48.812C12.2783 48.5018 11.7661 48.1122 11.2538 47.7226C10.1861 46.994 9.2554 46.0777 8.27422 45.1975C7.39405 44.2236 6.46336 43.2713 5.69862 42.1602L5.0926 41.3522L4.56595 40.4864L4.03928 39.6207C3.85891 39.3321 3.68577 39.0363 3.54869 38.7261C3.2529 38.1128 2.95711 37.4924 2.65409 36.8792C2.41601 36.2371 2.17792 35.5877 1.93984 34.9384C1.0813 32.3051 0.626783 29.5059 0.583496 26.6633C0.619569 23.8208 1.0813 21.0215 1.93984 18.3954C2.17792 17.7461 2.41601 17.0968 2.65409 16.4547C2.94989 15.8343 3.2529 15.221 3.54869 14.6078C3.68577 14.2976 3.8517 14.0018 4.03928 13.7132L4.56595 12.8474L5.0926 11.9889L5.69862 11.1809C6.46336 10.0771 7.38685 9.11752 8.26702 8.14355C9.24099 7.26338 10.1789 6.34713 11.2394 5.61846C11.7517 5.22887 12.2639 4.83928 12.8194 4.52906C13.3677 4.2044 13.9016 3.8581 14.4499 3.55509C15.5898 3.014 16.6936 2.42962 17.8696 2.06168C19.0095 1.58551 20.2071 1.35465 21.3686 1.04442C21.953 0.921772 22.5518 0.856842 23.129 0.763052L24.002 0.63319C24.2906 0.597117 24.5864 0.597121 24.8749 0.575478C25.4593 0.54662 26.0365 0.517759 26.6064 0.488901C27.1764 0.481686 27.7463 0.539402 28.3163 0.561046C29.449 0.56826 30.5456 0.799127 31.6278 0.950633C35.9421 1.72981 39.6792 3.64167 42.6228 5.87818C45.5807 8.13634 47.7451 10.7913 49.2313 13.3308C50.7103 15.8776 51.6338 18.28 52.0738 20.3073C52.3624 21.3029 52.4706 22.2192 52.5861 23.0128C52.6366 23.4096 52.7015 23.7703 52.7376 24.1094C52.752 24.4413 52.7664 24.7515 52.7736 25.0256C52.7953 25.5595 52.8097 25.9707 52.8169 26.2665C52.8314 26.519 52.8314 26.6633 52.8314 26.6633Z" fill="white"/>
<path d="M21.6356 20.5668H23.1146C23.1146 20.5668 25.986 15.6249 25.9066 14.3118C25.8273 12.9988 25.1708 9.80271 25.9066 8.90089C26.6425 7.99907 31.0867 8.5113 31.5701 11.4621C32.1833 15.1848 32.1328 20.574 32.1328 20.574H41.5262C42.6084 20.574 43.6184 21.245 43.9358 22.2839C44.0224 22.5653 44.0585 22.8683 44.0224 23.1785C44.0224 23.1785 43.9142 25.3934 41.8653 25.4727C41.8653 25.4727 42.5218 26.0499 42.5218 27.5217C42.5218 29.0007 40.6749 29.5345 40.6749 29.5345C40.6749 29.5345 41.822 29.9025 41.822 31.5474C41.822 33.1923 40.0616 33.8416 40.0616 33.8416C40.0616 33.8416 40.7614 34.7867 40.5955 36.3018C40.4296 37.8169 38.7269 38.1704 38.7269 38.1704H21.6284V20.5668H21.6356Z" fill="white"/>
<path d="M18.7859 38.1631H14.183C13.1657 38.1631 12.3433 37.3406 12.3433 36.3234V22.3993C12.3433 21.382 13.1657 20.5596 14.183 20.5596H18.7859C19.8031 20.5596 20.6256 21.382 20.6256 22.3993V36.3234C20.6184 37.3406 19.7959 38.1631 18.7859 38.1631Z" fill="white"/>
</svg>
