<svg width="34" height="34" viewBox="0 0 34 34" xmlns="http://www.w3.org/2000/svg">
<path d="M6.19977 17.2001H7.3998V25.6C7.3998 26.9236 8.47622 28 9.79985 28H24.2002C25.5238 28 26.6002 26.9236 26.6002 25.6V17.2001H27.8002C28.0375 17.2001 28.2695 17.1297 28.4668 16.9978C28.6641 16.8659 28.8179 16.6785 28.9087 16.4593C28.9995 16.2401 29.0232 15.9988 28.977 15.7661C28.9307 15.5333 28.8164 15.3196 28.6487 15.1517L17.8484 4.35184C17.7371 4.2403 17.6048 4.15182 17.4592 4.09145C17.3137 4.03107 17.1576 4 17 4C16.8424 4 16.6863 4.03107 16.5408 4.09145C16.3952 4.15182 16.2629 4.2403 16.1516 4.35184L5.35135 15.1517C5.18358 15.3196 5.06933 15.5333 5.02304 15.7661C4.97676 15.9988 5.00053 16.2401 5.09133 16.4593C5.18214 16.6785 5.33591 16.8659 5.53321 16.9978C5.7305 17.1297 5.96246 17.2001 6.19977 17.2001ZM14.5999 25.6V19.6001H19.4001V25.6H14.5999ZM17 6.89701L24.2002 14.0969V19.6001L24.2014 25.6H21.8001V19.6001C21.8001 18.2765 20.7237 17.2001 19.4001 17.2001H14.5999C13.2763 17.2001 12.1999 18.2765 12.1999 19.6001V25.6H9.79985V14.0969L17 6.89701Z"/>
</svg>
