<svg width="17" height="17" viewBox="0 0 17 17" fill="none" xmlns="http://www.w3.org/2000/svg">
<path d="M8.5 0C9.93064 0 11.0986 0.0167653 12.0039 0.0502959C12.7751 0.0838264 13.4625 0.217949 14.0661 0.452663C14.6473 0.6762 15.1502 1.00033 15.575 1.42505C15.9997 1.84977 16.3238 2.35273 16.5473 2.93392C16.7821 3.53748 16.9162 4.22485 16.9497 4.99606C16.9832 5.90138 17 7.06936 17 8.5C17 9.93064 16.9832 11.0986 16.9497 12.0039C16.9162 12.7751 16.7821 13.4625 16.5473 14.0661C16.3238 14.6473 15.9997 15.1502 15.575 15.575C15.1502 15.9997 14.6473 16.3238 14.0661 16.5473C13.4625 16.7821 12.7751 16.9162 12.0039 16.9497C11.0986 16.9832 9.93064 17 8.5 17C7.06936 17 5.90138 16.9832 4.99606 16.9497C4.22485 16.9162 3.53748 16.7821 2.93392 16.5473C2.35273 16.3238 1.84977 15.9997 1.42505 15.575C1.00033 15.1502 0.6762 14.6473 0.452663 14.0661C0.217949 13.4625 0.0838264 12.7751 0.0502959 12.0039C0.0167653 11.0986 0 9.93064 0 8.5C0 7.06936 0.0167653 5.90138 0.0502959 4.99606C0.0838264 4.22485 0.217949 3.53748 0.452663 2.93392C0.6762 2.35273 1.00033 1.84977 1.42505 1.42505C1.84977 1.00033 2.35273 0.6762 2.93392 0.452663C3.53748 0.217949 4.22485 0.0838264 4.99606 0.0502959C5.90138 0.0167653 7.06936 0 8.5 0ZM8.5 1.10651C7.01348 1.10651 5.80079 1.12327 4.86193 1.1568C4.25838 1.17916 3.69954 1.28534 3.1854 1.47535C2.38067 1.81065 1.81065 2.38067 1.47535 3.1854C1.28534 3.69954 1.17916 4.25838 1.1568 4.86193C1.12327 5.80079 1.10651 7.01348 1.10651 8.5C1.10651 9.98652 1.12327 11.1992 1.1568 12.1381C1.17916 12.7416 1.28534 13.3005 1.47535 13.8146C1.81065 14.6193 2.38067 15.1893 3.1854 15.5247C3.69954 15.7147 4.25838 15.8208 4.86193 15.8432C5.80079 15.8767 7.01348 15.8935 8.5 15.8935C9.98652 15.8935 11.1992 15.8767 12.1381 15.8432C12.7416 15.8208 13.3005 15.7147 13.8146 15.5247C14.6193 15.1893 15.1893 14.6193 15.5247 13.8146C15.7147 13.3005 15.8208 12.7416 15.8432 12.1381C15.8767 11.1992 15.8935 9.98652 15.8935 8.5C15.8935 7.01348 15.8767 5.80079 15.8432 4.86193C15.8208 4.25838 15.7147 3.69954 15.5247 3.1854C15.1893 2.38067 14.6193 1.81065 13.8146 1.47535C13.3005 1.28534 12.7416 1.17916 12.1381 1.1568C11.1992 1.12327 9.98652 1.10651 8.5 1.10651ZM8.5 11.9034C9.43886 11.9034 10.2408 11.5708 10.9058 10.9058C11.5708 10.2408 11.9034 9.43886 11.9034 8.5C11.9034 7.56114 11.5708 6.7592 10.9058 6.09418C10.2408 5.42916 9.43886 5.09665 8.5 5.09665C7.56114 5.09665 6.7592 5.42916 6.09418 6.09418C5.42916 6.7592 5.09665 7.56114 5.09665 8.5C5.09665 9.43886 5.42916 10.2408 6.09418 10.9058C6.7592 11.5708 7.56114 11.9034 8.5 11.9034ZM8.5 4.14103C9.7071 4.14103 10.7354 4.56575 11.5848 5.41519C12.4343 6.26463 12.859 7.2929 12.859 8.5C12.859 9.7071 12.4343 10.7354 11.5848 11.5848C10.7354 12.4343 9.7071 12.859 8.5 12.859C7.2929 12.859 6.26463 12.4343 5.41519 11.5848C4.56575 10.7354 4.14103 9.7071 4.14103 8.5C4.14103 7.2929 4.56575 6.26463 5.41519 5.41519C6.26463 4.56575 7.2929 4.14103 8.5 4.14103ZM14.0661 3.97337C14.0661 4.25279 13.9655 4.4903 13.7643 4.6859C13.5631 4.88149 13.3172 4.97929 13.0266 4.97929C12.7472 4.97929 12.5097 4.88149 12.3141 4.6859C12.1185 4.4903 12.0207 4.25279 12.0207 3.97337C12.0207 3.68277 12.1185 3.43688 12.3141 3.2357C12.5097 3.03452 12.7472 2.93392 13.0266 2.93392C13.306 2.93392 13.5491 3.03731 13.7559 3.24408C13.9627 3.45085 14.0661 3.69395 14.0661 3.97337Z" fill="#C8C8C8"/>
</svg>
