<svg width="34" height="34" viewBox="0 0 34 34" fill="none" xmlns="http://www.w3.org/2000/svg">
<path fill-rule="evenodd" clip-rule="evenodd" d="M2 17.5C2 8.9409 8.9409 2 17.5 2C26.0591 2 33 8.9409 33 17.5C33 26.0591 26.0591 33 17.5 33C8.9409 33 2 26.0591 2 17.5ZM25.933 23.33C26.153 22.7638 26.3037 22.1169 26.3467 21.1695C26.3902 20.2204 26.4004 19.9171 26.4004 17.5C26.4004 15.0829 26.3902 14.7796 26.3469 13.8305C26.3037 12.8831 26.1532 12.2362 25.933 11.67C25.7098 11.0761 25.3593 10.5383 24.9066 10.0937C24.4619 9.64073 23.9239 9.29022 23.33 9.06672C22.7638 8.847 22.1169 8.69658 21.1695 8.65353C20.2204 8.61002 19.9171 8.59961 17.5 8.59961C15.0829 8.59961 14.7796 8.61002 13.8305 8.6533C12.8831 8.69658 12.2362 8.847 11.67 9.06696C11.0761 9.29046 10.5381 9.64073 10.0937 10.0937C9.64073 10.5381 9.29022 11.0761 9.06672 11.67C8.84676 12.2362 8.69634 12.8831 8.6533 13.8305C8.60978 14.7796 8.59961 15.0829 8.59961 17.5C8.59961 19.9171 8.60978 20.2204 8.65353 21.1697C8.69658 22.1169 8.84724 22.764 9.06719 23.33C9.2907 23.9239 9.64097 24.4619 10.0937 24.9063C10.5383 25.3593 11.0761 25.7095 11.6702 25.933C12.2362 26.153 12.8833 26.3034 13.8305 26.3467C14.7799 26.39 15.0829 26.4004 17.5002 26.4004C19.9174 26.4004 20.2206 26.39 21.1697 26.3467C22.1169 26.3034 22.764 26.153 23.33 25.933C24.5256 25.4707 25.4707 24.5256 25.933 23.33ZM24.4384 12.2507C24.2958 11.8643 24.0683 11.5145 23.7726 11.2274C23.4855 10.9317 23.1359 10.7042 22.7492 10.5616C22.4356 10.4398 21.9645 10.2948 21.0967 10.2553C20.158 10.2125 19.8766 10.2033 17.5001 10.2033C15.1234 10.2033 14.842 10.2122 13.9035 10.2551C13.0357 10.2948 12.5644 10.4398 12.251 10.5616C11.8643 10.7042 11.5145 10.9317 11.2276 11.2274C10.932 11.5145 10.7044 11.864 10.5616 12.2507C10.4398 12.5644 10.2948 13.0357 10.2553 13.9035C10.2125 14.842 10.2033 15.1234 10.2033 17.5001C10.2033 19.8766 10.2125 20.158 10.2553 21.0967C10.2948 21.9645 10.4398 22.4356 10.5616 22.7492C10.7044 23.1359 10.9317 23.4855 11.2274 23.7726C11.5145 24.0683 11.864 24.2958 12.2507 24.4384C12.5644 24.5604 13.0357 24.7054 13.9035 24.7449C14.842 24.7877 15.1232 24.7967 17.4999 24.7967C19.8768 24.7967 20.1583 24.7877 21.0965 24.7449C21.9643 24.7054 22.4356 24.5604 22.7492 24.4384C23.5255 24.139 24.139 23.5255 24.4384 22.7492C24.5602 22.4356 24.7052 21.9645 24.7449 21.0967C24.7877 20.158 24.7967 19.8766 24.7967 17.5001C24.7967 15.1234 24.7877 14.842 24.7449 13.9035C24.7054 13.0357 24.5604 12.5644 24.4384 12.2507ZM17.5001 22.0702C14.9758 22.0702 12.9295 20.0242 12.9295 17.4999C12.9295 14.9756 14.9758 12.9295 17.5001 12.9295C20.0242 12.9295 22.0704 14.9756 22.0704 17.4999C22.0704 20.0242 20.0242 22.0702 17.5001 22.0702ZM22.2511 13.8169C21.6613 13.8169 21.1831 13.3387 21.1831 12.7488C21.1831 12.159 21.6613 11.6807 22.2511 11.6807C22.841 11.6807 23.3192 12.159 23.3192 12.7488C23.319 13.3387 22.841 13.8169 22.2511 13.8169ZM20.4668 17.5C20.4668 19.1385 19.1385 20.4668 17.5 20.4668C15.8615 20.4668 14.5332 19.1385 14.5332 17.5C14.5332 15.8615 15.8615 14.5332 17.5 14.5332C19.1385 14.5332 20.4668 15.8615 20.4668 17.5Z" fill="#C8C8C8"/>
</svg>
