<svg width="24" height="24" viewBox="0 0 24 24" fill="none" xmlns="http://www.w3.org/2000/svg">
<path d="M1.52543 17.7602C10.3857 20.985 19.6874 17.1933 22.8186 8.59056C22.9783 8.15166 23.4122 6.59206 23.4009 6.623C23.4547 6.64739 22.6472 6.23155 21.1258 5.79493C11.2365 3.17979 3.5345 8.05156 0.828444 16.4173L0.565178 17.4107C0.796898 17.5063 1.28756 17.6736 1.52543 17.7602Z" fill="#0CD725" fill-opacity="0.5"/>
<path d="M1.12718 19.9953C10.5561 19.9953 18 13.2509 18 4.096C18 3.62894 17.8743 2.015 17.8743 2.04792C17.9332 2.05244 17.0322 1.93787 15.4532 2.04793C5.26579 2.97285 -0.305436 10.185 0.0129326 18.9718L0.105311 19.9953C0.355755 20.0059 0.874054 19.9953 1.12718 19.9953Z" fill="#0CD725"/>
</svg>
