<svg width="34" height="29" viewBox="0 0 34 29" fill="none" xmlns="http://www.w3.org/2000/svg">
<path fill-rule="evenodd" clip-rule="evenodd" d="M5.79727 27.5102C16.5367 31.5704 28.5787 26.0525 32.6937 15.1855C33.407 13.302 33.8352 11.3815 34 9.47228C32.8553 8.75265 31.6228 8.13621 30.3101 7.63992C19.5706 3.57968 7.52868 9.09766 3.4136 19.9647C2.70039 21.8481 2.2721 23.7686 2.1073 25.6778C3.25205 26.3975 4.48455 27.0139 5.79727 27.5102Z" fill="white" fill-opacity="0.5"/>
<path fill-rule="evenodd" clip-rule="evenodd" d="M5.83091 28.2062C17.4715 28.2062 26.8508 18.671 26.7801 6.90875C26.7679 4.87017 26.4726 2.89849 25.9321 1.03175C24.5866 0.760149 23.1958 0.617676 21.7729 0.617676C10.1322 0.617676 0.752936 10.1529 0.823639 21.9151C0.835893 23.9537 1.13121 25.9254 1.67169 27.7921C3.01716 28.0637 4.408 28.2062 5.83091 28.2062Z" fill="#0CD725"/>
</svg>
