<svg width="88" height="77" viewBox="0 0 88 77" fill="none" xmlns="http://www.w3.org/2000/svg">
<path fill-rule="evenodd" clip-rule="evenodd" d="M15.2875 71.7983C43.6669 79.4434 72.9578 62.3603 80.7105 33.6422C82.0542 28.6649 82.6627 23.6648 82.6028 18.7594C79.5057 17.2138 76.211 15.9531 72.7421 15.0186C44.3627 7.37348 15.0718 24.4565 7.31902 53.1747C5.97534 58.152 5.36682 63.1521 5.42673 68.0574C8.52386 69.6031 11.8186 70.8638 15.2875 71.7983Z" fill="white" fill-opacity="0.2"/>
<path opacity="0.8" fill-rule="evenodd" clip-rule="evenodd" d="M14.8382 70.6239C44.6371 70.6239 68.6471 46.2148 68.4661 16.1046C68.4348 10.886 67.6788 5.83866 66.2952 1.05998C62.8509 0.364718 59.2905 0 55.648 0C25.8491 0 1.83907 24.4091 2.02006 54.5194C2.05143 59.7379 2.8074 64.7852 4.19099 69.5639C7.63527 70.2592 11.1957 70.6239 14.8382 70.6239Z" fill="#0CD725"/>
</svg>
