<svg width="22" height="19" viewBox="0 0 22 19" fill="none" xmlns="http://www.w3.org/2000/svg">
<path fill-rule="evenodd" clip-rule="evenodd" d="M3.23054 17.4657C10.2056 20.1028 18.0266 16.519 20.6992 9.46108C21.1624 8.23784 21.4406 6.99052 21.5476 5.75049C20.8041 5.28311 20.0037 4.88275 19.1511 4.56042C12.176 1.92338 4.35505 5.50719 1.6824 12.5651C1.21918 13.7883 0.941017 15.0356 0.833984 16.2757C1.57748 16.743 2.37796 17.1434 3.23054 17.4657Z" fill="#303864" fill-opacity="0.2"/>
<path fill-rule="evenodd" clip-rule="evenodd" d="M3.25237 17.9181C10.8127 17.9181 16.9044 11.7252 16.8584 4.08592C16.8505 2.7619 16.6587 1.48134 16.3076 0.26893C15.4338 0.0925334 14.5305 0 13.6063 0C6.04598 0 -0.0456625 6.1929 0.000257923 13.8322C0.00821665 15.1562 0.200015 16.4368 0.55105 17.6492C1.4249 17.8256 2.32822 17.9181 3.25237 17.9181Z" fill="#0CD725"/>
</svg>
