<svg width="27" height="21" viewBox="0 0 27 21" fill="none" xmlns="http://www.w3.org/2000/svg">
<path d="M17.7739 19.1253C17.7739 17.3309 24.6881 4.69467 26.8371 2.26857C27.1882 1.87314 26.9067 1.23984 26.6035 0.896399C26.1362 0.341861 24.9914 0 24.3848 0C24.1976 0 23.7304 0.712078 23.0774 1.84636C21.2317 3.95739 17.2602 8.83796 15.812 10.6308C16.2561 8.94193 17.5635 5.64464 17.5635 4.64269C17.5635 2.63721 15.9746 1.45094 14.1999 1.45094C12.0974 1.45094 7.14495 5.19722 7.14495 7.70368C7.14495 8.49452 7.72827 9.23338 8.45379 9.23338C8.89781 9.23338 8.15052 8.88995 8.15052 8.15109C8.15052 6.88447 12.9622 3.90383 14.1999 3.95739C13.219 6.96482 5.91011 17.7027 2.50015 17.7027C1.14488 17.7027 0.44402 17.4648 0.163968 17.4648C0.0478845 17.4648 0 17.4916 0 17.5972C0 18.837 1.7993 20.4203 4.27478 20.4203C7.82549 20.4203 11.3965 13.4539 13.9663 7.96677C13.5223 10.3677 12.8679 12.3464 13.219 12.7418C13.7095 13.2963 14.6207 13.5862 15.0648 13.5862C15.4145 13.5862 18.0307 10.0242 20.3204 6.83248C17.961 11.502 15.368 17.2521 15.368 19.3112C15.368 20.499 16.2561 21 16.9569 21C17.7274 21 18.3818 20.2611 18.3818 19.9713C18.3804 19.653 17.7739 19.9681 17.7739 19.1253Z" fill="white"/>
</svg>
