<svg width="34" height="34" viewBox="0 0 34 34" fill="none" xmlns="http://www.w3.org/2000/svg">
<path opacity="0.5" d="M22.6788 27.2014C20.5055 27.2017 18.381 26.5576 16.5739 25.3505C14.7667 24.1434 13.3581 22.4275 12.5261 20.4198C11.6942 18.4121 11.4762 16.2029 11.8999 14.0713C12.3236 11.9398 13.3698 9.98175 14.9063 8.44482C16.4427 6.90789 18.4005 5.86109 20.5319 5.4368C22.6633 5.01251 24.8726 5.22978 26.8806 6.06114C28.8885 6.8925 30.6048 8.3006 31.8124 10.1074C33.0201 11.9142 33.6648 14.0385 33.6652 16.2117V16.2134C33.6621 19.1264 32.5037 21.9192 30.4441 23.9792C28.3844 26.0391 25.5918 27.198 22.6788 27.2014Z" fill="#C8C8C8"/>
<path d="M11.988 27.2014C9.81481 27.2014 7.69039 26.557 5.88342 25.3496C4.07644 24.1422 2.66808 22.4261 1.83642 20.4183C1.00476 18.4105 0.787161 16.2012 1.21114 14.0697C1.63511 11.9383 2.68162 9.98037 4.21833 8.44367C5.75503 6.90696 7.71291 5.86045 9.84438 5.43648C11.9759 5.0125 14.1852 5.2301 16.193 6.06176C18.2008 6.89342 19.9169 8.30178 21.1243 10.1088C22.3316 11.9157 22.9761 14.0402 22.9761 16.2134C22.9731 19.1267 21.8144 21.9197 19.7544 23.9797C17.6944 26.0397 14.9013 27.1984 11.988 27.2014Z" fill="#C8C8C8"/>
</svg>
