<svg width="34" height="34" viewBox="0 0 34 34" xmlns="http://www.w3.org/2000/svg">
<path fill-rule="evenodd" clip-rule="evenodd" d="M16.441 4.88197C16.7929 4.70601 17.2071 4.70601 17.559 4.88197L28.559 10.382C28.9825 10.5937 29.25 11.0265 29.25 11.5C29.25 11.9735 28.9825 12.4063 28.559 12.618L17.559 18.118C17.2071 18.294 16.7929 18.294 16.441 18.118L5.44098 12.618C5.0175 12.4063 4.75 11.9735 4.75 11.5C4.75 11.0265 5.0175 10.5937 5.44098 10.382L16.441 4.88197ZM8.79508 11.5L17 15.6025L25.2049 11.5L17 7.39754L8.79508 11.5Z"/>
<path fill-rule="evenodd" clip-rule="evenodd" d="M4.86198 21.4828C5.14765 20.8543 5.88872 20.5764 6.51719 20.8621L16.9999 25.627L27.4827 20.8621C28.1112 20.5764 28.8522 20.8543 29.1379 21.4828C29.4236 22.1113 29.1457 22.8523 28.5172 23.138L17.5172 28.138C17.1885 28.2874 16.8113 28.2874 16.4827 28.138L5.48269 23.138C4.85421 22.8523 4.57631 22.1113 4.86198 21.4828Z"/>
<path fill-rule="evenodd" clip-rule="evenodd" d="M4.86198 16.4828C5.14765 15.8543 5.88872 15.5764 6.51719 15.8621L16.9999 20.627L27.4827 15.8621C28.1112 15.5764 28.8522 15.8543 29.1379 16.4828C29.4236 17.1113 29.1457 17.8523 28.5172 18.138L17.5172 23.138C17.1885 23.2874 16.8113 23.2874 16.4827 23.138L5.48269 18.138C4.85421 17.8523 4.57631 17.1113 4.86198 16.4828Z"/>
</svg>
