<svg fill="none" height="26" viewBox="0 0 92 26" width="92" xmlns="http://www.w3.org/2000/svg"><g clip-rule="evenodd" fill-rule="evenodd"><path d="m9.36431.351723c.80979-.004845 3.21639-.221594 4.23569 3.218817.6867 2.3175 1.7805 6.11367 3.2815 11.38856h.6113c1.6096-5.56115 2.7154-9.35733 3.3172-11.38856 1.03-3.4762491 3.605-3.218749 4.635-3.218749l7.9467.00001v24.719899h-8.0994v-14.5678h-.5432l-4.515 14.5678h-6.0939l-4.51504-14.5786h-.54313v14.5786h-8.099486v-24.719899zm35.65809.000078v14.578699h.6462l5.4921-11.98796c1.0662-2.385639 3.3384-2.590739 3.3384-2.590739h7.8379v24.719999h-8.2686v-14.5787h-.6462l-5.3845 11.9879c-1.0661 2.3749-3.446 2.5908-3.446 2.5908h-7.8379v-24.719999zm45.8947 11.747099c-1.1534 3.2684-4.7755 5.6092-8.7856 5.6092h-8.6713v7.3637h-7.863v-12.9729z" fill="#c8c8c8"/><path d="m82.5107.351791h-17.3259c.4124 5.503509 5.1518 10.214909 10.0582 10.214909h16.2205c.936-4.5741-2.2863-10.214909-8.9528-10.214909z" fill="#7c8096"/></g></svg>