<svg width="24" height="24" viewBox="0 0 24 24" fill="none" xmlns="http://www.w3.org/2000/svg">
<path d="M20.25 19.5625L20.25 1.6875L6.5 1.6875L6.5 19.5625L20.25 19.5625ZM7.875 18.1875L7.875 3.0625L18.875 3.0625L18.875 18.1875L7.875 18.1875Z" fill="#303864"/>
<path d="M16.8125 20.9375L5.125 20.9375L5.125 5.125L3.75 5.125L3.75 22.3125L16.8125 22.3125L16.8125 20.9375Z" fill="#303864"/>
<path d="M10.0037 10.625C10.0037 12.3309 11.5135 13.7188 13.3693 13.7188C15.2251 13.7188 16.7349 12.3309 16.7349 10.625C16.7349 8.91914 15.2251 7.53125 13.3693 7.53125C11.5135 7.53125 10.0037 8.91914 10.0037 10.625ZM15.3599 10.625C15.3599 11.5727 14.4669 12.3438 13.3693 12.3438C12.2717 12.3438 11.3787 11.5727 11.3787 10.625C11.3787 9.67728 12.2717 8.90625 13.3693 8.90625C14.4669 8.90625 15.3599 9.67728 15.3599 10.625Z" fill="#303864"/>
<path d="M17.1562 4.4375L17.1562 5.8125L9.59375 5.8125L9.59375 4.4375L17.1562 4.4375Z" fill="#303864"/>
<path d="M17.1562 15.4375L17.1562 16.8125L9.59375 16.8125L9.59375 15.4375L17.1562 15.4375Z" fill="#303864"/>
</svg>
