<svg width="24" height="24" viewBox="0 0 24 24" fill="none" xmlns="http://www.w3.org/2000/svg">
<path d="M8.5 10.7559C9.12132 10.7559 9.625 10.2522 9.625 9.63086C9.625 9.00954 9.12132 8.50586 8.5 8.50586C7.87868 8.50586 7.375 9.00954 7.375 9.63086C7.375 10.2522 7.87868 10.7559 8.5 10.7559Z" fill="#303864"/>
<path d="M11.875 9.06836C12.4963 9.06836 13 8.56468 13 7.94336C13 7.32204 12.4963 6.81836 11.875 6.81836C11.2537 6.81836 10.75 7.32204 10.75 7.94336C10.75 8.56468 11.2537 9.06836 11.875 9.06836Z" fill="#303864"/>
<path d="M15.25 10.7559C15.8713 10.7559 16.375 10.2522 16.375 9.63086C16.375 9.00954 15.8713 8.50586 15.25 8.50586C14.6287 8.50586 14.125 9.00954 14.125 9.63086C14.125 10.2522 14.6287 10.7559 15.25 10.7559Z" fill="#303864"/>
<path d="M15.8125 14.1309C16.4338 14.1309 16.9375 13.6272 16.9375 13.0059C16.9375 12.3845 16.4338 11.8809 15.8125 11.8809C15.1912 11.8809 14.6875 12.3845 14.6875 13.0059C14.6875 13.6272 15.1912 14.1309 15.8125 14.1309Z" fill="#303864"/>
<path d="M13.5625 16.9434C14.1838 16.9434 14.6875 16.4397 14.6875 15.8184C14.6875 15.197 14.1838 14.6934 13.5625 14.6934C12.9412 14.6934 12.4375 15.197 12.4375 15.8184C12.4375 16.4397 12.9412 16.9434 13.5625 16.9434Z" fill="#303864"/>
<path d="M12.1788 4.00586C11.1193 3.96497 10.0625 4.13842 9.07176 4.51583C8.08098 4.89323 7.17661 5.46681 6.41287 6.20219C5.64913 6.93756 5.04175 7.81959 4.62713 8.79538C4.21252 9.77117 3.99921 10.8206 4 11.8809C3.99997 12.2979 4.09613 12.7092 4.281 13.083C4.46586 13.4568 4.73445 13.7829 5.06588 14.0359C5.39731 14.289 5.78264 14.4622 6.19191 14.5421C6.60119 14.622 7.02337 14.6064 7.42563 14.4965L8.05563 14.3221C8.30625 14.2537 8.56928 14.2441 8.82422 14.294C9.07917 14.3439 9.31915 14.452 9.52547 14.6099C9.73179 14.7677 9.89887 14.9711 10.0137 15.2041C10.1285 15.4372 10.188 15.6936 10.1875 15.9534V18.0684C10.1875 18.5159 10.3653 18.9451 10.6818 19.2616C10.9982 19.5781 11.4274 19.7559 11.875 19.7559C12.9352 19.7566 13.9847 19.5433 14.9605 19.1287C15.9363 18.7141 16.8183 18.1067 17.5537 17.343C18.289 16.5793 18.8626 15.6749 19.24 14.6841C19.6174 13.6933 19.7909 12.6365 19.75 11.5771C19.6684 9.59524 18.8445 7.71652 17.4419 6.31394C16.0393 4.91136 14.1606 4.08748 12.1788 4.00586ZM16.7406 16.5552C16.1126 17.2128 15.3574 17.7359 14.521 18.0927C13.6845 18.4495 12.7843 18.6326 11.875 18.6309C11.7258 18.6309 11.5827 18.5716 11.4773 18.4661C11.3718 18.3606 11.3125 18.2175 11.3125 18.0684V15.9534C11.3125 15.2074 11.0162 14.4921 10.4887 13.9646C9.96129 13.4372 9.24592 13.1409 8.5 13.1409C8.24724 13.1413 7.99566 13.1754 7.75188 13.2421L7.12188 13.4165C6.88657 13.4795 6.6399 13.4876 6.401 13.4399C6.1621 13.3923 5.93738 13.2902 5.74427 13.1417C5.55116 12.9932 5.39484 12.8022 5.28745 12.5836C5.18006 12.3649 5.12447 12.1245 5.125 11.8809C5.1243 10.9717 5.30726 10.0719 5.66289 9.23519C6.01852 8.39852 6.5395 7.64231 7.19457 7.01193C7.84964 6.38155 8.62529 5.89 9.475 5.56676C10.3247 5.24352 11.231 5.09525 12.1394 5.13086C13.8309 5.21896 15.4299 5.93055 16.6276 7.12827C17.8253 8.326 18.5369 9.92494 18.625 11.6165C18.6637 12.5255 18.5166 13.4328 18.1926 14.2829C17.8686 15.1331 17.3745 15.9082 16.7406 16.5609V16.5552Z" fill="#303864"/>
</svg>
