<svg width="58" height="58" viewBox="0 0 58 58" fill="none" xmlns="http://www.w3.org/2000/svg">
<path fill-rule="evenodd" clip-rule="evenodd" d="M57.9999 29C57.9999 36.6913 54.9446 44.0675 49.506 49.5061C44.0675 54.9447 36.6912 58 28.9999 58C21.3087 58 13.9324 54.9447 8.49384 49.5061C3.05529 44.0675 -6.10352e-05 36.6913 -6.10352e-05 29C-6.10352e-05 21.3087 3.05529 13.9325 8.49384 8.4939C13.9324 3.05535 21.3087 0 28.9999 0C36.6912 0 44.0675 3.05535 49.506 8.4939C54.9446 13.9325 57.9999 21.3087 57.9999 29ZM43.6087 18.0162C43.3498 17.7582 43.0414 17.5551 42.7022 17.4189C42.3629 17.2828 41.9997 17.2164 41.6342 17.2239C41.2688 17.2313 40.9085 17.3124 40.5751 17.4622C40.2417 17.6121 39.9419 17.8276 39.6937 18.096L27.1041 34.1366L19.5169 26.5459C19.0016 26.0656 18.3199 25.8042 17.6155 25.8166C16.9112 25.829 16.2392 26.1144 15.7411 26.6125C15.2429 27.1106 14.9576 27.7826 14.9452 28.487C14.9328 29.1913 15.1942 29.873 15.6744 30.3884L25.2662 39.9837C25.5246 40.2417 25.8323 40.4449 26.1709 40.5813C26.5096 40.7178 26.8722 40.7846 27.2373 40.7778C27.6023 40.7711 27.9622 40.6909 28.2956 40.542C28.6289 40.3931 28.9289 40.1786 29.1776 39.9113L43.6486 21.8225C44.1419 21.3096 44.4144 20.6236 44.4077 19.912C44.4009 19.2003 44.1153 18.5197 43.6123 18.0162H43.6087Z" fill="#0CD725"/>
</svg>
