<svg width="58" height="58" viewBox="0 0 58 58" fill="none" xmlns="http://www.w3.org/2000/svg">
<path d="M58 29C58 36.6913 54.9447 44.0675 49.5061 49.5061C44.0675 54.9447 36.6913 58 29 58C21.3087 58 13.9325 54.9447 8.4939 49.5061C3.05535 44.0675 0 36.6913 0 29C0 21.3087 3.05535 13.9325 8.4939 8.4939C13.9325 3.05535 21.3087 0 29 0C36.6913 0 44.0675 3.05535 49.5061 8.4939C54.9447 13.9325 58 21.3087 58 29ZM19.4083 16.8417C19.0679 16.5014 18.6063 16.3102 18.125 16.3102C17.6437 16.3102 17.1821 16.5014 16.8417 16.8417C16.5014 17.1821 16.3102 17.6437 16.3102 18.125C16.3102 18.6063 16.5014 19.0679 16.8417 19.4083L26.4371 29L16.8417 38.5918C16.6732 38.7603 16.5396 38.9603 16.4484 39.1805C16.3572 39.4007 16.3102 39.6367 16.3102 39.875C16.3102 40.1133 16.3572 40.3493 16.4484 40.5695C16.5396 40.7897 16.6732 40.9897 16.8417 41.1582C17.1821 41.4986 17.6437 41.6898 18.125 41.6898C18.3633 41.6898 18.5993 41.6428 18.8195 41.5516C19.0397 41.4604 19.2397 41.3268 19.4083 41.1582L29 31.5629L38.5918 41.1582C38.7603 41.3268 38.9603 41.4604 39.1805 41.5516C39.4007 41.6428 39.6367 41.6898 39.875 41.6898C40.1133 41.6898 40.3493 41.6428 40.5695 41.5516C40.7897 41.4604 40.9897 41.3268 41.1582 41.1582C41.3268 40.9897 41.4604 40.7897 41.5516 40.5695C41.6428 40.3493 41.6898 40.1133 41.6898 39.875C41.6898 39.6367 41.6428 39.4007 41.5516 39.1805C41.4604 38.9603 41.3268 38.7603 41.1582 38.5918L31.5629 29L41.1582 19.4083C41.3268 19.2397 41.4604 19.0397 41.5516 18.8195C41.6428 18.5993 41.6898 18.3633 41.6898 18.125C41.6898 17.8867 41.6428 17.6507 41.5516 17.4305C41.4604 17.2103 41.3268 17.0103 41.1582 16.8417C40.9897 16.6732 40.7897 16.5396 40.5695 16.4484C40.3493 16.3572 40.1133 16.3102 39.875 16.3102C39.6367 16.3102 39.4007 16.3572 39.1805 16.4484C38.9603 16.5396 38.7603 16.6732 38.5918 16.8417L29 26.4371L19.4083 16.8417Z" fill="#E8505B"/>
</svg>
