<svg width="34" height="34" viewBox="0 0 34 34" xmlns="http://www.w3.org/2000/svg">
<path d="M10.7545 5.4973C10.0633 5.4973 9.50297 6.05634 9.50297 6.74596V26.7244C9.50297 27.414 10.0633 27.973 10.7545 27.973H23.2693C23.9605 27.973 24.5208 27.414 24.5208 26.7244V6.74596C24.5208 6.05634 23.9605 5.4973 23.2693 5.4973H10.7545ZM7 6.74596C7 4.67712 8.68093 3 10.7545 3H23.2693C25.3429 3 27.0238 4.67712 27.0238 6.74596V26.7244C27.0238 28.7932 25.3429 30.4703 23.2693 30.4703H10.7545C8.68093 30.4703 7 28.7932 7 26.7244V6.74596Z"/>
<path d="M15.7604 24.2272C15.7604 23.5376 16.3207 22.9785 17.0119 22.9785H17.0244C17.7156 22.9785 18.2759 23.5376 18.2759 24.2272C18.2759 24.9168 17.7156 25.4758 17.0244 25.4758H17.0119C16.3207 25.4758 15.7604 24.9168 15.7604 24.2272Z"/>
</svg>
