<svg width="15" height="14" viewBox="0 0 15 14" xmlns="http://www.w3.org/2000/svg">
<path d="M13.7334 6.16154L2.26671 0.428208C2.11201 0.356538 1.94185 0.324697 1.77171 0.335582C1.60157 0.346467 1.43686 0.399734 1.29256 0.490533C1.14827 0.581332 1.02897 0.70678 0.945535 0.855457C0.862101 1.00413 0.817177 1.17132 0.814854 1.34179V12.8035C0.813409 12.9785 0.85713 13.1509 0.941792 13.3041C1.02645 13.4572 1.14919 13.5859 1.29814 13.6778C1.44709 13.7697 1.61722 13.8215 1.79208 13.8284C1.96694 13.8353 2.14062 13.797 2.29634 13.7171L13.7334 7.98376C13.9028 7.89872 14.0452 7.76824 14.1448 7.60691C14.2443 7.44558 14.297 7.25975 14.297 7.07018C14.297 6.88062 14.2443 6.69479 14.1448 6.53346C14.0452 6.37212 13.9028 6.24165 13.7334 6.1566V6.16154Z"/>
</svg>
