<svg width="18" height="18" viewBox="0 0 18 18" fill="none" xmlns="http://www.w3.org/2000/svg">
<path d="M17.3077 8.30769H9.69252V0.692308C9.69252 0.508696 9.61958 0.332605 9.48975 0.202772C9.35992 0.0729395 9.18383 0 9.00023 0C8.81662 0 8.64053 0.0729395 8.5107 0.202772C8.38087 0.332605 8.30794 0.508696 8.30794 0.692308V8.30769H0.692744C0.509137 8.30769 0.333051 8.38063 0.203221 8.51046C0.0733913 8.6403 0.000453645 8.81639 0.000453645 9C-0.00296255 9.08998 0.0129473 9.17964 0.0471107 9.26295C0.0812741 9.34625 0.132897 9.42127 0.198502 9.48294C0.264106 9.54461 0.342167 9.5915 0.427424 9.62045C0.512681 9.6494 0.603154 9.65974 0.692744 9.65077H8.30794V17.3077C8.30794 17.4913 8.38087 17.6674 8.5107 17.7972C8.64053 17.9271 8.81662 18 9.00023 18C9.18383 18 9.35992 17.9271 9.48975 17.7972C9.61958 17.6674 9.69252 17.4913 9.69252 17.3077V9.69231H17.3077C17.4913 9.69231 17.6674 9.61937 17.7972 9.48954C17.9271 9.3597 18 9.18361 18 9C18 8.81639 17.9271 8.6403 17.7972 8.51046C17.6674 8.38063 17.4913 8.30769 17.3077 8.30769Z" fill="#C8C8C8"/>
</svg>
