<svg width="48" height="48" viewBox="0 0 48 48" fill="none" xmlns="http://www.w3.org/2000/svg">
<ellipse cx="25.2397" cy="23.9161" rx="17.0789" ry="17.0789" fill="white"/>
<path d="M24.7059 4.23529C14.1323 4.23529 5.55884 12.8087 5.55884 23.3823C5.55884 33.956 14.1323 42.5294 24.7059 42.5294C35.2795 42.5294 43.853 33.956 43.853 23.3823C43.853 12.8087 35.2795 4.23529 24.7059 4.23529ZM24.7059 39.2812C15.9273 39.2812 8.807 32.1609 8.807 23.3823C8.807 14.6038 15.9273 7.48345 24.7059 7.48345C33.4845 7.48345 40.6048 14.6038 40.6048 23.3823C40.6048 32.1609 33.4845 39.2812 24.7059 39.2812Z" fill="#0CD725"/>
<path d="M29.4756 15.0354C28.1934 13.9114 26.5009 13.296 24.7059 13.296C22.9109 13.296 21.2184 13.9157 19.9362 15.0354C18.6028 16.2022 17.8677 17.7707 17.8677 19.4504V19.7752C17.8677 19.9632 18.0215 20.1171 18.2096 20.1171H20.2611C20.4491 20.1171 20.603 19.9632 20.603 19.7752V19.4504C20.603 17.5656 22.445 16.0313 24.7059 16.0313C26.9668 16.0313 28.8089 17.5656 28.8089 19.4504C28.8089 20.7796 27.8686 21.9976 26.4112 22.5575C25.5051 22.9037 24.7358 23.5106 24.1845 24.3055C23.6246 25.1176 23.334 26.092 23.334 27.0793V27.9982C23.334 28.1862 23.4879 28.3401 23.6759 28.3401H25.7274C25.9154 28.3401 26.0693 28.1862 26.0693 27.9982V27.028C26.0715 26.6131 26.1987 26.2085 26.4343 25.8669C26.6698 25.5254 27.0029 25.2627 27.3899 25.1133C29.9115 24.1431 31.5399 21.9207 31.5399 19.4504C31.5441 17.7707 30.809 16.2022 29.4756 15.0354ZM22.9964 32.7849C22.9964 33.2383 23.1765 33.6732 23.4971 33.9938C23.8177 34.3144 24.2525 34.4945 24.7059 34.4945C25.1593 34.4945 25.5941 34.3144 25.9148 33.9938C26.2354 33.6732 26.4155 33.2383 26.4155 32.7849C26.4155 32.3315 26.2354 31.8967 25.9148 31.5761C25.5941 31.2555 25.1593 31.0754 24.7059 31.0754C24.2525 31.0754 23.8177 31.2555 23.4971 31.5761C23.1765 31.8967 22.9964 32.3315 22.9964 32.7849Z" fill="#0CD725"/>
</svg>
