<svg width="24" height="24" viewBox="0 0 24 24" fill="none" xmlns="http://www.w3.org/2000/svg">
<path d="M16.25 20.5625L16.25 2.6875C16.25 2.50516 16.1776 2.3303 16.0486 2.20136C15.9197 2.07243 15.7448 2 15.5625 2L8.6875 2C8.50516 2 8.33029 2.07243 8.20136 2.20136C8.07243 2.33029 8 2.50516 8 2.6875L8 20.5625C8 20.7448 8.07243 20.9197 8.20136 21.0486C8.33029 21.1776 8.50516 21.25 8.6875 21.25L15.5625 21.25C15.7448 21.25 15.9197 21.1776 16.0486 21.0486C16.1776 20.9197 16.25 20.7448 16.25 20.5625ZM9.375 19.875L9.375 3.375L14.875 3.375L14.875 6.125L12.125 6.125L12.125 7.5L14.875 7.5L14.875 10.9375L12.125 10.9375L12.125 12.3125L14.875 12.3125L14.875 15.75L12.125 15.75L12.125 17.125L14.875 17.125L14.875 19.875L9.375 19.875Z" fill="#303864"/>
</svg>
