<svg width="12" height="12" viewBox="0 0 12 12" fill="none" xmlns="http://www.w3.org/2000/svg">
<path d="M4.99995 3C4.86734 3 4.74016 3.05268 4.64639 3.14645C4.55263 3.24021 4.49995 3.36739 4.49995 3.5V5.5H2.70495L3.10495 5.105C3.1991 5.01085 3.25199 4.88315 3.25199 4.75C3.25199 4.61685 3.1991 4.48915 3.10495 4.395C3.0108 4.30085 2.8831 4.24795 2.74995 4.24795C2.6168 4.24795 2.4891 4.30085 2.39495 4.395L1.14495 5.645C1.09943 5.69255 1.06375 5.74862 1.03995 5.81C0.989939 5.93173 0.989939 6.06827 1.03995 6.19C1.06375 6.25138 1.09943 6.30745 1.14495 6.355L2.39495 7.605C2.44143 7.65186 2.49673 7.68906 2.55766 7.71445C2.61859 7.73983 2.68394 7.7529 2.74995 7.7529C2.81595 7.7529 2.88131 7.73983 2.94224 7.71445C3.00317 7.68906 3.05847 7.65186 3.10495 7.605C3.15181 7.55852 3.18901 7.50322 3.21439 7.44229C3.23978 7.38136 3.25285 7.31601 3.25285 7.25C3.25285 7.18399 3.23978 7.11864 3.21439 7.05771C3.18901 6.99678 3.15181 6.94148 3.10495 6.895L2.70495 6.5H4.49995V8.5C4.49995 8.63261 4.55263 8.75979 4.64639 8.85355C4.74016 8.94732 4.86734 9 4.99995 9C5.13256 9 5.25973 8.94732 5.3535 8.85355C5.44727 8.75979 5.49995 8.63261 5.49995 8.5V3.5C5.49995 3.36739 5.44727 3.24021 5.3535 3.14645C5.25973 3.05268 5.13256 3 4.99995 3ZM10.9599 5.81C10.9362 5.74862 10.9005 5.69255 10.8549 5.645L9.60495 4.395C9.55833 4.34838 9.50298 4.3114 9.44207 4.28617C9.38116 4.26094 9.31588 4.24795 9.24995 4.24795C9.1168 4.24795 8.9891 4.30085 8.89495 4.395C8.84833 4.44162 8.81135 4.49696 8.78612 4.55788C8.76089 4.61879 8.7479 4.68407 8.7479 4.75C8.7479 4.88315 8.8008 5.01085 8.89495 5.105L9.29495 5.5H7.49995V3.5C7.49995 3.36739 7.44727 3.24021 7.3535 3.14645C7.25973 3.05268 7.13256 3 6.99995 3C6.86734 3 6.74016 3.05268 6.64639 3.14645C6.55263 3.24021 6.49995 3.36739 6.49995 3.5V8.5C6.49995 8.63261 6.55263 8.75979 6.64639 8.85355C6.74016 8.94732 6.86734 9 6.99995 9C7.13256 9 7.25973 8.94732 7.3535 8.85355C7.44727 8.75979 7.49995 8.63261 7.49995 8.5V6.5H9.29495L8.89495 6.895C8.84808 6.94148 8.81089 6.99678 8.7855 7.05771C8.76012 7.11864 8.74705 7.18399 8.74705 7.25C8.74705 7.31601 8.76012 7.38136 8.7855 7.44229C8.81089 7.50322 8.84808 7.55852 8.89495 7.605C8.94143 7.65186 8.99673 7.68906 9.05766 7.71445C9.11859 7.73983 9.18394 7.7529 9.24995 7.7529C9.31595 7.7529 9.38131 7.73983 9.44224 7.71445C9.50317 7.68906 9.55847 7.65186 9.60495 7.605L10.8549 6.355C10.9005 6.30745 10.9362 6.25138 10.9599 6.19C11.01 6.06827 11.01 5.93173 10.9599 5.81Z" fill="#303864"/>
</svg>
