<svg width="35" height="35" viewBox="0 0 35 35" fill="none" xmlns="http://www.w3.org/2000/svg">
<path d="M35 17.5C35 27.1649 27.1649 35 17.5 35C7.83514 35 0 27.1649 0 17.5C0 7.83514 7.83514 0 17.5 0C27.1649 0 35 7.83514 35 17.5Z" fill="#FFCC4D"/>
<path d="M17.5 21.242C14.6164 21.242 12.7021 20.9056 10.3357 20.4457C9.79414 20.3427 8.74316 20.4457 8.74316 22.0382C8.74316 25.2223 12.4016 29.2025 17.5 29.2025C22.5983 29.2025 26.2568 25.2223 26.2568 22.0382C26.2568 20.4457 25.2048 20.3417 24.6643 20.4457C22.2979 20.9056 20.3846 21.242 17.5 21.242Z" fill="#664500"/>
<path d="M16.1875 3.18987C15.3523 0.826397 12.7614 -0.414159 10.3969 0.419036C8.96191 0.924591 7.94594 2.08251 7.55024 3.43681C6.39232 2.63084 4.87566 2.36737 3.4426 2.87292C1.0801 3.70709 -0.162398 6.30001 0.672741 8.66348C0.791352 8.99793 0.948852 9.30806 1.13163 9.59487C3.02844 13.0774 8.50885 15.5254 11.827 15.5556C14.3908 13.4488 17.1218 8.10348 16.414 4.20292C16.377 3.86459 16.3041 3.52431 16.1875 3.18987V3.18987ZM18.8125 3.18987C19.6476 0.826397 22.2395 -0.414159 24.603 0.419036C26.038 0.924591 27.054 2.08251 27.4507 3.43681C28.6086 2.63084 30.1252 2.36737 31.5583 2.87292C33.9208 3.70709 35.1623 6.30001 34.3291 8.66348C34.2095 8.99793 34.053 9.30806 33.8693 9.59487C31.9725 13.0774 26.492 15.5254 23.1729 15.5556C20.6091 13.4488 17.8791 8.10348 18.5869 4.20292C18.6229 3.86459 18.6958 3.52431 18.8125 3.18987V3.18987Z" fill="#DD2E44"/>
</svg>
