<svg width="34" height="34" viewBox="0 0 34 34" fill="none" xmlns="http://www.w3.org/2000/svg">
<path d="M34 17C34 26.3887 26.3887 34 17 34C7.61222 34 0 26.3887 0 17C0 7.61222 7.61222 0 17 0C26.3887 0 34 7.61222 34 17Z" fill="#FFCC4D"/>
<path d="M23.6111 24.5555H10.3889C9.86753 24.5555 9.44442 24.1334 9.44442 23.6111C9.44442 23.0888 9.86753 22.6666 10.3889 22.6666H23.6111C24.1334 22.6666 24.5555 23.0888 24.5555 23.6111C24.5555 24.1334 24.1334 24.5555 23.6111 24.5555ZM14.1666 17H7.55553C7.0342 17 6.61108 16.5769 6.61108 16.0555C6.61108 15.5342 7.0342 15.1111 7.55553 15.1111H14.1666C14.688 15.1111 15.1111 15.5342 15.1111 16.0555C15.1111 16.5769 14.688 17 14.1666 17ZM26.4444 17H19.8333C19.311 17 18.8889 16.5769 18.8889 16.0555C18.8889 15.5342 19.311 15.1111 19.8333 15.1111L26.4444 15.1111C26.9667 15.1111 27.3889 15.5342 27.3889 16.0555C27.3889 16.5769 26.9667 17 26.4444 17Z" fill="#664500"/>
</svg>
