<svg width="35" height="35" viewBox="0 0 35 35" fill="none" xmlns="http://www.w3.org/2000/svg">
<path d="M35 17.5C35 27.1649 27.1649 35 17.5 35C7.83514 35 0 27.1649 0 17.5C0 7.83514 7.83514 0 17.5 0C27.1649 0 35 7.83514 35 17.5Z" fill="#FFCC4D"/>
<path d="M21.3889 26.2501C21.3889 28.9363 19.6476 29.1668 17.5 29.1668C15.3514 29.1668 13.6111 28.9363 13.6111 26.2501C13.6111 23.5658 15.3514 20.4168 17.5 20.4168C19.6476 20.4168 21.3889 23.5658 21.3889 26.2501ZM29.1667 14.5834C29.0461 14.5834 28.9236 14.5611 28.806 14.5134C23.7222 12.4805 21.6388 9.41801 21.5522 9.2887C21.2538 8.84148 21.3743 8.23773 21.8215 7.94023C22.2678 7.64273 22.8686 7.76134 23.1681 8.20662C23.1865 8.23287 25.0444 10.9143 29.5274 12.707C30.0261 12.9073 30.2692 13.4722 30.0699 13.9709C29.9172 14.352 29.5517 14.5834 29.1667 14.5834V14.5834ZM5.83333 14.5834C5.44736 14.5834 5.08278 14.352 4.93014 13.9719C4.73083 13.4731 4.97292 12.9073 5.47167 12.708C9.95556 10.9152 11.8135 8.23384 11.8319 8.20759C12.1314 7.76426 12.7351 7.64662 13.1804 7.94509C13.6247 8.24454 13.7453 8.8444 13.4478 9.28968C13.3613 9.41898 11.2778 12.4815 6.195 14.5144C6.07639 14.5611 5.95389 14.5834 5.83333 14.5834Z" fill="#664500"/>
<path d="M23.3334 15.5557L27.2223 15.5557V34.0279L23.3334 33.9832V15.5557ZM7.77783 34.0279L11.6667 33.9832V15.5557H7.77783L7.77783 34.0279Z" fill="#5DADEC"/>
<path d="M14.5824 17.4999C14.4365 17.4999 14.2878 17.4669 14.1488 17.3978C10.7343 15.6906 7.27515 17.3803 7.24112 17.3978C6.75987 17.6399 6.17654 17.4425 5.9364 16.9632C5.69626 16.483 5.89071 15.8987 6.37098 15.6585C6.54793 15.571 10.744 13.5225 15.0189 15.6585C15.4992 15.8987 15.6936 16.483 15.4535 16.9632C15.2824 17.3035 14.9392 17.4999 14.5824 17.4999V17.4999ZM28.1935 17.4999C28.0477 17.4999 27.8989 17.4669 27.7599 17.3978C24.3445 15.6906 20.8863 17.3803 20.8522 17.3978C20.372 17.6389 19.7886 17.4435 19.5475 16.9632C19.3074 16.483 19.5018 15.8987 19.9821 15.6585C20.159 15.571 24.3581 13.5235 28.63 15.6585C29.1103 15.8987 29.3047 16.483 29.0646 16.9632C28.8935 17.3035 28.5503 17.4999 28.1935 17.4999V17.4999Z" fill="#664500"/>
<path d="M17.5 35C27.165 35 35 34.1294 35 33.0555C35 31.9816 27.165 31.1111 17.5 31.1111C7.83502 31.1111 0 31.9816 0 33.0555C0 34.1294 7.83502 35 17.5 35Z" fill="#5DADEC"/>
<path d="M17.4999 28.1946C19.1107 28.1946 20.4166 27.324 20.4166 26.2501C20.4166 25.1762 19.1107 24.3057 17.4999 24.3057C15.8891 24.3057 14.5833 25.1762 14.5833 26.2501C14.5833 27.324 15.8891 28.1946 17.4999 28.1946Z" fill="#E75A70"/>
</svg>
