<svg width="34" height="34" viewBox="0 0 34 34" fill="none" xmlns="http://www.w3.org/2000/svg">
<g clip-path="url(#clip0)">
<path d="M34 17C34 26.3887 26.3887 34 17 34C7.61128 34 2.43404e-06 26.3887 1.61325e-06 17C7.92466e-07 7.61128 7.61128 -1.03088e-06 17 -1.85167e-06C26.3887 -2.67246e-06 34 7.61128 34 17Z" fill="#FFCC4D"/>
<path d="M25.8165 21.8441C25.6484 21.692 25.3972 21.6826 25.2168 21.8167C25.1799 21.8441 21.5127 24.5556 17.0001 24.5556C12.4989 24.5556 8.81932 21.8441 8.78344 21.8167C8.60305 21.6826 8.35183 21.6939 8.18372 21.8441C8.01655 21.9952 7.97877 22.2445 8.09494 22.4372C8.21677 22.6393 11.1332 27.3889 17.0001 27.3889C22.867 27.3889 25.7844 22.6402 25.9053 22.4372C26.0214 22.2436 25.9846 21.9952 25.8165 21.8441Z" fill="#664500"/>
<path d="M23.1389 10.3889C21.8349 10.3889 20.7778 11.8688 20.7778 13.6944C20.7778 15.5201 21.8349 17 23.1389 17C24.4429 17 25.5 15.5201 25.5 13.6944C25.5 11.8688 24.4429 10.3889 23.1389 10.3889Z" fill="#664500"/>
<path d="M10.8611 10.3889C9.55705 10.3889 8.49995 11.8688 8.49995 13.6944C8.49995 15.5201 9.55705 17 10.8611 17C12.1651 17 13.2222 15.5201 13.2222 13.6944C13.2222 11.8688 12.1651 10.3889 10.8611 10.3889Z" fill="#664500"/>
</g>
<defs>
<clipPath id="clip0">
<rect width="34" height="34" fill="white" transform="translate(34 34) rotate(180)"/>
</clipPath>
</defs>
</svg>
