<svg width="34" height="34" viewBox="0 0 34 34" fill="none" xmlns="http://www.w3.org/2000/svg">
<path d="M34 17C34 26.3887 26.3887 34 17 34C7.61222 34 0 26.3887 0 17C0 7.61222 7.61222 0 17 0C26.3887 0 34 7.61222 34 17Z" fill="#FFCC4D"/>
<path d="M10.8611 18.8889C12.1651 18.8889 13.2222 17.409 13.2222 15.5834C13.2222 13.7578 12.1651 12.2778 10.8611 12.2778C9.55711 12.2778 8.5 13.7578 8.5 15.5834C8.5 17.409 9.55711 18.8889 10.8611 18.8889Z" fill="#664500"/>
<path d="M23.1389 18.8889C24.4429 18.8889 25.5001 17.409 25.5001 15.5834C25.5001 13.7578 24.4429 12.2778 23.1389 12.2778C21.8349 12.2778 20.7778 13.7578 20.7778 15.5834C20.7778 17.409 21.8349 18.8889 23.1389 18.8889Z" fill="#664500"/>
</svg>
