<svg width="20" height="21" viewBox="0 0 20 21" fill="none" xmlns="http://www.w3.org/2000/svg">
<path d="M19.2219 5.96199L13.1241 6.03979L9.60399 1.05993C9.50779 0.923555 9.3691 0.822789 9.20967 0.773438C8.80975 0.649072 8.38317 0.873059 8.25646 1.27336L6.44748 7.09726L0.62407 8.9076C0.463455 8.95711 0.325477 9.05837 0.229035 9.19398C0.112605 9.35894 0.0664296 9.56338 0.100654 9.76237C0.134879 9.96137 0.246704 10.1386 0.411558 10.2552L5.39008 13.7768L5.31157 19.8753C5.30955 20.0172 5.34733 20.1568 5.42062 20.2783C5.49392 20.3998 5.59979 20.4984 5.72625 20.5628C5.8527 20.6272 5.99467 20.6549 6.13605 20.6427C6.27744 20.6305 6.41259 20.579 6.52617 20.4939L11.4137 16.8464L17.1891 18.8051C17.3469 18.8595 17.52 18.8585 17.6775 18.8047C18.0749 18.6696 18.2882 18.2387 18.1531 17.8414L16.1938 12.0656L19.8405 7.17798C19.9396 7.04435 19.9933 6.88183 19.9908 6.71378C19.9891 6.29291 19.6424 5.95796 19.2219 5.96199Z" fill="#FFCC4D"/>
</svg>
