<svg width="56" height="71" viewBox="0 0 56 71" fill="none" xmlns="http://www.w3.org/2000/svg">
<path fill-rule="evenodd" clip-rule="evenodd" d="M30 69C43.8071 69 55 57.8071 55 44C55 30.1929 43.8071 19 30 19C16.1929 19 5.00002 30.1929 5.00002 44C5.00002 57.8071 16.1929 69 30 69ZM30 66C42.1503 66 52 56.1503 52 44C52 31.8497 42.1503 22 30 22C17.8498 22 8.00002 31.8497 8.00002 44C8.00002 56.1503 17.8498 66 30 66Z" fill="#303864"/>
<path fill-rule="evenodd" clip-rule="evenodd" d="M29.5 19C31.433 19 33 17.433 33 15.5C33 13.567 31.433 12 29.5 12C27.567 12 26 13.567 26 15.5C26 17.433 27.567 19 29.5 19ZM29.5 17.8333C30.7887 17.8333 31.8333 16.7887 31.8333 15.5C31.8333 14.2113 30.7887 13.1667 29.5 13.1667C28.2114 13.1667 27.1667 14.2113 27.1667 15.5C27.1667 16.7887 28.2114 17.8333 29.5 17.8333Z" fill="#303864"/>
<rect x="25" y="15" width="9" height="5" fill="#303864"/>
<rect x="29" width="1" height="13" fill="#303864"/>
<path d="M11.2699 44.0001H17.2699V47.0001H11.2699V44.0001Z" fill="#303864"/>
<path d="M17.5259 49.1901L23.5259 35.0001H27.1259V49.1901H28.6859V52.1901H27.1259V56.0001H23.8859V52.1901H17.5259V49.1901ZM23.8859 49.1901V41.3001L20.5559 49.1901H23.8859Z" fill="#303864"/>
<path d="M38.6904 35.0001V37.8801L33.8304 56.0001H30.5304L35.3604 38.0001H28.7904V35.0001H38.6904Z" fill="#303864"/>
<path d="M40.3669 39.5561C40.3669 40.0841 40.5829 40.3481 41.0149 40.3481C41.2189 40.3481 41.3749 40.2881 41.4829 40.1681C41.6029 40.0361 41.6629 39.8321 41.6629 39.5561V35.2361C41.6629 34.9601 41.6029 34.7621 41.4829 34.6421C41.3749 34.5101 41.2189 34.4441 41.0149 34.4441C40.5829 34.4441 40.3669 34.7081 40.3669 35.2361V39.5561ZM39.1069 35.3261C39.1069 34.6781 39.2689 34.1801 39.5929 33.8321C39.9169 33.4841 40.3909 33.3101 41.0149 33.3101C41.6389 33.3101 42.1129 33.4841 42.4369 33.8321C42.7609 34.1801 42.9229 34.6781 42.9229 35.3261V39.4661C42.9229 40.1141 42.7609 40.6121 42.4369 40.9601C42.1129 41.3081 41.6389 41.4821 41.0149 41.4821C40.3909 41.4821 39.9169 41.3081 39.5929 40.9601C39.2689 40.6121 39.1069 40.1141 39.1069 39.4661V35.3261ZM45.9829 33.4001H47.1529L42.1849 46.0001H41.0149L45.9829 33.4001ZM46.6129 44.1641C46.6129 44.6921 46.8289 44.9561 47.2609 44.9561C47.4649 44.9561 47.6209 44.8961 47.7289 44.7761C47.8489 44.6441 47.9089 44.4401 47.9089 44.1641V39.8441C47.9089 39.5681 47.8489 39.3701 47.7289 39.2501C47.6209 39.1181 47.4649 39.0521 47.2609 39.0521C46.8289 39.0521 46.6129 39.3161 46.6129 39.8441V44.1641ZM45.3529 39.9341C45.3529 39.2861 45.5149 38.7881 45.8389 38.4401C46.1629 38.0921 46.6369 37.9181 47.2609 37.9181C47.8849 37.9181 48.3589 38.0921 48.6829 38.4401C49.0069 38.7881 49.1689 39.2861 49.1689 39.9341V44.0741C49.1689 44.7221 49.0069 45.2201 48.6829 45.5681C48.3589 45.9161 47.8849 46.0901 47.2609 46.0901C46.6369 46.0901 46.1629 45.9161 45.8389 45.5681C45.5149 45.2201 45.3529 44.7221 45.3529 44.0741V39.9341Z" fill="#303864"/>
<circle cx="43.5" cy="13.5" r="1.5" fill="#303864"/>
<circle cx="2.80237" cy="63.4056" r="1.98493" transform="rotate(96.1478 2.80237 63.4056)" fill="#303864"/>
<circle cx="9.54261" cy="68.7898" r="1.32328" transform="rotate(96.1478 9.54261 68.7898)" fill="#303864"/>
<path d="M49.7011 7.17357C49.7672 6.81635 50.2517 6.75238 50.4083 7.0802L51.2022 8.74324C51.2722 8.88985 51.4287 8.97471 51.5897 8.95345L53.4167 8.71223C53.7769 8.66468 53.9875 9.10577 53.7241 9.35593L52.3878 10.625C52.27 10.7368 52.2376 10.9118 52.3076 11.0584L53.1016 12.7215C53.2581 13.0493 52.9037 13.3859 52.5844 13.2127L50.9645 12.3339C50.8217 12.2565 50.6453 12.2798 50.5274 12.3916L49.1912 13.6607C48.9277 13.9108 48.4981 13.6778 48.5642 13.3206L48.8993 11.5084C48.9289 11.3487 48.8522 11.1881 48.7094 11.1106L47.0895 10.2319C46.7702 10.0587 46.8591 9.57803 47.2193 9.53048L49.0463 9.28926C49.2073 9.26799 49.3364 9.14544 49.3659 8.98569L49.7011 7.17357Z" fill="#303864"/>
</svg>
