<svg width="30" height="30" viewBox="0 0 30 30" fill="none" xmlns="http://www.w3.org/2000/svg">
<g clip-path="url(#clip0_102_132)">
<path d="M6 26V27H8V26H6ZM22 26V27H24V26H22ZM8 26V25H6V26H8ZM13 20H17V18H13V20ZM22 25V26H24V25H22ZM17 20C18.3261 20 19.5979 20.5268 20.5355 21.4645C21.4732 22.4021 22 23.6739 22 25H24C24 23.1435 23.2625 21.363 21.9497 20.0503C20.637 18.7375 18.8565 18 17 18V20ZM8 25C8 23.6739 8.52678 22.4021 9.46447 21.4645C10.4021 20.5268 11.6739 20 13 20V18C11.1435 18 9.36301 18.7375 8.05025 20.0503C6.7375 21.363 6 23.1435 6 25H8ZM15 6C13.6739 6 12.4021 6.52678 11.4645 7.46447C10.5268 8.40215 10 9.67392 10 11H12C12 10.2044 12.3161 9.44129 12.8787 8.87868C13.4413 8.31607 14.2044 8 15 8V6ZM20 11C20 9.67392 19.4732 8.40215 18.5355 7.46447C17.5979 6.52678 16.3261 6 15 6V8C15.7956 8 16.5587 8.31607 17.1213 8.87868C17.6839 9.44129 18 10.2044 18 11H20ZM15 16C16.3261 16 17.5979 15.4732 18.5355 14.5355C19.4732 13.5979 20 12.3261 20 11H18C18 11.7956 17.6839 12.5587 17.1213 13.1213C16.5587 13.6839 15.7956 14 15 14V16ZM15 14C14.2044 14 13.4413 13.6839 12.8787 13.1213C12.3161 12.5587 12 11.7956 12 11H10C10 12.3261 10.5268 13.5979 11.4645 14.5355C12.4021 15.4732 13.6739 16 15 16V14ZM15 28C11.5522 28 8.24558 26.6304 5.80761 24.1924C3.36964 21.7544 2 18.4478 2 15H0C0 18.9782 1.58035 22.7936 4.3934 25.6066C7.20644 28.4196 11.0218 30 15 30V28ZM28 15C28 16.7072 27.6637 18.3977 27.0104 19.9749C26.3571 21.5521 25.3995 22.9852 24.1924 24.1924C22.9852 25.3995 21.5521 26.3571 19.9749 27.0104C18.3977 27.6637 16.7072 28 15 28V30C18.9782 30 22.7936 28.4196 25.6066 25.6066C28.4196 22.7936 30 18.9782 30 15H28ZM15 2C16.7072 2 18.3977 2.33626 19.9749 2.98957C21.5521 3.64288 22.9852 4.60045 24.1924 5.80761C25.3995 7.01477 26.3571 8.44788 27.0104 10.0251C27.6637 11.6023 28 13.2928 28 15H30C30 11.0218 28.4196 7.20644 25.6066 4.3934C22.7936 1.58035 18.9782 0 15 0V2ZM15 0C11.0218 0 7.20644 1.58035 4.3934 4.3934C1.58035 7.20644 0 11.0218 0 15H2C2 11.5522 3.36964 8.24558 5.80761 5.80761C8.24558 3.36964 11.5522 2 15 2V0Z" fill="#10D828"/>
</g>
<defs>
<clipPath id="clip0_102_132">
<rect width="30" height="30" fill="white"/>
</clipPath>
</defs>
</svg>
