<svg width="34" height="34" viewBox="0 0 34 34" fill="none" xmlns="http://www.w3.org/2000/svg">
<path fill-rule="evenodd" clip-rule="evenodd" d="M5.22332 18.179C4.97138 17.7914 4.77486 17.4626 4.63521 17.2187C4.77486 16.9749 4.97138 16.6461 5.22332 16.2585C5.79246 15.3829 6.63773 14.2176 7.74122 13.056C9.96399 10.7163 13.1232 8.50336 17.1062 8.50336C21.0892 8.50336 24.2484 10.7163 26.4712 13.056C27.5747 14.2176 28.42 15.3829 28.9891 16.2585C29.241 16.6461 29.4375 16.9749 29.5772 17.2187C29.4375 17.4626 29.241 17.7914 28.9891 18.179C28.42 19.0546 27.5747 20.2199 26.4712 21.3814C24.2484 23.7212 21.0892 25.9341 17.1062 25.9341C13.1232 25.9341 9.96399 23.7212 7.74122 21.3814C6.63773 20.2199 5.79246 19.0546 5.22332 18.179ZM31.6773 16.756C31.6775 16.7564 31.6777 16.7568 30.7538 17.2187C31.6777 17.6807 31.6775 17.681 31.6773 17.6814L31.6768 17.6824L31.6755 17.6851L31.6715 17.693L31.6581 17.7193C31.6467 17.7413 31.6305 17.7724 31.6096 17.8119C31.5678 17.8909 31.5068 18.0036 31.4268 18.1452C31.2671 18.4283 31.0313 18.8278 30.7212 19.3048C30.1023 20.257 29.1807 21.5288 27.9689 22.8043C25.5613 25.3387 21.8967 28 17.1062 28C12.3157 28 8.65115 25.3387 6.24347 22.8043C5.03175 21.5288 4.11014 20.257 3.49121 19.3048C3.18111 18.8278 2.94532 18.4283 2.78557 18.1452C2.70566 18.0036 2.64466 17.8909 2.6028 17.8119C2.58187 17.7724 2.56571 17.7413 2.55435 17.7193L2.54092 17.693L2.53691 17.6851L2.53558 17.6824L2.53509 17.6814C2.53489 17.681 2.53471 17.6807 3.45859 17.2187C2.53471 16.7568 2.53489 16.7564 2.53509 16.756L2.53558 16.755L2.53691 16.7524L2.54092 16.7445L2.55435 16.7182C2.56571 16.6961 2.58187 16.665 2.6028 16.6255C2.64466 16.5466 2.70566 16.4338 2.78557 16.2922C2.94532 16.0091 3.18111 15.6097 3.49121 15.1326C4.11014 14.1804 5.03175 12.9086 6.24347 11.6331C8.65115 9.09875 12.3157 6.4375 17.1062 6.4375C21.8967 6.4375 25.5613 9.09875 27.9689 11.6331C29.1807 12.9086 30.1023 14.1804 30.7212 15.1326C31.0313 15.6097 31.2671 16.0091 31.4268 16.2922C31.5068 16.4338 31.5678 16.5466 31.6096 16.6255C31.6305 16.665 31.6467 16.6961 31.6581 16.7182L31.6715 16.7445L31.6755 16.7524L31.6768 16.755L31.6773 16.756ZM30.7538 17.2187L31.6777 16.7568C31.8231 17.0476 31.8231 17.3899 31.6777 17.6807L30.7538 17.2187ZM2.53471 16.7568L3.45859 17.2187L2.53471 17.6807C2.38931 17.3899 2.38931 17.0476 2.53471 16.7568ZM12.2902 17.2185C12.2902 14.5587 14.4464 12.4025 17.1063 12.4025C19.7661 12.4025 21.9223 14.5587 21.9223 17.2185C21.9223 19.8784 19.7661 22.0346 17.1063 22.0346C14.4464 22.0346 12.2902 19.8784 12.2902 17.2185ZM17.1063 10.3366C13.3055 10.3366 10.2243 13.4178 10.2243 17.2185C10.2243 21.0193 13.3055 24.1005 17.1063 24.1005C20.907 24.1005 23.9882 21.0193 23.9882 17.2185C23.9882 13.4178 20.907 10.3366 17.1063 10.3366Z" fill="#C8C8C8"/>
</svg>
