<svg width="34" height="34" viewBox="0 0 34 34" fill="none" xmlns="http://www.w3.org/2000/svg">
<path d="M26.6682 15.7457C26.6682 15.7457 27.0509 17.6348 27.1365 18.0309H25.4549C25.621 17.5789 26.2604 15.8219 26.2604 15.8219C26.2503 15.8371 26.4266 15.3598 26.5273 15.0652L26.6682 15.7457ZM32 8.0625V25.9375C32 27.2832 30.9175 28.375 29.5833 28.375H5.41667C4.08247 28.375 3 27.2832 3 25.9375V8.0625C3 6.7168 4.08247 5.625 5.41667 5.625H29.5833C30.9175 5.625 32 6.7168 32 8.0625ZM10.678 20.8188L13.8599 12.9375H11.7201L9.74149 18.3203L9.525 17.2285L8.82014 13.6027C8.70434 13.1 8.34688 12.9578 7.90382 12.9375H4.64635L4.61111 13.0949C5.4066 13.298 6.11649 13.5926 6.73576 13.9633L8.53819 20.8188H10.678ZM15.4307 20.8289L16.6995 12.9375H14.6755L13.4118 20.8289H15.4307ZM22.4743 18.2492C22.4844 17.3504 21.9406 16.6648 20.7776 16.1012C20.0677 15.7406 19.6347 15.4969 19.6347 15.1262C19.6448 14.791 20.0023 14.4457 20.7977 14.4457C21.4573 14.4305 21.9406 14.5879 22.3031 14.7453L22.4844 14.8316L22.7613 13.1254C22.3635 12.968 21.7292 12.7902 20.9488 12.7902C18.95 12.7902 17.5453 13.8668 17.5352 15.4004C17.5201 16.5328 18.5422 17.1625 19.3075 17.5434C20.0878 17.9293 20.3547 18.1832 20.3547 18.5234C20.3446 19.0516 19.7203 19.2953 19.1413 19.2953C18.3358 19.2953 17.9028 19.1684 17.2432 18.8738L16.9764 18.7469L16.6944 20.5191C17.1677 20.7375 18.0437 20.9305 18.95 20.9406C21.0747 20.9457 22.4592 19.8844 22.4743 18.2492ZM29.5833 20.8289L27.9521 12.9375H26.3863C25.903 12.9375 25.5354 13.0797 25.329 13.5926L22.3233 20.8289H24.4479C24.4479 20.8289 24.7953 19.8539 24.8708 19.6457H27.4688C27.5292 19.925 27.7104 20.8289 27.7104 20.8289H29.5833Z" fill="#C8C8C8"/>
</svg>
