<svg width="25" height="16" viewBox="0 0 25 16" fill="none" xmlns="http://www.w3.org/2000/svg">
<path d="M0 2.20118C0 1.39645 0.477602 0.962525 1.43281 0.899408L5.11364 0.923077C5.36067 0.923077 5.52536 1.04142 5.60771 1.27811C5.9865 2.46154 6.41057 3.48323 6.87994 4.3432C7.34931 5.20316 7.96278 6.19329 8.72036 7.31361C8.78623 7.45562 8.89328 7.52663 9.0415 7.52663C9.15679 7.52663 9.24736 7.4714 9.31324 7.36095L9.38735 7.10059L9.41206 3.00592C9.41206 2.72189 9.34206 2.53254 9.20208 2.43787C9.06209 2.3432 8.8027 2.27219 8.42391 2.22485C8.12747 2.17751 7.97925 2.00394 7.97925 1.70414C7.97925 1.64103 7.98748 1.59369 8.00395 1.56213C8.3498 0.536489 9.33794 0.0236686 10.9684 0.0236686L12.3518 0C12.9776 0 13.4964 0.149901 13.9081 0.449704C14.3198 0.749507 14.5257 1.22288 14.5257 1.86982V7.2426C14.641 7.3215 14.748 7.36095 14.8468 7.36095C15.0939 7.36095 15.308 7.21894 15.4891 6.93491C17.3007 4.50493 18.2806 2.87968 18.4289 2.05917C18.4289 2.04339 18.4453 2.00394 18.4783 1.94083C18.5935 1.70414 18.7829 1.49901 19.0464 1.32544C19.3099 1.15187 19.5405 1.03353 19.7381 0.970414C19.804 0.938856 19.8781 0.923077 19.9605 0.923077H23.7895L24.0366 0.946746C24.3659 0.946746 24.6212 1.09665 24.8024 1.39645C24.8682 1.49112 24.9135 1.59369 24.9382 1.70414C24.9629 1.8146 24.9794 1.92505 24.9876 2.0355C24.9959 2.14596 25 2.20907 25 2.22485V2.39053C24.8847 3.03748 24.5924 3.72781 24.123 4.46154C23.6537 5.19527 23.0567 5.98817 22.332 6.84024C21.6074 7.69231 21.1545 8.25247 20.9733 8.52071C20.8251 8.71006 20.751 8.88363 20.751 9.04142C20.751 9.16765 20.8169 9.30966 20.9486 9.46746L24.5553 13.8225C24.753 14.075 24.8518 14.3511 24.8518 14.6509C24.8518 15.0138 24.7036 15.3136 24.4071 15.5503C24.1107 15.787 23.7566 15.9211 23.3449 15.9527L22.9249 15.9763H19.17C19.1535 15.9763 19.1206 15.9803 19.0711 15.9882C19.0217 15.9961 18.9888 16 18.9723 16C18.61 16 18.2724 15.8501 17.9595 15.5503C17.8442 15.4241 17.0702 14.4931 15.6374 12.7574C15.555 12.6469 15.4397 12.5444 15.2915 12.4497C15.2256 12.7022 15.1392 13.0651 15.0321 13.5385C14.9251 14.0118 14.8468 14.3511 14.7974 14.5562L14.7233 14.9586C14.5586 15.5108 14.2128 15.8422 13.6858 15.9527L13.3399 15.9763H10.919C9.55204 15.9763 8.18923 15.3767 6.83053 14.1775C5.47184 12.9783 4.24901 11.428 3.16206 9.52663C2.0751 7.62525 1.06225 5.41223 0.123518 2.88757C0.0411726 2.68245 0 2.45365 0 2.20118ZM14.8468 8.33136C14.501 8.33136 14.1881 8.24063 13.9081 8.05917C13.6281 7.87771 13.4881 7.62919 13.4881 7.31361V1.86982C13.4881 1.55424 13.4058 1.32939 13.2411 1.19527C13.0764 1.06114 12.7882 0.994083 12.3765 0.994083L10.9684 1.04142C10.2602 1.04142 9.72497 1.15976 9.36265 1.39645C10.0873 1.72781 10.4496 2.2643 10.4496 3.00592V7.1716C10.4167 7.56607 10.252 7.89349 9.95553 8.15385C9.65909 8.4142 9.32971 8.54438 8.96739 8.54438C8.47332 8.54438 8.09453 8.31558 7.83103 7.85799C6.54644 5.99606 5.59124 4.2288 4.96542 2.55621L4.74308 1.94083L1.45751 1.91716C1.24341 1.91716 1.12401 1.92899 1.09931 1.95266C1.0746 1.97633 1.06225 2.04339 1.06225 2.15385C1.06225 2.29586 1.07872 2.44576 1.11166 2.60355L1.63043 3.92899C3.01383 7.35306 4.51663 10.0513 6.13883 12.0237C7.76103 13.9961 9.35441 14.9822 10.919 14.9822H13.3893C13.4881 14.9822 13.5623 14.9546 13.6117 14.8994C13.6611 14.8442 13.7022 14.7377 13.7352 14.5799L13.7846 14.3432L14.254 12.2604C14.3857 11.9763 14.501 11.787 14.5998 11.6923C14.781 11.5187 14.9951 11.432 15.2421 11.432C15.6374 11.432 16.0408 11.6607 16.4526 12.1183L18.5524 14.6746C18.6841 14.8797 18.8241 14.9822 18.9723 14.9822H23.0484C23.5425 14.9822 23.7895 14.8639 23.7895 14.6272C23.7895 14.5483 23.7648 14.4694 23.7154 14.3905L20.1334 10.1065C19.8534 9.77515 19.7134 9.42012 19.7134 9.04142C19.7134 8.66272 19.8452 8.2998 20.1087 7.95266C20.3228 7.63708 20.7386 7.11243 21.3562 6.3787C21.9738 5.64497 22.5132 4.95858 22.9743 4.31953C23.4354 3.68047 23.7401 3.10059 23.8883 2.57988L23.9625 2.27219C23.946 2.24063 23.9377 2.18935 23.9377 2.11834C23.9377 2.04734 23.9295 1.98817 23.913 1.94083H20.0346C19.7875 2.0355 19.5899 2.17751 19.4417 2.36686L19.2935 2.81657C18.8818 3.90533 17.803 5.5858 16.0573 7.85799C15.7115 8.17357 15.308 8.33136 14.8468 8.33136Z" fill="#C8C8C8"/>
</svg>
