<svg width="34" height="34" viewBox="0 0 34 34" fill="none" xmlns="http://www.w3.org/2000/svg">
<path d="M17.5 2C8.93988 2 2 8.93956 2 17.5C2 26.0604 8.93988 33 17.5 33C26.0601 33 33 26.0604 33 17.5C33 8.93956 26.0601 2 17.5 2ZM25.3624 19.1764C26.0849 19.882 26.8492 20.5461 27.4977 21.3247C27.785 21.6691 28.0559 22.0252 28.262 22.4257C28.5563 22.9969 28.2905 23.6233 27.7793 23.6572L24.6038 23.6566C23.7837 23.7244 23.1311 23.3936 22.5808 22.833C22.1416 22.3861 21.7341 21.9088 21.311 21.4468C21.1382 21.2571 20.9561 21.0786 20.7392 20.9381C20.3063 20.6565 19.9302 20.7427 19.6822 21.1949C19.4295 21.6551 19.3717 22.1651 19.3476 22.6772C19.3131 23.426 19.0873 23.6217 18.336 23.6569C16.7306 23.732 15.2074 23.4885 13.7917 22.6791C12.5429 21.9653 11.5762 20.9577 10.7339 19.817C9.09369 17.5932 7.83751 15.1526 6.70883 12.6418C6.4548 12.0763 6.64064 11.7738 7.26445 11.7621C8.30085 11.7421 9.33725 11.7446 10.3736 11.7611C10.7954 11.7678 11.0745 12.0091 11.2366 12.4071C11.7966 13.7851 12.4832 15.0961 13.3436 16.312C13.5729 16.6358 13.807 16.9586 14.1403 17.1873C14.5081 17.4397 14.7885 17.3563 14.962 16.9456C15.073 16.6846 15.1208 16.4056 15.145 16.1259C15.2274 15.1678 15.2372 14.21 15.0945 13.2558C15.0057 12.6586 14.6699 12.273 14.0746 12.1601C13.7714 12.1027 13.8158 11.9904 13.9633 11.8172C14.2192 11.5179 14.459 11.3327 14.9382 11.3327L18.5259 11.332C19.0914 11.443 19.2182 11.6967 19.295 12.2663L19.2982 16.2533C19.2915 16.4737 19.4088 17.127 19.8046 17.2713C20.1218 17.376 20.3311 17.1217 20.5207 16.9209C21.3811 16.0079 21.9941 14.9303 22.5431 13.8149C22.7854 13.323 22.9944 12.814 23.1973 12.3041C23.3483 11.927 23.583 11.7415 24.0086 11.7478L27.4634 11.7519C27.5652 11.7519 27.6686 11.7529 27.7695 11.7703C28.3517 11.8699 28.5113 12.1204 28.3311 12.6884C28.0476 13.5808 27.4967 14.3242 26.9583 15.0695C26.3811 15.8674 25.7655 16.6374 25.194 17.4388C24.6688 18.1714 24.7104 18.5402 25.3624 19.1764Z" fill="#C8C8C8"/>
</svg>
