<svg width="34" height="34" viewBox="0 0 34 34" xmlns="http://www.w3.org/2000/svg">
<path fill-rule="evenodd" clip-rule="evenodd" d="M2 17.5C2 8.93956 8.93988 2 17.5 2C26.0601 2 33 8.93956 33 17.5C33 26.0604 26.0601 33 17.5 33C8.93988 33 2 26.0604 2 17.5ZM25.6948 24.8239C26.8406 24.6961 27.7926 23.8376 28.0609 22.6737C28.4424 21.0161 28.4434 19.2065 28.4434 17.5V17.4582C28.4434 15.7639 28.4435 13.9704 28.0651 12.3263C27.7974 11.162 26.8453 10.3036 25.6989 10.1754C22.9855 9.87226 20.2385 9.87067 17.5038 9.87226C14.7685 9.87067 12.0215 9.87226 9.30712 10.1754C8.16131 10.3036 7.2099 11.1624 6.94224 12.3263C6.56073 13.9836 6.55629 15.7935 6.55629 17.5C6.55629 19.2065 6.55629 21.0158 6.9378 22.6737C7.20546 23.8376 8.15687 24.6961 9.30268 24.8239C12.017 25.1274 14.7641 25.129 17.4994 25.1274C20.2347 25.129 22.9811 25.1274 25.6948 24.8239ZM17.7796 19.2878C16.7465 19.8234 15.713 20.3592 14.6756 20.8972V13.6592C15.9344 14.3162 17.189 14.9706 18.4462 15.6264C19.5055 16.179 20.5667 16.7326 21.6338 17.2894C20.3449 17.9579 19.0625 18.6227 17.7796 19.2878Z"/>
</svg>
